<svg id="Layer_1" data-name="Layer 1" xmlns="http://www.w3.org/2000/svg" viewBox="0 0 32 32"><defs><style>.cls-1,.cls-2{fill:#fcfcfc;}.cls-1{stroke:#d3d3d3;stroke-miterlimit:10;}.cls-2{opacity:0;}</style></defs><title>android</title><path class="cls-1" d="M7.94,11.42H24.4V23.36a2,2,0,0,1-2,2H21.1V29.4a1.85,1.85,0,0,1-3.69,0V25.33H14.94V29.4a1.84,1.84,0,1,1-3.68,0l0-4.07H9.91a2,2,0,0,1-2-2Z"/><path class="cls-1" d="M4.31,11.42a1.94,1.94,0,0,0-1.94,1.92v8.11a1.93,1.93,0,1,0,3.87,0V13.34A1.93,1.93,0,0,0,4.31,11.42Z"/><path class="cls-1" d="M24.58,10H7.76a7.58,7.58,0,0,1,4.29-6.71L10.76.91a.26.26,0,0,1,.09-.36.29.29,0,0,1,.36.11l1.31,2.4a9.13,9.13,0,0,1,7.31,0L21.15.66a.29.29,0,0,1,.36-.11.26.26,0,0,1,.09.36L20.31,3.29A7.6,7.6,0,0,1,24.58,10Z"/><path class="cls-1" d="M12.75,6.26A.73.73,0,1,0,12,7,.74.74,0,0,0,12.75,6.26Z"/><path class="cls-1" d="M20.7,6.26A.73.73,0,1,0,20,7,.73.73,0,0,0,20.7,6.26Z"/><path class="cls-1" d="M28,11.42A1.92,1.92,0,0,0,26,13.34v8.11a1.93,1.93,0,1,0,3.87,0V13.34A1.93,1.93,0,0,0,28,11.42Z"/><rect class="cls-2" width="32" height="32"/></svg>