<svg id="Layer_1" data-name="Layer 1" xmlns="http://www.w3.org/2000/svg" viewBox="0 0 904 96.09574"><defs><style>.cls-1{fill:#5eb963;}.cls-2{fill:#14a99f;}</style></defs><title>name</title><path class="cls-1" d="M668.76469,103.928l-18.55831,10.41464a22.82106,22.82106,0,0,1-5.36061,2.1757.35851.35851,0,0,1-.08867.02107,22.97722,22.97722,0,0,1-21.75434-38.765.36021.36021,0,0,1,.06418-.06471,22.82105,22.82105,0,0,1,4.64994-3.44207L646.27519,63.853a9.35,9.35,0,0,0-3.3546-17.42438c-.00853-.0024-.02252-.00173-.03105-.00413l-1.01253-.07771a48.039,48.039,0,1,0,39.47189,70.57973.13154.13154,0,0,1,.0205-.0402c.18754-.35643.37748-.72144.55342-1.08573a.18885.18885,0,0,0,.0229-.04873,9.35382,9.35382,0,0,0-13.181-11.82381Z" transform="translate(-183 -46.25691)"/><rect class="cls-1" x="620.74465" y="73.79709" width="48.00049" height="34.52508" rx="15.05683" ry="15.05683" transform="translate(-145.07836 280.92425) rotate(-29.30047)"/><rect class="cls-2" x="196" y="40.56349" width="187" height="14.96875" rx="4.35499" ry="4.35499"/><rect class="cls-2" x="521" y="40.56349" width="51" height="14.96875" rx="4.35499" ry="4.35499"/><rect class="cls-1" x="593" y="40.56349" width="164" height="14.96875" rx="4.35499" ry="4.35499"/><rect class="cls-1" x="127" y="40.56349" width="51" height="14.96875" rx="4.35499" ry="4.35499"/><rect class="cls-2" y="40.56349" width="109" height="14.96875" rx="4.35499" ry="4.35499"/><rect class="cls-2" x="777.50426" y="40.56349" width="126.49574" height="14.96875" rx="4.35499" ry="4.35499"/></svg>