<svg version="1.1" xmlns="http://www.w3.org/2000/svg" width="32" height="32" viewBox="0 0 32 32">
<title></title>
<defs><style>.cls-1{fill:#FCFCFC;}</style></defs>
<path class='cls-1' d="M13.657 19.781c-0.758 0-1.374 0.616-1.374 1.374s0.616 1.374 1.374 1.374 1.374-0.616 1.374-1.374c0-0.758-0.616-1.374-1.374-1.374zM13.657 21.965c-0.446 0-0.81-0.363-0.81-0.81s0.363-0.81 0.81-0.81c0.446 0 0.81 0.363 0.81 0.81s-0.363 0.81-0.81 0.81zM30.987 3.079h-0.681v-1.312c0-0.595-0.484-1.079-1.079-1.079h-15.675c-0.595 0-1.079 0.484-1.079 1.079v2.018h-10.552c-1.059 0-1.92 0.861-1.92 1.92v16.862c0 1.059 0.861 1.92 1.92 1.92h8.183l-0.95 3.155h-0.076c-0.821 0-1.49 0.668-1.49 1.49v1.097c0 0.156 0.126 0.282 0.282 0.282h11.576c0.156 0 0.282-0.126 0.282-0.282v-1.097c0-0.821-0.668-1.49-1.49-1.49h-0.076l-0.95-3.155h8.183c1.059 0 1.92-0.861 1.92-1.92v-14.541h3.672c0.559 0 1.013-0.454 1.013-1.013v-2.923c0-0.559-0.454-1.013-1.013-1.013zM13.037 1.767c0-0.284 0.231-0.515 0.515-0.515h15.675c0.284 0 0.515 0.231 0.515 0.515v0.074h-7.702c-0.156 0-0.282 0.126-0.282 0.282s0.126 0.282 0.282 0.282h7.702v2.55c0 0.284-0.231 0.515-0.515 0.515h-15.675c-0.284 0-0.515-0.231-0.515-0.515v-3.188zM16.815 12.293c-0.098-0.047-0.214-0.034-0.299 0.034-0.092 0.074-0.203 0.113-0.321 0.113h-0.1c-0.138 0-0.267-0.054-0.365-0.152-0.081-0.081-0.202-0.105-0.308-0.062s-0.175 0.147-0.175 0.261v0.235c0 0.284-0.231 0.515-0.515 0.515h-0.1c-0.284 0-0.515-0.231-0.515-0.515v-6.689h4.782v5.287c0 0.284-0.231 0.515-0.515 0.515-0.156 0-0.282 0.126-0.282 0.282v1.601c0 0.284-0.231 0.515-0.515 0.515h-0.1c-0.284 0-0.515-0.231-0.515-0.515v-1.172c0-0.109-0.062-0.208-0.16-0.255zM1.92 4.35h10.552v0.605c0 0.086 0.011 0.168 0.030 0.248h-11.84c0.2-0.499 0.688-0.853 1.258-0.853zM19.163 29.133v0.815h-11.012v-0.815c0-0.51 0.415-0.925 0.925-0.925h9.162c0.51 0 0.925 0.415 0.925 0.925zM17.573 27.643h-7.83l0.95-3.155h5.93l0.95 3.155zM25.395 23.923h-23.475c-0.747 0-1.355-0.608-1.355-1.355v-1.656h4.149c0.156 0 0.282-0.126 0.282-0.282s-0.126-0.282-0.282-0.282h-4.149v-1.173h26.186v1.96h-7.002c-0.156 0-0.282 0.126-0.282 0.282s0.126 0.282 0.282 0.282h7.002v0.868c-0 0.747-0.608 1.355-1.355 1.355zM31.435 7.014c0 0.247-0.201 0.448-0.448 0.448h-8.867c-0.559 0-1.013 0.454-1.013 1.013v1.112c-0.492 0.1-0.863 0.536-0.863 1.058v5.757c0 0.595 0.484 1.079 1.079 1.079h0.133c0.595 0 1.079-0.484 1.079-1.079v-5.757c0-0.521-0.371-0.957-0.863-1.058v-1.112c0-0.247 0.201-0.448 0.448-0.448h4.63v10.583h-26.186v-8.766h9.021c0.156 0 0.282-0.126 0.282-0.282s-0.126-0.282-0.282-0.282h-9.021v-3.511h12.279c0.19 0.165 0.437 0.267 0.708 0.267h0.003v6.689c0 0.595 0.484 1.079 1.079 1.079h0.1c0.514 0 0.944-0.36 1.053-0.842 0.099 0.029 0.203 0.045 0.309 0.045h0.1c0.073 0 0.145-0.008 0.216-0.022v0.736c0 0.595 0.484 1.079 1.079 1.079h0.1c0.595 0 1.079-0.484 1.079-1.079v-1.356c0.459-0.124 0.797-0.544 0.797-1.042v-5.287h9.761c0.595 0 1.079-0.484 1.079-1.079v-1.312h0.681c0.247 0 0.448 0.201 0.448 0.448v2.923zM21.323 10.131h0.133c0.284 0 0.515 0.231 0.515 0.515v5.757c0 0.284-0.231 0.515-0.515 0.515h-0.133c-0.284 0-0.515-0.231-0.515-0.515v-5.757c0-0.284 0.231-0.515 0.515-0.515zM15.157 6.976c-0.156 0-0.282 0.126-0.282 0.282v3.089c0 0.156 0.126 0.282 0.282 0.282s0.282-0.126 0.282-0.282v-3.089c0-0.156-0.126-0.282-0.282-0.282z"></path>
</svg>
