<svg id="Layer_1" data-name="Layer 1" xmlns="http://www.w3.org/2000/svg" viewBox="0 0 32 32"><defs><style>.cls-1,.cls-3{fill:#fcfcfc;}.cls-2{fill:#d3d3d3;}.cls-3{opacity:0;}</style></defs><title>desktop</title><path class="cls-1" d="M32,4.58v18a2.48,2.48,0,0,1-2.47,2.48H20.11l.77,3.07H22a.47.47,0,0,1,0,.94H10a.47.47,0,0,1,0-.94h1.13l.77-3.07H2.47A2.48,2.48,0,0,1,0,22.61v-18A2.48,2.48,0,0,1,2.47,2.11H29.53A2.48,2.48,0,0,1,32,4.58Z"/><path class="cls-2" d="M16,21.71a.91.91,0,1,0,.91.9A.9.9,0,0,0,16,21.71ZM20.51,8.62h-1a1.47,1.47,0,1,0,0,2.94h1a1.47,1.47,0,0,0,0-2.94Zm0,2h-1a.53.53,0,1,1,0-1.06h1a.53.53,0,0,1,0,1.06ZM13,8.62H11a1,1,0,0,0-1,1v1a1,1,0,0,0,1,1h2a1,1,0,0,0,1-1v-1A1,1,0,0,0,13,8.62Zm-1.47,2H11a0,0,0,0,1,0,0v-1a0,0,0,0,1,0,0h.53Zm1.5,0a0,0,0,0,1,0,0h-.53V9.56H13a0,0,0,0,1,0,0Zm5.49,3.54H17a.47.47,0,0,0,0,.94h1.51A.48.48,0,0,0,19,14.6.47.47,0,0,0,18.51,14.13Zm0-1.51H17a.47.47,0,0,0,0,.94h1.51a.48.48,0,0,0,.47-.47A.47.47,0,0,0,18.51,12.62Zm3,0H20a.48.48,0,0,0-.47.48.47.47,0,0,0,.47.47h1.5A.47.47,0,0,0,22,13.1.48.48,0,0,0,21.51,12.62Zm-9.52,0h-1.5a.47.47,0,0,0,0,.94H12a.47.47,0,1,0,0-.94Zm3,0H13.49a.48.48,0,0,0-.47.48.48.48,0,0,0,.47.47H15a.47.47,0,0,0,.47-.47A.48.48,0,0,0,15,12.62Zm0,1.51H10.49a.47.47,0,0,0,0,.94H15a.47.47,0,0,0,0-.94Zm6.51-1.51H20a.48.48,0,0,0-.47.48.47.47,0,0,0,.47.47h1.5A.47.47,0,0,0,22,13.1.48.48,0,0,0,21.51,12.62ZM22,10.09a1.47,1.47,0,0,0-1.47-1.47h-1a1.47,1.47,0,1,0,0,2.94h1A1.47,1.47,0,0,0,22,10.09Zm-3,0a.53.53,0,0,1,.53-.53h1a.53.53,0,0,1,0,1.06h-1A.53.53,0,0,1,19,10.09Zm-.47,2.53H17a.47.47,0,0,0,0,.94h1.51a.48.48,0,0,0,.47-.47A.47.47,0,0,0,18.51,12.62Zm0,1.51H17a.47.47,0,0,0,0,.94h1.51A.48.48,0,0,0,19,14.6.47.47,0,0,0,18.51,14.13ZM15,12.62H13.49a.48.48,0,0,0-.47.48.48.48,0,0,0,.47.47H15a.47.47,0,0,0,.47-.47A.48.48,0,0,0,15,12.62Zm0,1.51H10.49a.47.47,0,0,0,0,.94H15a.47.47,0,0,0,0-.94Zm-4-2.57h2a1,1,0,0,0,1-1v-1a1,1,0,0,0-1-1H11a1,1,0,0,0-1,1v1A1,1,0,0,0,11,11.56Zm1.47-2H13a0,0,0,0,1,0,0v1a0,0,0,0,1,0,0h-.53Zm-1.5,0a0,0,0,0,1,0,0h.53v1.06H11a0,0,0,0,1,0,0Zm-.47,4H12a.47.47,0,1,0,0-.94h-1.5a.47.47,0,0,0,0,.94Zm12-7.45h-13A1.47,1.47,0,0,0,8,7.58v8a1.47,1.47,0,0,0,1.47,1.47h13A1.47,1.47,0,0,0,24,15.6v-8A1.47,1.47,0,0,0,22.51,6.11ZM23,15.6a.53.53,0,0,1-.53.53h-13A.54.54,0,0,1,9,15.6v-8A.54.54,0,0,1,9.49,7h13a.53.53,0,0,1,.53.53Zm-1.53-3H20a.48.48,0,0,0-.47.48.47.47,0,0,0,.47.47h1.5A.47.47,0,0,0,22,13.1.48.48,0,0,0,21.51,12.62Zm-1-4h-1a1.47,1.47,0,1,0,0,2.94h1a1.47,1.47,0,0,0,0-2.94Zm0,2h-1a.53.53,0,1,1,0-1.06h1a.53.53,0,0,1,0,1.06Zm-2,2H17a.47.47,0,0,0,0,.94h1.51a.48.48,0,0,0,.47-.47A.47.47,0,0,0,18.51,12.62Zm0,1.51H17a.47.47,0,0,0,0,.94h1.51A.48.48,0,0,0,19,14.6.47.47,0,0,0,18.51,14.13ZM15,12.62H13.49a.48.48,0,0,0-.47.48.48.48,0,0,0,.47.47H15a.47.47,0,0,0,.47-.47A.48.48,0,0,0,15,12.62Zm0,1.51H10.49a.47.47,0,0,0,0,.94H15a.47.47,0,0,0,0-.94Zm-4-2.57h2a1,1,0,0,0,1-1v-1a1,1,0,0,0-1-1H11a1,1,0,0,0-1,1v1A1,1,0,0,0,11,11.56Zm1.47-2H13a0,0,0,0,1,0,0v1a0,0,0,0,1,0,0h-.53Zm-1.5,0a0,0,0,0,1,0,0h.53v1.06H11a0,0,0,0,1,0,0Zm-.47,4H12a.47.47,0,1,0,0-.94h-1.5a.47.47,0,0,0,0,.94ZM16,21.71a.91.91,0,1,0,.91.9A.9.9,0,0,0,16,21.71Zm6.51-15.6h-13A1.47,1.47,0,0,0,8,7.58v8a1.47,1.47,0,0,0,1.47,1.47h13A1.47,1.47,0,0,0,24,15.6v-8A1.47,1.47,0,0,0,22.51,6.11ZM23,15.6a.53.53,0,0,1-.53.53h-13A.54.54,0,0,1,9,15.6v-8A.54.54,0,0,1,9.49,7h13a.53.53,0,0,1,.53.53Zm-1.53-3H20a.48.48,0,0,0-.47.48.47.47,0,0,0,.47.47h1.5A.47.47,0,0,0,22,13.1.48.48,0,0,0,21.51,12.62Zm-1-4h-1a1.47,1.47,0,1,0,0,2.94h1a1.47,1.47,0,0,0,0-2.94Zm0,2h-1a.53.53,0,1,1,0-1.06h1a.53.53,0,0,1,0,1.06Zm-2,2H17a.47.47,0,0,0,0,.94h1.51a.48.48,0,0,0,.47-.47A.47.47,0,0,0,18.51,12.62Zm0,1.51H17a.47.47,0,0,0,0,.94h1.51A.48.48,0,0,0,19,14.6.47.47,0,0,0,18.51,14.13ZM15,12.62H13.49a.48.48,0,0,0-.47.48.48.48,0,0,0,.47.47H15a.47.47,0,0,0,.47-.47A.48.48,0,0,0,15,12.62Zm0,1.51H10.49a.47.47,0,0,0,0,.94H15a.47.47,0,0,0,0-.94Zm-4-2.57h2a1,1,0,0,0,1-1v-1a1,1,0,0,0-1-1H11a1,1,0,0,0-1,1v1A1,1,0,0,0,11,11.56Zm1.47-2H13a0,0,0,0,1,0,0v1a0,0,0,0,1,0,0h-.53Zm-1.5,0a0,0,0,0,1,0,0h.53v1.06H11a0,0,0,0,1,0,0Zm-.47,4H12a.47.47,0,1,0,0-.94h-1.5a.47.47,0,0,0,0,.94Zm19-11.45H2.47A2.48,2.48,0,0,0,0,4.58v18a2.48,2.48,0,0,0,2.47,2.48h9.42l-.77,3.07H10a.47.47,0,0,0,0,.94H22a.47.47,0,0,0,0-.94H20.88l-.77-3.07h9.42A2.48,2.48,0,0,0,32,22.61v-18A2.48,2.48,0,0,0,29.53,2.11Zm-17.44,26,.77-3.07h6.28l.77,3.07Zm19-5.55a1.54,1.54,0,0,1-1.53,1.54H2.47A1.54,1.54,0,0,1,.94,22.61V21.08H31.06Zm0-2.47H.94V4.58A1.54,1.54,0,0,1,2.47,3H29.53a1.54,1.54,0,0,1,1.53,1.54Zm-8.55-14h-13A1.47,1.47,0,0,0,8,7.58v8a1.47,1.47,0,0,0,1.47,1.47h13A1.47,1.47,0,0,0,24,15.6v-8A1.47,1.47,0,0,0,22.51,6.11ZM23,15.6a.53.53,0,0,1-.53.53h-13A.54.54,0,0,1,9,15.6v-8A.54.54,0,0,1,9.49,7h13a.53.53,0,0,1,.53.53Zm-1.53-3H20a.48.48,0,0,0-.47.48.47.47,0,0,0,.47.47h1.5A.47.47,0,0,0,22,13.1.48.48,0,0,0,21.51,12.62Zm-1-4h-1a1.47,1.47,0,1,0,0,2.94h1a1.47,1.47,0,0,0,0-2.94Zm0,2h-1a.53.53,0,1,1,0-1.06h1a.53.53,0,0,1,0,1.06Zm-2,2H17a.47.47,0,0,0,0,.94h1.51a.48.48,0,0,0,.47-.47A.47.47,0,0,0,18.51,12.62Zm0,1.51H17a.47.47,0,0,0,0,.94h1.51A.48.48,0,0,0,19,14.6.47.47,0,0,0,18.51,14.13ZM16,23.52a.91.91,0,1,0-.91-.91A.91.91,0,0,0,16,23.52Zm-1-10.9H13.49a.48.48,0,0,0-.47.48.48.48,0,0,0,.47.47H15a.47.47,0,0,0,.47-.47A.48.48,0,0,0,15,12.62Zm0,1.51H10.49a.47.47,0,0,0,0,.94H15a.47.47,0,0,0,0-.94Zm-4-2.57h2a1,1,0,0,0,1-1v-1a1,1,0,0,0-1-1H11a1,1,0,0,0-1,1v1A1,1,0,0,0,11,11.56Zm1.47-2H13a0,0,0,0,1,0,0v1a0,0,0,0,1,0,0h-.53Zm-1.5,0a0,0,0,0,1,0,0h.53v1.06H11a0,0,0,0,1,0,0Zm-.47,4H12a.47.47,0,1,0,0-.94h-1.5a.47.47,0,0,0,0,.94Z"/><rect class="cls-3" width="32" height="32"/></svg>