<svg version="1.1" xmlns="http://www.w3.org/2000/svg" width="32" height="32" viewBox="0 0 32 32">
<defs><style>.cls-1{fill:#FCFCFC;}</style></defs>
<path class="cls-1" d="M16 18.747c-0.862 0-1.563 0.701-1.563 1.562s0.701 1.563 1.563 1.563c0.862 0 1.563-0.701 1.563-1.563s-0.701-1.562-1.563-1.562zM16 21.313c-0.554 0-1.004-0.45-1.004-1.004s0.45-1.004 1.004-1.004 1.004 0.45 1.004 1.004c0 0.554-0.45 1.004-1.004 1.004zM29.796-0.054h-27.592c-1.215 0-2.204 0.989-2.204 2.204v19.82c0 1.215 0.989 2.204 2.204 2.204h9.689l-1.148 3.814h-0.129c-0.936 0-1.698 0.762-1.698 1.698v1.29c0 0.154 0.125 0.279 0.279 0.279h13.607c0.154 0 0.279-0.125 0.279-0.279v-1.29c0-0.936-0.762-1.698-1.698-1.698h-0.129l-1.148-3.814h9.689c1.215 0 2.204-0.989 2.204-2.204v-19.82c-0-1.215-0.989-2.204-2.204-2.204zM2.204 0.504h27.592c0.907 0 1.646 0.738 1.646 1.646v0.077h-5.804c-0.154 0-0.279 0.125-0.279 0.279s0.125 0.279 0.279 0.279h5.804v14.585h-30.883v-1.826h11.188c0.154 0 0.279-0.125 0.279-0.279s-0.125-0.279-0.279-0.279h-11.188v-12.836c0-0.908 0.738-1.646 1.646-1.646zM22.524 29.686v1.011h-13.048v-1.011c0-0.629 0.511-1.14 1.14-1.14h10.768c0.629-0 1.14 0.511 1.14 1.14zM20.672 27.987h-9.345l1.148-3.814h7.048l1.148 3.814zM29.796 23.615h-27.592c-0.907 0-1.646-0.738-1.646-1.646v-1.999h4.929c0.154 0 0.279-0.125 0.279-0.279s-0.125-0.279-0.279-0.279h-4.929v-1.484h30.883v4.041c0 0.908-0.738 1.646-1.646 1.646zM23.097 9.729l-3.145 2.364c-0.345 0.259-0.415 0.751-0.155 1.096l0.385 0.513c0.147 0.195 0.381 0.312 0.627 0.312 0.171 0 0.333-0.054 0.47-0.157l4.898-3.682c0.176-0.133 0.277-0.324 0.277-0.526s-0.101-0.393-0.278-0.526l-4.898-3.682c-0.136-0.102-0.299-0.157-0.47-0.157-0.246 0-0.48 0.117-0.627 0.312l-0.385 0.513c-0.259 0.345-0.19 0.837 0.155 1.096l3.145 2.364c0.035 0.026 0.055 0.055 0.055 0.080s-0.020 0.054-0.055 0.080zM23.432 9.123l-3.145-2.364c-0.099-0.074-0.119-0.216-0.045-0.315l0.385-0.513c0.043-0.057 0.108-0.089 0.18-0.089 0.034 0 0.085 0.008 0.134 0.045l4.898 3.682c0.035 0.026 0.055 0.055 0.055 0.080s-0.020 0.054-0.055 0.080l-4.898 3.682c-0.049 0.037-0.1 0.045-0.134 0.045-0.072 0-0.138-0.033-0.181-0.089l-0.385-0.513c-0.075-0.099-0.054-0.24 0.045-0.315l3.145-2.364c0.176-0.133 0.278-0.324 0.278-0.526s-0.101-0.393-0.278-0.526zM5.824 10.175l4.898 3.682c0.136 0.102 0.299 0.157 0.47 0.157 0.246 0 0.48-0.117 0.627-0.312l0.385-0.513c0.259-0.345 0.19-0.837-0.155-1.096l-3.145-2.364c-0.035-0.026-0.055-0.055-0.055-0.080s0.020-0.053 0.055-0.080l3.145-2.364c0.345-0.26 0.415-0.751 0.155-1.096l-0.385-0.513c-0.147-0.195-0.381-0.312-0.627-0.312-0.171 0-0.333 0.054-0.47 0.157l-4.897 3.682c-0.176 0.133-0.278 0.324-0.278 0.526s0.101 0.393 0.278 0.526zM6.16 9.569l4.897-3.682c0.049-0.037 0.1-0.045 0.134-0.045 0.072 0 0.138 0.032 0.181 0.089l0.385 0.513c0.074 0.099 0.054 0.24-0.045 0.315l-3.145 2.364c-0.176 0.133-0.277 0.324-0.278 0.526s0.101 0.393 0.278 0.526l3.145 2.364c0.099 0.074 0.119 0.216 0.045 0.315l-0.385 0.513c-0.043 0.057-0.108 0.089-0.181 0.089-0.034 0-0.085-0.008-0.134-0.045l-4.897-3.682c-0.035-0.026-0.055-0.055-0.055-0.080s0.020-0.054 0.055-0.080zM13.83 13.655l0.584 0.265c0.102 0.046 0.21 0.070 0.322 0.070 0.307 0 0.588-0.18 0.714-0.459l3.108-6.851c0.178-0.393 0.004-0.858-0.39-1.037l-0.584-0.265c-0.102-0.046-0.21-0.070-0.322-0.070-0.307 0-0.588 0.18-0.715 0.459l-3.108 6.851c-0.086 0.19-0.093 0.403-0.019 0.599s0.219 0.352 0.409 0.438zM13.949 12.849l3.108-6.851c0.036-0.080 0.117-0.132 0.206-0.132 0.032 0 0.062 0.007 0.091 0.020l0.584 0.265c0.054 0.025 0.096 0.069 0.117 0.126s0.019 0.117-0.005 0.172l-3.108 6.851c-0.036 0.080-0.117 0.132-0.206 0.132-0.032 0-0.062-0.007-0.091-0.020l-0.584-0.265c-0.054-0.025-0.096-0.069-0.117-0.126s-0.020-0.118 0.005-0.172zM20.121 2.785h4.039c0.154 0 0.279-0.125 0.279-0.279s-0.125-0.279-0.279-0.279h-4.039c-0.154 0-0.279 0.125-0.279 0.279s0.125 0.279 0.279 0.279z"></path>
</svg>
