<svg id="Layer_1" data-name="Layer 1" xmlns="http://www.w3.org/2000/svg" viewBox="0 0 644.78 96.1"><defs><style>.cls-1{fill:#5eb963;}.cls-2{fill:#14a99f;}.cls-3{fill:#00a79d;}</style></defs><title>LOGO</title><path class="cls-1" d="M128,117.86l-18.56,10.41a22.82,22.82,0,0,1-5.36,2.18l-.09,0A23,23,0,0,1,82.21,91.7l.06-.06a22.82,22.82,0,0,1,4.65-3.44l18.56-10.41a9.35,9.35,0,0,0-3.35-17.42h0l-1-.08a48,48,0,1,0,39.47,70.58l0,0c.19-.36.38-.72.55-1.09l0,0A9.35,9.35,0,0,0,128,117.86Z" transform="translate(-50.12 -60.19)"/><rect class="cls-1" x="79.95" y="87.73" width="48" height="34.53" rx="15.06" ry="15.06" transform="translate(-88.21 4.12) rotate(-29.3)"/><path class="cls-2" d="M219.82,108.07H187a22.29,22.29,0,0,0,2.31,10.09,15.44,15.44,0,0,0,14.18,8.8,20.11,20.11,0,0,0,5.51-.71,17.91,17.91,0,0,0,4.83-2.21,36.81,36.81,0,0,0,4.31-3.23q2-1.72,5.11-4.68A5.51,5.51,0,0,1,226.9,115a6.08,6.08,0,0,1,4.18,1.42,5.06,5.06,0,0,1,1.6,4,10.93,10.93,0,0,1-1.78,5.32,21.12,21.12,0,0,1-5.38,5.84,30.65,30.65,0,0,1-9,4.65,39,39,0,0,1-12.52,1.85q-16.18,0-25.16-9.23t-9-25A41.77,41.77,0,0,1,172,90a30.46,30.46,0,0,1,6.46-10.92,28,28,0,0,1,10.46-7,37.55,37.55,0,0,1,13.78-2.43,32.68,32.68,0,0,1,16.89,4.15,27.32,27.32,0,0,1,10.55,10.74A28.23,28.23,0,0,1,233.66,98q0,6.34-3.63,8.21T219.82,108.07ZM187,98.54h30.45q-.62-8.61-4.65-12.89a13.91,13.91,0,0,0-10.61-4.28,13.44,13.44,0,0,0-10.31,4.34Q187.83,90,187,98.54Z" transform="translate(-50.12 -60.19)"/><path class="cls-2" d="M256.55,80.27l13.6,38.14L284.79,78.6a23.66,23.66,0,0,1,3.38-6.8,6.18,6.18,0,0,1,5-2A7.58,7.58,0,0,1,298.66,72a6.71,6.71,0,0,1,2.25,5,10.09,10.09,0,0,1-.4,2.58,24.52,24.52,0,0,1-.92,2.77l-1.2,3-16.12,40q-.68,1.72-1.75,4.37a22.7,22.7,0,0,1-2.4,4.52,9.44,9.44,0,0,1-3.26,2.92,9.8,9.8,0,0,1-4.71,1,9.11,9.11,0,0,1-5.69-1.63,11,11,0,0,1-3.14-3.57q-1-1.94-3.41-7.66l-16-39.56q-.55-1.48-1.14-3a25.66,25.66,0,0,1-1-3,10.74,10.74,0,0,1-.4-2.65,6.43,6.43,0,0,1,1-3.41,8.16,8.16,0,0,1,2.89-2.77,7.8,7.8,0,0,1,4-1.08q4.18,0,5.75,2.4A38.2,38.2,0,0,1,256.55,80.27Z" transform="translate(-50.12 -60.19)"/><path class="cls-2" d="M358.19,108.07H325.33a22.29,22.29,0,0,0,2.31,10.09,15.44,15.44,0,0,0,14.18,8.8,20.11,20.11,0,0,0,5.51-.71,17.91,17.91,0,0,0,4.83-2.21,36.81,36.81,0,0,0,4.31-3.23q2-1.72,5.11-4.68a5.51,5.51,0,0,1,3.69-1.11,6.08,6.08,0,0,1,4.18,1.42,5.06,5.06,0,0,1,1.6,4,10.93,10.93,0,0,1-1.78,5.32,21.12,21.12,0,0,1-5.38,5.84,30.65,30.65,0,0,1-9,4.65,39,39,0,0,1-12.52,1.85q-16.18,0-25.16-9.23t-9-25A41.77,41.77,0,0,1,310.38,90a30.46,30.46,0,0,1,6.46-10.92,28,28,0,0,1,10.46-7,37.55,37.55,0,0,1,13.78-2.43A32.68,32.68,0,0,1,358,73.84a27.32,27.32,0,0,1,10.55,10.74A28.23,28.23,0,0,1,372,98q0,6.34-3.63,8.21T358.19,108.07Zm-32.85-9.54h30.45q-.62-8.61-4.65-12.89a13.91,13.91,0,0,0-10.61-4.28,13.44,13.44,0,0,0-10.31,4.34Q326.19,90,325.33,98.54Z" transform="translate(-50.12 -60.19)"/><path class="cls-2" d="M401.44,79.1v2a29.41,29.41,0,0,1,9.69-8.58,25.81,25.81,0,0,1,12.09-2.74,24.13,24.13,0,0,1,11.87,2.89,18.38,18.38,0,0,1,7.81,8.18,19.48,19.48,0,0,1,2.15,6.64,68.94,68.94,0,0,1,.49,9.11v31.25q0,5-2.31,7.63a7.67,7.67,0,0,1-6,2.58,7.75,7.75,0,0,1-6.09-2.65q-2.34-2.64-2.34-7.57v-28q0-8.31-2.31-12.7t-9.2-4.4a13.62,13.62,0,0,0-8.18,2.68,15.38,15.38,0,0,0-5.41,7.35q-1.23,3.75-1.23,14v21q0,5.11-2.37,7.66A8,8,0,0,1,394,138.1a7.61,7.61,0,0,1-6-2.65q-2.34-2.64-2.34-7.57V79.34q0-4.8,2.09-7.17a7.24,7.24,0,0,1,5.72-2.37,7.77,7.77,0,0,1,4,1A7.5,7.5,0,0,1,400.36,74,11.07,11.07,0,0,1,401.44,79.1Z" transform="translate(-50.12 -60.19)"/><path class="cls-1" d="M525.16,104a39.7,39.7,0,0,1-2.34,13.84,30.56,30.56,0,0,1-6.77,10.89,29.87,29.87,0,0,1-10.58,7,37.43,37.43,0,0,1-13.84,2.43,36.35,36.35,0,0,1-13.72-2.46,30.28,30.28,0,0,1-17.32-17.87A39.59,39.59,0,0,1,458.29,104a40.07,40.07,0,0,1,2.34-14,30.39,30.39,0,0,1,6.71-10.83,29.57,29.57,0,0,1,10.58-6.92,40.05,40.05,0,0,1,27.56,0,29.77,29.77,0,0,1,17.38,17.84A39.85,39.85,0,0,1,525.16,104Zm-16.86,0q0-10.27-4.52-16a14.69,14.69,0,0,0-12.15-5.72A15.05,15.05,0,0,0,483,84.79a16.18,16.18,0,0,0-5.78,7.54,30.68,30.68,0,0,0-2,11.63,30.42,30.42,0,0,0,2,11.5,16.49,16.49,0,0,0,5.72,7.54,14.86,14.86,0,0,0,8.77,2.61,14.65,14.65,0,0,0,12.15-5.75Q508.3,114.1,508.3,104Z" transform="translate(-50.12 -60.19)"/><path class="cls-3" d="M548.85,80.27l11,37.53,10-34.88q1.6-5.47,2.37-7.48A9.73,9.73,0,0,1,575,71.62a8.66,8.66,0,0,1,5.81-1.81,8.76,8.76,0,0,1,5.88,1.81,10.37,10.37,0,0,1,3,3.94q.86,2.12,2.4,7.35l10,34.88,11.07-37.53q1.11-4.06,1.78-5.88a7.82,7.82,0,0,1,2.28-3.2,6.85,6.85,0,0,1,4.61-1.38A7.37,7.37,0,0,1,627,71.9a6.56,6.56,0,0,1,2.21,4.92,25.62,25.62,0,0,1-1.91,7.81l-13.72,40.24q-1.78,5.11-2.77,7.38a11,11,0,0,1-3.11,4.06,10.38,10.38,0,0,1-11.81-.12,11.49,11.49,0,0,1-3.23-4.68q-1-2.77-2.28-7.2l-9.6-32.73-9.29,32.73a40.16,40.16,0,0,1-4,10.31q-2.15,3.48-7.57,3.48a9.57,9.57,0,0,1-4.71-1.08,9.06,9.06,0,0,1-3.23-3.08,23.13,23.13,0,0,1-2.28-4.74q-1-2.74-1.54-4.34l-13.6-40.24q-2-5.66-2-7.81A6.71,6.71,0,0,1,534.76,72a7.19,7.19,0,0,1,5.29-2.15q4.18,0,5.66,2.37A35.11,35.11,0,0,1,548.85,80.27Z" transform="translate(-50.12 -60.19)"/><path class="cls-3" d="M694.9,116.13a19.48,19.48,0,0,1-13.38,19.41,44.82,44.82,0,0,1-16.09,2.55,39.24,39.24,0,0,1-15.5-2.77q-6.46-2.77-9.54-6.92a14,14,0,0,1-3.08-8.34,6.46,6.46,0,0,1,2-4.74,6.76,6.76,0,0,1,5-2,5.82,5.82,0,0,1,4.06,1.29,14.16,14.16,0,0,1,2.71,3.63,18.4,18.4,0,0,0,6.18,6.71q3.6,2.21,9.81,2.21a14.18,14.18,0,0,0,8.28-2.25q3.23-2.24,3.23-5.14a7,7,0,0,0-3.35-6.46q-3.35-2-11-3.88A91.43,91.43,0,0,1,650,105a23.25,23.25,0,0,1-8.71-6.24,14.31,14.31,0,0,1-3.26-9.54,16.82,16.82,0,0,1,3-9.54A20.68,20.68,0,0,1,650,72.48a34,34,0,0,1,14.18-2.68,46.62,46.62,0,0,1,11.72,1.35,29.27,29.27,0,0,1,8.67,3.63,17.94,17.94,0,0,1,5.29,5,9.88,9.88,0,0,1,1.81,5.41A6.25,6.25,0,0,1,689.71,90a7.67,7.67,0,0,1-5.51,1.85,6.74,6.74,0,0,1-4.4-1.48,29,29,0,0,1-4.15-4.43A15.19,15.19,0,0,0,671.16,82a14.15,14.15,0,0,0-7-1.48,13.73,13.73,0,0,0-7.57,1.94q-3,1.94-3,4.83a5.23,5.23,0,0,0,2.21,4.34,18.38,18.38,0,0,0,6,2.8q3.75,1.11,10.34,2.71a55.28,55.28,0,0,1,12.77,4.55,21.24,21.24,0,0,1,7.51,6.24A13.85,13.85,0,0,1,694.9,116.13Z" transform="translate(-50.12 -60.19)"/></svg>