<?xml version="1.0" encoding="utf-8"?>
<!-- Generator: Adobe Illustrator 21.0.0, SVG Export Plug-In . SVG Version: 6.00 Build 0)  -->
<svg version="1.1" id="Layer_1" xmlns="http://www.w3.org/2000/svg" xmlns:xlink="http://www.w3.org/1999/xlink" x="0px" y="0px"
	 viewBox="0 0 4107.1 696.7" style="enable-background:new 0 0 4107.1 696.7;" xml:space="preserve">
<style type="text/css">
	.st0{fill:none;stroke:#231F20;stroke-width:0.75;stroke-miterlimit:10;}
	.st1{fill:none;stroke:#231F20;stroke-width:0.5;stroke-miterlimit:10;}
</style>
<title>Untitled-2</title>
<line class="st0" x1="2900.9" y1="5.6" x2="2921.8" y2="26.6"/>
<line class="st0" x1="2937.5" y1="42.3" x2="2958.4" y2="63.2"/>
<line class="st0" x1="2958.4" y1="5.6" x2="2937.5" y2="26.6"/>
<line class="st0" x1="2921.8" y1="42.3" x2="2900.9" y2="63.2"/>
<circle class="st1" cx="3281.1" cy="450.9" r="9"/>
<circle class="st1" cx="2719.6" cy="611" r="19.9"/>
<line class="st0" x1="0.3" y1="408.3" x2="17.4" y2="425.4"/>
<line class="st0" x1="30.2" y1="438.3" x2="47.3" y2="455.4"/>
<line class="st0" x1="47.3" y1="408.3" x2="30.2" y2="425.4"/>
<line class="st0" x1="17.4" y1="438.3" x2="0.3" y2="455.4"/>
<line class="st0" x1="932.3" y1="634.3" x2="949.4" y2="651.5"/>
<line class="st0" x1="962.3" y1="664.3" x2="979.4" y2="681.4"/>
<line class="st0" x1="979.4" y1="634.3" x2="962.3" y2="651.5"/>
<line class="st0" x1="949.4" y1="664.3" x2="932.3" y2="681.4"/>
<line class="st0" x1="979.5" y1="125.2" x2="985.1" y2="130.8"/>
<line class="st0" x1="1017.6" y1="163.2" x2="1021.6" y2="167.3"/>
<line class="st0" x1="1021.6" y1="125.2" x2="1016.8" y2="130"/>
<line class="st0" x1="985.1" y1="161.7" x2="979.5" y2="167.3"/>
<line class="st0" x1="1000.6" y1="116.4" x2="1000.6" y2="124.4"/>
<line class="st0" x1="1000.6" y1="170.3" x2="1000.6" y2="176"/>
<line class="st0" x1="1030.3" y1="146.2" x2="1023.6" y2="146.2"/>
<line class="st0" x1="978.7" y1="146.2" x2="970.8" y2="146.2"/>
<line class="st0" x1="3579.6" y1="210.3" x2="3585.2" y2="215.9"/>
<line class="st0" x1="3617.7" y1="248.4" x2="3621.7" y2="252.4"/>
<line class="st0" x1="3621.7" y1="210.3" x2="3616.9" y2="215.1"/>
<line class="st0" x1="3585.2" y1="246.8" x2="3579.6" y2="252.4"/>
<line class="st0" x1="3600.6" y1="201.6" x2="3600.6" y2="209.5"/>
<line class="st0" x1="3600.6" y1="255.4" x2="3600.6" y2="261.1"/>
<line class="st0" x1="3630.4" y1="231.3" x2="3623.6" y2="231.3"/>
<line class="st0" x1="3578.8" y1="231.3" x2="3570.9" y2="231.3"/>
<line class="st0" x1="3769.5" y1="634.3" x2="3786.6" y2="651.5"/>
<line class="st0" x1="3799.4" y1="664.3" x2="3816.6" y2="681.4"/>
<line class="st0" x1="3816.6" y1="634.3" x2="3799.4" y2="651.5"/>
<line class="st0" x1="3786.6" y1="664.3" x2="3769.5" y2="681.4"/>
<line class="st0" x1="4030" y1="38.9" x2="4058" y2="38.9"/>
<line class="st0" x1="4079" y1="38.9" x2="4107.1" y2="38.9"/>
<line class="st0" x1="4068.5" y1="0.3" x2="4068.5" y2="28.4"/>
<line class="st0" x1="4068.5" y1="49.4" x2="4068.5" y2="77.4"/>
<line class="st0" x1="353.8" y1="576.2" x2="363" y2="585.4"/>
<line class="st0" x1="416.8" y1="639.2" x2="423.5" y2="645.9"/>
<line class="st0" x1="423.5" y1="576.2" x2="415.6" y2="584.1"/>
<line class="st0" x1="363" y1="636.6" x2="353.8" y2="645.9"/>
<line class="st0" x1="388.6" y1="561.7" x2="388.6" y2="574.8"/>
<line class="st0" x1="388.6" y1="650.9" x2="388.6" y2="660.4"/>
<line class="st0" x1="438" y1="611" x2="426.7" y2="611"/>
<line class="st0" x1="352.4" y1="611" x2="339.3" y2="611"/>
<circle class="st1" cx="516.9" cy="335.3" r="19.9"/>
<line class="st0" x1="315.7" y1="96.2" x2="338.9" y2="96.2"/>
<line class="st0" x1="356.2" y1="96.2" x2="379.3" y2="96.2"/>
<line class="st0" x1="347.5" y1="64.4" x2="347.5" y2="87.5"/>
<line class="st0" x1="347.5" y1="104.9" x2="347.5" y2="128"/>
<line class="st0" x1="1819.4" y1="28.8" x2="1826.1" y2="35.5"/>
<line class="st0" x1="1765.6" y1="26.2" x2="1756.3" y2="35.5"/>
<line class="st0" x1="1791.2" y1="40.4" x2="1791.2" y2="49.9"/>
<line class="st0" x1="1840.5" y1="0.6" x2="1829.3" y2="0.6"/>
<line class="st0" x1="1755" y1="0.6" x2="1741.9" y2="0.6"/>
<line class="st0" x1="1701.2" y1="649.3" x2="1718.3" y2="666.4"/>
<line class="st0" x1="1731.1" y1="679.3" x2="1748.2" y2="696.4"/>
<line class="st0" x1="1748.2" y1="649.3" x2="1731.1" y2="666.4"/>
<line class="st0" x1="1718.3" y1="679.3" x2="1701.2" y2="696.4"/>
</svg>
