<svg id="Layer_1" data-name="Layer 1" xmlns="http://www.w3.org/2000/svg" viewBox="0 0 32 32"><defs><style>.cls-1,.cls-3{fill:#fcfcfc;}.cls-2{fill:#d3d3d3;}.cls-3{opacity:0;}</style></defs><title>problem_solving</title><path class="cls-1" d="M31.36,26.76A2.11,2.11,0,0,1,32,28.29a2.15,2.15,0,0,1-.64,1.54l-1.52,1.53a2.17,2.17,0,0,1-3.08,0L16.44,21a2.16,2.16,0,0,1-.58-1L10.8,25.06v0a5.47,5.47,0,0,1-5,6.88H5.78a1.08,1.08,0,0,1-1-.64A1,1,0,0,1,5,30.17l1.74-1.75-.67-2.5-2.51-.68L1.84,27a1.07,1.07,0,0,1-1.2.22A1.09,1.09,0,0,1,0,26.15a5.47,5.47,0,0,1,6.87-4.93h0l6.78-6.78L3.59,4.32a1.68,1.68,0,0,1-.72.16A1.6,1.6,0,0,1,1.72,4a.27.27,0,0,1-.07-.08L.09,1.58A.52.52,0,0,1,.15.93L.94.15A.51.51,0,0,1,1.59.08L3.94,1.65,4,1.71a1.63,1.63,0,0,1,.3,1.87L14.44,13.7l6.77-6.76s0,0,0,0a5.49,5.49,0,0,1,5-6.89,1.07,1.07,0,0,1,1,.64A1,1,0,0,1,27,1.83L25.25,3.58l.67,2.5,2.51.67L30.17,5A1.07,1.07,0,0,1,32,5.85,5.5,5.5,0,0,1,30.38,9.4a5.57,5.57,0,0,1-5.25,1.38s0,0,0,0L20,15.85a2.17,2.17,0,0,1,1,.58L31.37,26.75Z" transform="translate(0 0)"/><path class="cls-2" d="M29,28.3l-9.6-9.61a.52.52,0,0,0-.73,0,.51.51,0,0,0,0,.74l9.6,9.6a.51.51,0,0,0,.36.15A.51.51,0,0,0,29,29,.52.52,0,0,0,29,28.3Zm0,0-9.6-9.61a.52.52,0,0,0-.73,0,.51.51,0,0,0,0,.74l9.6,9.6a.51.51,0,0,0,.36.15A.51.51,0,0,0,29,29,.52.52,0,0,0,29,28.3Zm2.33-1.55L21,16.43a2.17,2.17,0,0,0-1-.58l5.07-5.07s0,0,0,0A5.57,5.57,0,0,0,30.38,9.4,5.5,5.5,0,0,0,32,5.85,1.07,1.07,0,0,0,30.17,5L28.43,6.75l-2.51-.67-.67-2.5L27,1.83A1,1,0,0,0,27.21.64a1.07,1.07,0,0,0-1-.64,5.49,5.49,0,0,0-5,6.89s0,0,0,0L14.44,13.7,4.32,3.58A1.63,1.63,0,0,0,4,1.71l-.08-.06L1.59.08A.51.51,0,0,0,.94.15L.15.93a.52.52,0,0,0-.06.65L1.65,3.93A.27.27,0,0,0,1.72,4a1.6,1.6,0,0,0,1.15.47,1.68,1.68,0,0,0,.72-.16L13.71,14.44,6.93,21.22h0A5.47,5.47,0,0,0,0,26.15a1.09,1.09,0,0,0,.63,1.06A1.07,1.07,0,0,0,1.84,27l1.74-1.75,2.51.68.67,2.5L5,30.17a1,1,0,0,0-.22,1.19,1.08,1.08,0,0,0,1,.64h.07a5.47,5.47,0,0,0,5-6.88v0L15.86,20a2.16,2.16,0,0,0,.58,1L26.76,31.36a2.17,2.17,0,0,0,3.08,0l1.52-1.53A2.15,2.15,0,0,0,32,28.29a2.11,2.11,0,0,0-.64-1.53ZM3.28,3.27a.57.57,0,0,1-.79,0L1.19,1.36l.18-.18L3.31,2.47A.59.59,0,0,1,3.28,3.27Zm18.66,4.4a1.09,1.09,0,0,0,.27-1,4.45,4.45,0,0,1,4-5.58s0,0,0,0,0,0,0,0l-2,2a.51.51,0,0,0-.13.5L25,6.64a.5.5,0,0,0,.37.36l3.08.83a.51.51,0,0,0,.5-.13l2-2h0a.05.05,0,0,1,0,.05,4.43,4.43,0,0,1-5.58,4,1.1,1.1,0,0,0-1,.28l-5.6,5.6-.42-.41a1.49,1.49,0,0,0-.49-.34l5.64-5.64a.52.52,0,0,0-.73-.73L16,15.26l-.83-.83ZM10.07,24.32a1.11,1.11,0,0,0-.27,1,4.45,4.45,0,0,1-4,5.59.05.05,0,0,1,0,0s0,0,0,0l2-2a.51.51,0,0,0,.13-.5L7,25.36A.5.5,0,0,0,6.65,25l-3.09-.83H3.43a.51.51,0,0,0-.37.15l-1.95,2s0,0,0,0,0,0,0,0a4.44,4.44,0,0,1,1.32-2.88,4.52,4.52,0,0,1,4.26-1.11,1.07,1.07,0,0,0,1-.27l6.78-6.78.83.82L8.54,22.73a.53.53,0,0,0,0,.74.51.51,0,0,0,.36.15.51.51,0,0,0,.37-.15l5.64-5.64a1.6,1.6,0,0,0,.34.49l.42.41ZM16.4,18,16,17.58a.58.58,0,0,1-.17-.41.54.54,0,0,1,.13-.37l.87-.87a.54.54,0,0,1,.37-.13.58.58,0,0,1,.41.17l.42.42,0,0ZM30.63,29.1l-1.52,1.52a1.13,1.13,0,0,1-1.61,0L17.17,20.3a1.14,1.14,0,0,1-.33-.8,1.15,1.15,0,0,1,.31-.79l1.57-1.57a1.17,1.17,0,0,1,.78-.31,1.13,1.13,0,0,1,.81.33L30.63,27.49a1.1,1.1,0,0,1,.34.8A1.13,1.13,0,0,1,30.63,29.1ZM19.44,18.69a.52.52,0,0,0-.73,0,.51.51,0,0,0,0,.74l9.6,9.6a.51.51,0,0,0,.36.15A.51.51,0,0,0,29,29a.52.52,0,0,0,0-.73ZM29,28.3l-9.6-9.61a.52.52,0,0,0-.73,0,.51.51,0,0,0,0,.74l9.6,9.6a.51.51,0,0,0,.36.15A.51.51,0,0,0,29,29,.52.52,0,0,0,29,28.3Zm0,0-9.6-9.61a.52.52,0,0,0-.73,0,.51.51,0,0,0,0,.74l9.6,9.6a.51.51,0,0,0,.36.15A.51.51,0,0,0,29,29,.52.52,0,0,0,29,28.3Z" transform="translate(0 0)"/><rect class="cls-3" width="32" height="32"/></svg>