<svg version="1.1" xmlns="http://www.w3.org/2000/svg" width="32" height="32" viewBox="0 0 32 32">
<defs><style>.cls-1{fill:#FCFCFC;}</style></defs>
<path class="cls-1" d="M16 21.389c-0.755 0-1.37 0.614-1.37 1.37s0.614 1.37 1.37 1.37c0.755 0 1.37-0.614 1.37-1.37s-0.614-1.37-1.37-1.37zM16 23.574c-0.45 0-0.815-0.366-0.815-0.815s0.366-0.815 0.815-0.815c0.45 0 0.815 0.366 0.815 0.815s-0.366 0.815-0.815 0.815zM27.744 5.384h-8.246c-0.702-2.796-1.896-4.924-3.363-5.749-0.084-0.047-0.187-0.047-0.272 0-1.467 0.825-2.661 2.952-3.363 5.749h-8.246c-1.056 0-1.916 0.859-1.916 1.916v16.872c0 1.056 0.859 1.916 1.916 1.916h8.178l-0.927 2.651h-0.089c-0.819 0-1.485 0.666-1.485 1.485v1.098c0 0.153 0.124 0.277 0.277 0.277h11.583c0.153 0 0.277-0.124 0.277-0.277v-1.098c0-0.819-0.666-1.485-1.485-1.485h-0.089l-0.927-2.651h8.178c1.056 0 1.916-0.859 1.916-1.916v-16.872c0-1.056-0.859-1.916-1.916-1.916zM27.744 5.939c0.751 0 1.362 0.611 1.362 1.362v2.047h-4.916c-0.153 0-0.277 0.124-0.277 0.277s0.124 0.277 0.277 0.277h4.916v9.965h-1.203c-0.062-0.615-0.336-1.195-0.774-1.636-0.048-1.015-0.69-1.903-1.639-2.266-0.438-0.844-1.317-1.383-2.273-1.383-0.26 0-0.514 0.039-0.759 0.116-0.43-1.407-1.203-2.693-2.277-3.762-0.021-1.779-0.215-3.477-0.552-4.999h8.115zM11.822 11.741c0.026 1.467 0.168 2.889 0.425 4.233-0.372 0.527-0.635 1.136-0.758 1.794h-1.778c-0.008-0.142-0.011-0.273-0.011-0.4-0-2.098 0.749-4.071 2.122-5.627zM20.178 11.741c1.373 1.556 2.122 3.529 2.122 5.627 0 0.127-0.004 0.258-0.011 0.4h-1.778c-0.123-0.658-0.386-1.266-0.758-1.794 0.257-1.345 0.399-2.766 0.425-4.234zM20.036 18.613c0 0.018-0 0.036-0 0.055h-8.071c-0-0.018-0-0.037-0-0.055 0-2.225 1.81-4.036 4.036-4.036s4.036 1.811 4.036 4.036zM9.175 18.067c0.011 0.145 0.131 0.256 0.276 0.256h1.969c-0.006 0.096-0.010 0.193-0.010 0.29 0 0.107 0.005 0.222 0.015 0.353 0.011 0.144 0.131 0.256 0.276 0.256h8.598c0.145 0 0.265-0.112 0.276-0.256 0.010-0.13 0.015-0.246 0.015-0.353 0-0.098-0.004-0.194-0.010-0.29h1.969c0.145 0 0.265-0.112 0.276-0.256 0.020-0.259 0.029-0.487 0.029-0.698 0-0.729-0.086-1.444-0.251-2.135 0.198-0.064 0.403-0.096 0.614-0.096 0.78 0 1.495 0.458 1.822 1.167 0.032 0.070 0.092 0.123 0.165 0.147 0.821 0.272 1.373 1.036 1.374 1.901 0 0.077 0.033 0.151 0.090 0.204 0.375 0.344 0.613 0.811 0.677 1.311h-22.827c0.064-0.499 0.302-0.966 0.677-1.311 0.057-0.052 0.089-0.126 0.090-0.204 0.001-0.865 0.553-1.629 1.374-1.901 0.073-0.024 0.132-0.077 0.165-0.147 0.327-0.709 1.042-1.167 1.822-1.167 0.256 0 0.505 0.048 0.741 0.143-0.158 0.676-0.24 1.376-0.24 2.089 0 0.211 0.010 0.439 0.029 0.698zM16 0.2c0.984 0.626 1.879 1.99 2.533 3.867 0.717 2.060 1.097 4.545 1.097 7.187 0 1.44-0.114 2.838-0.338 4.163-0.835-0.86-2.001-1.395-3.291-1.395s-2.456 0.536-3.291 1.395c-0.225-1.326-0.338-2.723-0.338-4.163 0-2.642 0.379-5.127 1.097-7.187 0.654-1.877 1.549-3.241 2.533-3.867zM4.256 5.939h8.115c-0.336 1.522-0.531 3.219-0.552 4.999-1.084 1.079-1.862 2.381-2.289 3.804-0.283-0.105-0.58-0.158-0.885-0.158-0.956 0-1.835 0.539-2.273 1.383-0.948 0.364-1.591 1.251-1.639 2.266-0.438 0.44-0.711 1.021-0.774 1.636h-1.065v-11.139h5.841c0.153 0 0.277-0.124 0.277-0.277s-0.124-0.277-0.277-0.277h-5.841v-0.874c0-0.751 0.611-1.362 1.362-1.362zM21.514 30.225v0.821h-11.029v-0.821c0-0.513 0.418-0.931 0.931-0.931h9.167c0.513 0 0.931 0.418 0.931 0.931zM19.907 28.74h-7.814l0.927-2.651h5.959l0.927 2.651zM27.744 25.534h-23.489c-0.751 0-1.362-0.611-1.362-1.362v-1.662h4.157c0.153 0 0.277-0.124 0.277-0.277s-0.124-0.277-0.277-0.277h-4.157v-1.535h26.212v3.751c0 0.751-0.611 1.362-1.362 1.362zM16 6.951c0.866 0 1.57-0.704 1.57-1.57s-0.704-1.57-1.57-1.57c-0.866 0-1.57 0.704-1.57 1.57s0.704 1.57 1.57 1.57zM16 4.365c0.56 0 1.016 0.456 1.016 1.016s-0.456 1.016-1.016 1.016c-0.56 0-1.016-0.456-1.016-1.016s0.456-1.016 1.016-1.016z"></path>
</svg>
