<svg id="Layer_1" data-name="Layer 1" xmlns="http://www.w3.org/2000/svg" viewBox="0 0 32 32"><defs><style>.cls-1,.cls-3{fill:#fcfcfc;}.cls-2{fill:#d3d3d3;}.cls-3{opacity:0;}</style></defs><title>website</title><rect class="cls-1" y="0.6" width="32" height="30" rx="1.47" ry="1.47"/><path class="cls-2" d="M17,16.63h-.5a.47.47,0,0,0,0,.94H17a.47.47,0,0,0,0-.94Zm0-2h-.5a.47.47,0,0,0,0,.94H17a.47.47,0,0,0,0-.94Zm0-2h-.5a.47.47,0,0,0,0,.94H17a.47.47,0,0,0,0-.94Zm11.52,4H19a.47.47,0,1,0,0,.94h9.51a.47.47,0,0,0,0-.94Zm0-2H19a.47.47,0,1,0,0,.94h9.51a.47.47,0,0,0,0-.94Zm0-2H19a.48.48,0,0,0-.47.48.47.47,0,0,0,.47.47h9.51A.47.47,0,0,0,29,13.1.48.48,0,0,0,28.52,12.62Zm0-3h-12a.47.47,0,0,0,0,.94h12a.47.47,0,0,0,0-.94ZM21,7.62H16.5a.47.47,0,0,0-.47.47.48.48,0,0,0,.47.47H21a.47.47,0,0,0,.47-.47A.46.46,0,0,0,21,7.62Zm-14,20H3.47a.47.47,0,1,0,0,.93H7a.47.47,0,1,0,0-.93Zm9,0H12.49a.47.47,0,1,0,0,.93H16a.47.47,0,1,0,0-.93Zm9,0H21.51a.47.47,0,1,0,0,.93H25a.47.47,0,1,0,0-.93Zm3.5-2h-7a.47.47,0,1,0,0,.94h7a.47.47,0,0,0,0-.94Zm-9,0h-7a.47.47,0,0,0,0,.94h7a.47.47,0,0,0,0-.94Zm-9,0h-7a.47.47,0,0,0,0,.94h7a.47.47,0,1,0,0-.94Zm17.53-6H22a1,1,0,0,0-1,1v3a1,1,0,0,0,1,1h6a1,1,0,0,0,1-1v-3A1,1,0,0,0,28,19.64Zm0,4a0,0,0,0,1,0,0H22a0,0,0,0,1,0,0v-3a0,0,0,0,1,0,0h6s0,0,0,0ZM10,19.64H4a1,1,0,0,0-1,1v3a1,1,0,0,0,1,1h6a1,1,0,0,0,1-1v-3A1,1,0,0,0,10,19.64Zm0,4a0,0,0,0,1,0,0H4a0,0,0,0,1,0,0v-3a0,0,0,0,1,0,0h6a0,0,0,0,1,0,0Zm9-4H13a1,1,0,0,0-1,1v3a1,1,0,0,0,1,1h6a1,1,0,0,0,1-1v-3A1,1,0,0,0,19,19.64Zm0,4a0,0,0,0,1,0,0H13a0,0,0,0,1,0,0v-3a0,0,0,0,1,0,0h6a0,0,0,0,1,0,0Zm-10.59-9h3a2,2,0,0,0,2-2V9.09A.47.47,0,0,0,13,8.62H5.26L5,8.17a1,1,0,0,0-.87-.56H3.48a.48.48,0,0,0,0,1h.71v0l2.47,4.84a1.87,1.87,0,0,0,.68.79l-.62.93-.24,0a1.47,1.47,0,1,0,1.4,1.94H10.6a1.47,1.47,0,1,0,0-.94H7.88a1.51,1.51,0,0,0-.33-.54l.69-1Zm-2,2.56A.53.53,0,0,1,6,16.6.53.53,0,0,1,7,16.6.53.53,0,0,1,6.48,17.13ZM12,16.07a.53.53,0,0,1,.53.53.53.53,0,1,1-1.06,0A.53.53,0,0,1,12,16.07ZM7.51,13s0,0,0,0L5.74,9.56h6.78v3a1,1,0,0,1-1,1h-3A1,1,0,0,1,7.51,13ZM5.81,2.74a.46.46,0,0,0-.33-.13.44.44,0,0,0-.33.13A.48.48,0,0,0,5,3.08a.47.47,0,0,0,.14.33.45.45,0,0,0,.33.14A.48.48,0,0,0,6,3.08.48.48,0,0,0,5.81,2.74Zm-1.5,0A.46.46,0,0,0,4,2.61a.47.47,0,0,0-.34.13.51.51,0,0,0-.13.34.51.51,0,0,0,.13.33A.48.48,0,0,0,4,3.55a.48.48,0,0,0,.47-.47A.48.48,0,0,0,4.31,2.74Zm-1.5,0a.47.47,0,0,0-.34-.13.46.46,0,0,0-.33.13A.48.48,0,0,0,2,3.08a.48.48,0,0,0,.47.47.48.48,0,0,0,.34-.14.51.51,0,0,0,.13-.33A.51.51,0,0,0,2.81,2.74ZM28,19.64H22a1,1,0,0,0-1,1v3a1,1,0,0,0,1,1h6a1,1,0,0,0,1-1v-3A1,1,0,0,0,28,19.64Zm0,4a0,0,0,0,1,0,0H22a0,0,0,0,1,0,0v-3a0,0,0,0,1,0,0h6s0,0,0,0ZM16.5,10.56h12a.47.47,0,0,0,0-.94h-12a.47.47,0,0,0,0,.94Zm12,2.06H19a.48.48,0,0,0-.47.48.47.47,0,0,0,.47.47h9.51A.47.47,0,0,0,29,13.1.48.48,0,0,0,28.52,12.62Zm0,2H19a.47.47,0,1,0,0,.94h9.51a.47.47,0,0,0,0-.94Zm0,2H19a.47.47,0,1,0,0,.94h9.51a.47.47,0,0,0,0-.94Zm0,9h-7a.47.47,0,1,0,0,.94h7a.47.47,0,0,0,0-.94Zm-3.5,2H21.51a.47.47,0,1,0,0,.93H25a.47.47,0,1,0,0-.93ZM16.5,8.56H21a.47.47,0,0,0,.47-.47A.46.46,0,0,0,21,7.62H16.5a.47.47,0,0,0-.47.47A.48.48,0,0,0,16.5,8.56ZM19,19.64H13a1,1,0,0,0-1,1v3a1,1,0,0,0,1,1h6a1,1,0,0,0,1-1v-3A1,1,0,0,0,19,19.64Zm0,4a0,0,0,0,1,0,0H13a0,0,0,0,1,0,0v-3a0,0,0,0,1,0,0h6a0,0,0,0,1,0,0Zm.47,2h-7a.47.47,0,0,0,0,.94h7a.47.47,0,0,0,0-.94Zm-3-12.09H17a.47.47,0,0,0,0-.94h-.5a.47.47,0,0,0,0,.94Zm0,2H17a.47.47,0,0,0,0-.94h-.5a.47.47,0,0,0,0,.94Zm0,2H17a.47.47,0,0,0,0-.94h-.5a.47.47,0,0,0,0,.94ZM16,27.66H12.49a.47.47,0,1,0,0,.93H16a.47.47,0,1,0,0-.93ZM13.46,16.6a1.47,1.47,0,0,0-2.86-.47H7.88a1.51,1.51,0,0,0-.33-.54l.69-1h3.25a2,2,0,0,0,2-2V9.09A.47.47,0,0,0,13,8.62H5.26L5,8.17a1,1,0,0,0-.87-.56H3.48a.48.48,0,0,0,0,1h.71v0l2.47,4.84a1.87,1.87,0,0,0,.68.79l-.62.93-.24,0a1.47,1.47,0,1,0,1.4,1.94H10.6a1.47,1.47,0,0,0,2.86-.47Zm-7,.53A.53.53,0,0,1,6,16.6.53.53,0,0,1,7,16.6.53.53,0,0,1,6.48,17.13ZM7.5,13,5.74,9.56h6.78v3a1,1,0,0,1-1,1h-3a1,1,0,0,1-.93-.6S7.5,13,7.5,13ZM12,17.13a.53.53,0,0,1-.53-.53.53.53,0,0,1,1.06,0A.53.53,0,0,1,12,17.13Zm-2,2.51H4a1,1,0,0,0-1,1v3a1,1,0,0,0,1,1h6a1,1,0,0,0,1-1v-3A1,1,0,0,0,10,19.64Zm0,4a0,0,0,0,1,0,0H4a0,0,0,0,1,0,0v-3a0,0,0,0,1,0,0h6a0,0,0,0,1,0,0Zm.47,2h-7a.47.47,0,0,0,0,.94h7a.47.47,0,1,0,0-.94ZM7,27.66H3.47a.47.47,0,1,0,0,.93H7a.47.47,0,1,0,0-.93ZM5.81,2.74a.46.46,0,0,0-.33-.13.44.44,0,0,0-.33.13A.48.48,0,0,0,5,3.08a.47.47,0,0,0,.14.33.45.45,0,0,0,.33.14A.48.48,0,0,0,6,3.08.48.48,0,0,0,5.81,2.74ZM4,2.61a.47.47,0,0,0-.34.13.51.51,0,0,0-.13.34.51.51,0,0,0,.13.33A.48.48,0,0,0,4,3.55a.48.48,0,0,0,.47-.47.48.48,0,0,0-.14-.34A.46.46,0,0,0,4,2.61Zm-1.51,0a.46.46,0,0,0-.33.13A.48.48,0,0,0,2,3.08a.48.48,0,0,0,.47.47.48.48,0,0,0,.34-.14.51.51,0,0,0,.13-.33.51.51,0,0,0-.13-.34A.47.47,0,0,0,2.47,2.61ZM30.53.6H1.47A1.47,1.47,0,0,0,0,2.07V29.13A1.47,1.47,0,0,0,1.47,30.6H30.53A1.47,1.47,0,0,0,32,29.13V2.07A1.47,1.47,0,0,0,30.53.6Zm.53,28.53a.53.53,0,0,1-.53.53H1.47a.53.53,0,0,1-.53-.53V5.55H31.06Zm0-24.52H.94V2.07a.53.53,0,0,1,.53-.53H30.53a.53.53,0,0,1,.53.53Zm-3,15H22a1,1,0,0,0-1,1v3a1,1,0,0,0,1,1h6a1,1,0,0,0,1-1v-3A1,1,0,0,0,28,19.64Zm0,4a0,0,0,0,1,0,0H22a0,0,0,0,1,0,0v-3a0,0,0,0,1,0,0h6s0,0,0,0ZM16.5,10.56h12a.47.47,0,0,0,0-.94h-12a.47.47,0,0,0,0,.94Zm12,2.06H19a.48.48,0,0,0-.47.48.47.47,0,0,0,.47.47h9.51A.47.47,0,0,0,29,13.1.48.48,0,0,0,28.52,12.62Zm0,2H19a.47.47,0,1,0,0,.94h9.51a.47.47,0,0,0,0-.94Zm0,2H19a.47.47,0,1,0,0,.94h9.51a.47.47,0,0,0,0-.94Zm0,9h-7a.47.47,0,1,0,0,.94h7a.47.47,0,0,0,0-.94Zm-3.5,2H21.51a.47.47,0,1,0,0,.93H25a.47.47,0,1,0,0-.93ZM16.5,8.56H21a.47.47,0,0,0,.47-.47A.46.46,0,0,0,21,7.62H16.5a.47.47,0,0,0-.47.47A.48.48,0,0,0,16.5,8.56ZM19,19.64H13a1,1,0,0,0-1,1v3a1,1,0,0,0,1,1h6a1,1,0,0,0,1-1v-3A1,1,0,0,0,19,19.64Zm0,4a0,0,0,0,1,0,0H13a0,0,0,0,1,0,0v-3a0,0,0,0,1,0,0h6a0,0,0,0,1,0,0Zm.47,2h-7a.47.47,0,0,0,0,.94h7a.47.47,0,0,0,0-.94Zm-3-12.09H17a.47.47,0,0,0,0-.94h-.5a.47.47,0,0,0,0,.94Zm0,2H17a.47.47,0,0,0,0-.94h-.5a.47.47,0,0,0,0,.94Zm0,2H17a.47.47,0,0,0,0-.94h-.5a.47.47,0,0,0,0,.94ZM16,27.66H12.49a.47.47,0,1,0,0,.93H16a.47.47,0,1,0,0-.93ZM3.48,8.56h.71v0l2.47,4.84a1.87,1.87,0,0,0,.68.79l-.62.93-.24,0a1.47,1.47,0,1,0,1.4,1.94H10.6a1.47,1.47,0,1,0,0-.94H7.88a1.51,1.51,0,0,0-.33-.54l.69-1h3.25a2,2,0,0,0,2-2V9.09A.47.47,0,0,0,13,8.62H5.26L5,8.17a1,1,0,0,0-.87-.56H3.48a.48.48,0,0,0,0,1Zm3,8.57A.53.53,0,0,1,6,16.6.53.53,0,0,1,7,16.6.53.53,0,0,1,6.48,17.13ZM12,16.07a.53.53,0,0,1,.53.53.53.53,0,1,1-1.06,0A.53.53,0,0,1,12,16.07Zm.53-6.51v3a1,1,0,0,1-1,1h-3a1,1,0,0,1-.93-.6s0,0,0,0L5.74,9.56ZM4,24.59h6a1,1,0,0,0,1-1v-3a1,1,0,0,0-1-1H4a1,1,0,0,0-1,1v3A1,1,0,0,0,4,24.59Zm0-4a0,0,0,0,1,0,0h6a0,0,0,0,1,0,0v3a0,0,0,0,1,0,0H4a0,0,0,0,1,0,0Zm6.54,5h-7a.47.47,0,0,0,0,.94h7a.47.47,0,1,0,0-.94Zm-7,2.94H7a.47.47,0,1,0,0-.93H3.47a.47.47,0,1,0,0,.93Zm2-26a.44.44,0,0,0-.33.13A.48.48,0,0,0,5,3.08a.47.47,0,0,0,.14.33.45.45,0,0,0,.33.14A.48.48,0,0,0,6,3.08a.48.48,0,0,0-.14-.34A.46.46,0,0,0,5.48,2.61ZM4,2.61a.47.47,0,0,0-.34.13.51.51,0,0,0-.13.34.51.51,0,0,0,.13.33A.48.48,0,0,0,4,3.55a.48.48,0,0,0,.47-.47.48.48,0,0,0-.14-.34A.46.46,0,0,0,4,2.61Zm-1.51,0a.46.46,0,0,0-.33.13A.48.48,0,0,0,2,3.08a.48.48,0,0,0,.47.47.48.48,0,0,0,.34-.14.51.51,0,0,0,.13-.33.51.51,0,0,0-.13-.34A.47.47,0,0,0,2.47,2.61Z"/><rect class="cls-3" width="32" height="32"/></svg>