<?xml version="1.0" standalone="no"?>
<!DOCTYPE svg PUBLIC "-//W3C//DTD SVG 1.1//EN" "http://www.w3.org/Graphics/SVG/1.1/DTD/svg11.dtd" >
<svg xmlns="http://www.w3.org/2000/svg">
<metadata>Generated by IcoMoon</metadata>
<defs>
<font id="evenows_icons" horiz-adv-x="1024">
<font-face units-per-em="1024" ascent="877.7142857142858" descent="-146.28571428571428" />
<missing-glyph horiz-adv-x="1024" />
<glyph unicode="&#x20;" horiz-adv-x="256" d="" />
<glyph unicode="&#xe900;" glyph-name="ows_0001" horiz-adv-x="1312" d="M639.424 669.152q-73.152 48.576-160.576 48.576-58.848 0-112.864-23.136t-92.864-62.016-62.016-92.576-23.136-112.576q0-59.424 23.136-113.152t62.016-92.576 92.576-62.016 113.152-23.136q87.424 0 160.576 48.576-74.848 61.152-101.728 151.712t0.288 180.864 101.44 151.424zM658.272 655.424q-72-56.576-98.272-142.56t-0.288-171.712 98.56-142.272q72.576 56.576 98.56 142.272t-0.288 171.712-98.272 142.56zM677.152 669.152q74.272-61.152 101.44-151.712t0.288-181.152-101.728-151.136q73.152-48.576 160.576-48.576 59.424 0 113.152 23.136t92.576 62.016 62.016 92.576 23.136 113.152q0 58.848-23.136 112.576t-62.016 92.576-92.864 62.016-112.864 23.136q-87.424 0-160.576-48.576zM1100.576 256.576h4v1.728h-9.728v-1.728h4v-9.728h1.728v9.728zM1117.152 246.848h2.272v11.424h-2.848l-3.424-7.424-3.424 7.424h-2.848v-11.424h1.728v8.576l3.424-7.424h2.272l2.848 7.424v-8.576zM1112.576-4.576v-1.152h-2.848v1.728h2.848v-0.576zM1112.576-9.728h1.728l-2.272 2.848h1.152l0.576 0.576q0.576 0.576 0.576 1.728t-0.576 1.728l-0.576 0.576h-5.152v-7.424h1.728v2.848h0.576zM391.424 29.152q0 10.848 6.272 17.728t17.152 6.848q10.272 0 16.576-7.136t6.272-17.44q0-10.848-6.272-17.728t-16.576-6.848q-10.848 0-17.152 6.848t-6.272 17.728zM661.728 54.272q17.152 0 20-18.272h-40q2.848 18.272 20 18.272zM865.152 29.152q0 10.848 6.272 17.728t16.576 6.848 16.864-7.136 6.56-17.44q0-10.848-6.272-17.728t-17.152-6.848q-10.272 0-16.576 6.848t-6.272 17.728zM1020.576 29.152q0 10.272 6.56 17.44t16.864 7.136 16.864-7.136 6.56-17.44q0-10.848-6.56-17.728t-16.864-6.848-16.864 7.136-6.56 17.44zM1110.848-12q-1.152 0-2.272 0.576-0.576 0-1.728 1.152t-1.152 1.728q-0.576 1.152-0.576 2.272 0 1.728 0.576 2.272 0 1.152 1.152 2.272l0.576 0.576q1.152 0 1.152 0.576 1.152 0.576 2.272 0.576 1.728 0 2.272-0.576l2.272-1.152 1.152-2.272v-0.576q0.576-1.152 0.576-1.728l-0.576-0.576v-1.728t-0.576-0.576l-0.576-1.152q-1.152-1.152-2.272-1.152-0.576-0.576-2.272-0.576zM342.272-9.728h17.152v48.576q0 13.728-8.288 22.016t-22.56 8.864q-18.272 0-26.848-13.728-8 13.728-25.728 13.728-13.728 0-22.272-11.424v9.152h-17.152v-77.152h17.152v42.848q0 20.576 18.848 20.576 17.152 0 17.152-20.576v-42.848h16.576v42.848q0 20.576 18.848 20.576 17.152 0 17.152-20.576v-42.848zM437.152-9.728h16.576v77.152h-16.576v-9.152q-9.728 11.424-24.576 11.424-16.576 0-27.424-11.424t-10.848-29.152 10.848-29.152 27.424-11.424q16 0 24.576 11.424v-9.728zM538.848 13.728q0 19.424-26.848 22.848l-8 1.152q-13.152 2.272-13.152 8 0 8.576 14.272 8.576 13.152 0 24.576-6.272l6.848 13.728q-12.576 8-31.424 8-14.848 0-23.424-6.848t-8.576-18.272q0-18.848 26.848-22.272l7.424-1.152q13.728-2.272 13.728-8 0-9.728-17.728-9.728-14.272 0-25.728 8l-7.424-13.152q14.272-9.728 33.152-9.728 16.576 0 26.016 6.848t9.44 18.272zM613.152-5.728l-4.576 14.272q-7.424-4-14.848-4-10.848 0-10.848 12.576v34.848h27.424v15.424h-27.424v23.424h-17.152v-23.424h-16v-15.424h16v-34.848q0-28.576 26.848-28.576 12 0 20.576 5.728zM662.272 69.728q-16.576 0-27.424-11.424t-10.848-29.152q0-18.272 11.136-29.44t28.288-11.136q18.848 0 31.424 10.848l-8 12.576q-10.272-8.576-22.272-8.576-19.424 0-23.424 18.848h57.728v6.848q0 18.272-10.272 29.44t-26.272 11.136zM753.152 69.728q-13.152 0-20-11.424v9.152h-17.152v-77.152h17.152v43.424q0 20 16.576 20 5.728 0 10.272-2.272l5.152 16q-5.152 2.272-12 2.272zM770.272 29.152q0-17.728 11.136-29.152t30.016-11.424q16.576 0 27.424 9.152l-8 13.728q-10.272-7.424-20-6.848-10.272 0-16.864 6.848t-6.56 17.728 6.56 17.728 16.864 6.848q10.848 0 20-6.848l8 13.728q-11.424 9.152-27.424 9.152-18.848 0-30.016-11.424t-11.136-29.152zM910.272-9.728h17.152v77.152h-17.152v-9.152q-8.576 11.424-24 11.424-16.576 0-27.712-11.424t-11.136-29.152 11.136-29.152 27.712-11.424q16 0 24 11.424v-9.728zM986.272 69.728q-13.152 0-20-11.424v9.152h-16.576v-77.152h16.576v43.424q0 20 16.576 20 5.728 0 10.272-2.272l5.152 16q-4.576 2.272-12 2.272zM1066.272-9.728h16.576v108.576h-16.576v-40.576q-8.576 11.424-24.576 11.424t-27.136-11.712-11.136-28.864 11.136-28.864 27.136-11.712q16.576 0 24.576 11.424v-9.728zM1110.848 1.728l-1.152-0.576h-1.728q-1.152-0.576-2.272-1.728-1.728-0.576-1.728-2.272-0.576-1.152-0.576-3.424 0-1.728 0.576-2.848 0-1.152 1.728-2.272 1.152-1.152 2.272-1.728t2.848-0.576q2.272 0 3.424 0.576 0 0.576 1.152 1.152l1.152 0.576q0.576 0.576 1.728 2.272 0.576 1.152 0.576 2.848 0 2.272-0.576 3.424-0.576 0.576-1.728 2.272 0 0.576-1.152 1.152l-1.152 0.576q-0.576 0-1.728 0.288t-1.728 0.288zM1316.576 717.728v-731.424q0-29.728-21.728-51.424t-51.424-21.728h-1170.272q-29.728 0-51.424 21.728t-21.728 51.424v731.424q0 29.728 21.728 51.424t51.424 21.728h1170.272q29.728 0 51.424-21.728t21.728-51.424z" />
<glyph unicode="&#xe901;" glyph-name="ows_0002" horiz-adv-x="1312" d="M178.848 420q0-29.152-20.576-48-16.576-14.848-50.848-14.848h-9.728v125.728h9.728q34.848 0 50.848-15.424 20.576-17.728 20.576-47.424zM1193.728 457.152q0-29.728-36.576-29.728h-10.848v57.728h11.424q36 0 36-28zM217.152 420q0 42.272-28.576 68.864t-73.728 26.56h-54.272v-190.272h54.272q42.272 0 68 21.728 34.272 29.152 34.272 73.152zM234.272 325.152h37.152v190.272h-37.152v-190.272zM417.152 382.848q0 22.848-11.712 35.424t-43.136 24q-16.576 5.728-22.56 10.848t-6.016 13.152q0 9.152 7.712 15.136t19.712 6.016q16.576 0 30.272-15.424l19.424 25.152q-23.424 21.152-56 21.152-25.152 0-42.272-15.712t-17.152-38.56q0-20 10.272-31.712t36.576-20.864q21.152-7.424 25.728-10.848 10.848-6.848 10.848-19.424 0-11.424-8-19.136t-20.576-7.712q-27.424 0-40.576 25.152l-24-22.848q25.152-36.576 65.728-36.576 29.152 0 47.424 17.44t18.272 45.44zM576 331.424v44q-21.152-21.152-44.576-21.152-28 0-46.016 18.56t-18.016 47.136q0 27.424 18.016 46.56t44.288 19.136q24.576 0 46.272-21.728v44q-22.848 11.424-45.728 11.424-42.272 0-71.712-28.864t-29.44-70.56 29.152-70.56 71.424-28.864q24 0 46.272 10.848zM1280-13.728v301.152q-37.152-22.848-82.56-48t-135.712-66.848-188.288-78.56-238.56-76.864-288-67.424h896.576q14.848 0 25.728 10.848t10.848 25.728zM793.728 418.848q0 42.848-30.272 73.152t-73.152 30.272-73.152-30.272-30.272-73.152 30.272-73.152 73.152-30.272 73.152 30.272 30.272 73.152zM880.576 320l82.272 195.424h-40.576l-51.424-128-50.848 128h-40.576l81.152-195.424h20zM979.424 325.152h105.152v32h-68v51.424h65.728v32h-65.728v42.272h68v32.576h-105.152v-190.272zM1202.848 325.152h45.728l-60 80q43.424 9.152 43.424 53.728 0 26.848-17.728 41.728t-49.728 14.848h-55.424v-190.272h37.152v76h5.152zM1316.576 714.272v-724.576q0-32-22.016-54.272t-53.44-22.272h-1165.728q-31.424 0-53.44 22.272t-22.016 54.272v724.576q0 32 22.016 54.272t53.44 22.272h1165.728q31.424 0 53.44-22.272t22.016-54.272z" />
<glyph unicode="&#xe902;" glyph-name="ows_0003" horiz-adv-x="1312" d="M912.576 348q0-39.424-12-60.576-10.848-20-29.728-20-13.152 0-23.424 5.152v128q16.576 17.152 32.576 17.152 32.576 0 32.576-69.728zM1162.848 368.576h-62.848q3.424 56 32 56 29.152 0 30.848-56zM272 291.424q0 33.728-18.848 52.288t-57.728 32.864q-20.576 7.424-29.728 13.728t-9.152 14.272q0 14.848 21.728 14.848 33.152 0 70.848-18.848l10.272 64q-38.272 18.272-85.152 18.272-44 0-70.272-21.728-27.424-22.272-27.424-62.272 0-33.152 18.56-51.712t56.864-32.288q22.272-8 31.136-14.56t8.864-15.712q0-17.728-27.424-17.728-16.576 0-40 7.136t-41.152 17.44l-10.272-64.576q41.152-23.424 96-23.424 46.272 0 73.728 21.152 29.152 23.424 29.152 66.848zM440.576 414.272l10.848 63.424h-54.848v77.152l-73.728-12-10.272-65.152-26.272-4.576-9.728-58.848h35.424v-125.152q0-48 25.152-68.576 21.728-17.152 63.424-17.152 18.272 0 45.152 6.272v67.424q-18.272-4-25.152-4-24 0-24 28.576v112.576h44zM621.152 400v79.424q-8.576 1.728-16 1.728-18.272 0-31.712-9.152t-19.136-26.272l-5.728 32h-74.848v-269.152h85.728v174.848q14.848 17.728 46.848 17.728 9.152 0 14.848-1.152zM642.272 208.576h85.728v269.152h-85.728v-269.152zM997.728 350.848q0 69.728-25.728 102.272-22.848 29.728-63.424 29.728-36.576 0-66.848-32l-4.576 26.848h-75.424v-368.576l85.728 14.272v86.272q20.576-6.272 38.848-6.272 47.424 0 76.576 32 34.848 37.152 34.848 115.424zM730.272 549.728q0 18.848-13.152 32t-32 13.152-32-13.152-13.152-32 13.152-32.288 32-13.44 32 13.44 13.152 32.288zM1243.424 345.728q0 64.576-27.424 100.576-28.576 36.576-82.272 36.576-54.848 0-86.56-37.728t-31.712-102.848q0-73.152 36-107.424 31.424-31.424 92-31.424 57.728 0 91.424 22.848l-9.152 58.848q-32.576-17.728-73.152-17.728-24.576 0-36 10.848-13.152 10.848-16 37.728h141.728q1.152 8 1.152 29.728zM1316.576 717.728v-731.424q0-29.728-21.728-51.424t-51.424-21.728h-1170.272q-29.728 0-51.424 21.728t-21.728 51.424v731.424q0 29.728 21.728 51.424t51.424 21.728h1170.272q29.728 0 51.424-21.728t21.728-51.424z" />
<glyph unicode="&#xe903;" glyph-name="ows_0004" d="M542.272 353.728q0-14.848-9.44-25.728t-23.712-10.848q-14.848 0-25.728 9.44t-10.848 23.712q0 14.848 9.728 25.728t24 10.848 25.152-9.44 10.848-23.712zM550.848 320.576l200 332q-5.152-4.576-38.56-35.712t-71.712-66.56-78.016-72.576-66.848-63.136-28.864-29.44l-199.424-331.424q4 4 38.272 35.424t72 66.56 77.728 72.576 66.848 63.424 28.576 28.864zM920.576 352q0-114.848-59.424-212-1.728 1.152-9.728 6.272t-15.136 9.44-9.44 4.288q-7.424 0-7.424-7.424 0-5.728 33.728-25.152-42.272-64-105.44-108.864t-138.016-63.136l-9.152 38.272q-0.576 5.728-8.576 5.728-2.848 0-4.576-3.136t-1.152-5.44l9.152-38.848q-41.152-8.576-83.424-8.576-113.728 0-212.576 60 0.576 1.152 7.424 11.712t12.288 19.136 5.44 10.848q0 7.424-7.424 7.424-3.424 0-9.728-8.288t-12.864-19.712-7.712-13.152q-64.576 42.848-109.728 107.136t-62.848 139.712l39.424 8.576q5.728 1.728 5.728 8.576 0 2.848-3.136 4.576t-6.016 1.152l-38.848-8.576q-8 41.152-8 79.424 0 117.728 62.272 216.576 1.152-0.576 10.56-6.848t17.152-10.848 10.016-4.576q7.424 0 7.424 6.848 0 3.424-7.136 8.864t-18.56 12.288l-11.424 6.848q44 64 108 108t139.424 61.152l8.576-38.272q1.152-5.728 8.576-5.728 2.848 0 4.576 3.136t1.152 6.016l-8.576 37.728q40.576 7.424 76.576 7.424 116.576 0 216.576-62.272-22.272-32-22.272-37.152 0-7.424 6.848-7.424 6.272 0 27.424 36.576 63.424-42.848 107.136-106.272t61.44-137.728l-32-6.848q-5.728-1.152-5.728-9.152 0-2.848 3.136-4.576t5.44-1.152l32.576 7.424q8-41.152 8-80zM969.152 352q0 93.152-36.288 177.728t-97.44 145.728-145.728 97.44-177.728 36.288-177.728-36.288-145.728-97.44-97.44-145.728-36.288-177.728 36.288-177.728 97.44-145.728 145.728-97.44 177.728-36.288 177.728 36.288 145.728 97.44 97.44 145.728 36.288 177.728zM1024 352q0-104-40.576-198.848t-109.152-163.424-163.424-109.152-198.848-40.576-198.848 40.576-163.424 109.152-109.152 163.424-40.576 198.848 40.576 198.848 109.152 163.424 163.424 109.152 198.848 40.576 198.848-40.576 163.424-109.152 109.152-163.424 40.576-198.848z" />
<glyph unicode="&#xe904;" glyph-name="ows_0005" d="M510.272 864q137.152 1.152 257.728-68.576 132.576-76.576 201.152-212.576l-424 22.272q-91.424 5.152-168-42.56t-105.728-131.136l-157.728 242.272q73.152 90.848 177.728 140.288t218.848 50.016zM83.424 632.576l192.576-378.848q41.152-81.728 120.576-124t167.424-25.728l-131.424-257.728q-121.152 18.848-220 90.016t-155.712 180.576-56.864 235.136q0 152.576 83.424 280.576zM989.728 536q33.152-85.728 34.016-177.44t-27.712-174.848-87.424-155.424-140.576-119.712q-131.424-76-284.576-68l231.424 356q50.272 74.848 47.136 166.016t-60.864 158.56zM512 524.576q71.424 0 122.016-50.56t50.56-122.016-50.56-122.016-122.016-50.56-122.016 50.56-50.56 122.016 50.56 122.016 122.016 50.56z" />
<glyph unicode="&#xe905;" glyph-name="ows_0006" d="M516-160q-161.728 0-288.288 86.016t-188.288 227.712q-33.152 74.848-38.272 172t14.848 190.016 63.424 178.272 102.272 138.56l-6.272-160.576q6.272 8 38.848 8.864t40-8.864q24 46.272 91.712 78.848t134.016 33.728q-30.848-25.728-68.288-84.864t-33.44-93.44q14.272-4.576 35.712-7.712t36-4.288 38.848-2.272 28.864-1.728q8.576-2.848 5.44-26.016t-17.44-43.136q-2.848-4-9.44-10.56t-32.288-20.288-57.728-19.424l8.576-108-79.424 38.272q-10.272-24.576-4.288-46.56t20.576-38.016 37.44-23.712 46.272-3.712q29.152 5.152 56 19.712t47.712 25.728 42.016 10.016q34.848-2.272 51.136-18.848t11.136-37.152q-0.576-1.152-1.44-3.136t-4.864-7.136-10.272-8.864-18.016-6.016-26.56-0.576q-34.272-54.272-82.56-77.44t-119.712-16.864q42.272-34.848 92.864-47.136t96.288-3.424 88.288 29.728 73.152 50.016 46.016 59.424q24.576 52 22.272 110.016t-21.44 107.712-44.864 71.424q49.728-21.728 78.272-45.44t44-64.288q8.576 97.152-32.864 196t-119.712 162.272q151.424-44 235.424-159.712t86.272-295.712q1.152-72.576-23.136-145.728t-70.56-136-108-112-141.44-77.44-164.864-28.288z" />
<glyph unicode="&#xe906;" glyph-name="ows_0007" d="M853.152 733.728q-94.272 62.848-205.152 62.848-88.576 0-167.424-41.728t-137.152-114.272q-42.848-53.152-68.288-124.576t-27.712-152v-24q2.272-80.576 27.712-152t68.288-124.576q58.272-72.576 137.152-114.272t167.424-41.728q110.848 0 205.152 62.848-69.152-61.728-156.864-96t-184.288-34.272q-16.576 0-24.576 0.576-100 4.576-190.272 46.848t-155.424 110.272-103.424 160.576-38.272 193.728q0 104 40.576 198.848t109.152 163.424 163.424 109.152 198.848 40.576h1.728q96-0.576 183.136-34.56t156.288-95.712zM1024 352q0-109.728-44-207.136t-121.728-169.44q-59.424-36-126.848-36-78.272 0-145.728 48 88 32 144.864 133.152t56.864 231.424q0 129.728-56.576 230.848t-144.576 133.728q68 47.424 145.152 47.424 68 0 129.152-37.152 77.152-71.424 120.288-168.576t43.136-206.272z" />
<glyph unicode="&#xe907;" glyph-name="ows_0008" d="M1024 328.576q0-32-4-59.424h-657.728q0-83.424 62.56-139.712t147.136-56.288q56.576 0 106.016 26.56t78.016 74.56h241.728q-32-90.848-97.44-160.576t-152.864-107.712-183.424-38.016q-106.848 0-203.424 47.424-130.272-66.272-225.152-66.272-135.424 0-135.424 150.272 0 65.728 25.728 157.152 9.728 34.272 62.272 130.848 113.728 205.728 271.424 346.272-105.152-45.152-244-202.272 36 156.576 162.016 256.864t286.56 100.288q17.152 0 25.728-0.576 145.728 66.848 247.424 66.848 36.576 0 66.272-7.424t54.016-23.136 38.016-43.712 13.728-65.728q0-66.272-42.848-163.424 57.728-104 57.728-222.848zM984 694.272q0 47.424-30.272 75.424t-78.272 28q-61.728 0-145.152-40 69.152-26.848 127.136-75.136t97.44-111.712q29.152 77.152 29.152 123.424zM73.152-12.576q0-49.152 27.712-75.712t76.864-26.56q65.728 0 152 47.424-69.728 41.152-122.016 104.576t-78.56 140q-56-117.152-56-189.728zM361.152 394.848h416q-2.848 81.152-64.576 135.424t-143.424 54.272q-82.272 0-143.712-54.272t-64.288-135.424z" />
<glyph unicode="&#xe908;" glyph-name="ows_0009" d="M39.424 409.728h0.576q9.152 72 33.44 138.016t65.728 124 95.712 100.576 127.712 67.136 158.016 24.576q132 0 236.576-60.288t168-173.44q59.424-106.848 59.424-252.576v-107.424h-642.848q0.576-63.424 30.56-110.016t78.016-70.016 108.288-32.576 121.728-1.728 118.848 26.56 99.136 48.288v-215.424q-52.576-31.424-131.136-52.576t-178.56-21.728-180.576 30.272q-108 41.728-178.016 142.272t-71.136 212.576q-1.728 138.272 63.424 235.424t185.728 153.152q-27.424-34.272-44.576-71.712t-26.272-91.136h362.848q4.576 44-4.576 80t-26.848 58.016-40.288 38.016-46.016 23.424-42.848 11.712-32 4.864l-12.576 0.576q-77.152-2.848-148.288-25.44t-127.712-59.712-100.576-80.288-78.848-93.44z" />
<glyph unicode="&#xe909;" glyph-name="ows_0010" d="M512 736c211.712 0 384-172.288 384-384s-172.288-384-384-384-384 172.288-384 384 172.288 384 384 384zM512 672c-177.12 0-320-142.88-320-320s142.88-320 320-320v640z" />
<glyph unicode="&#xe90a;" glyph-name="ows_0011" horiz-adv-x="1056" d="M992 864h-928c-26.304 0-64-37.696-64-64v-896c0-26.304 37.696-64 64-64h928c26.304 0 64 37.696 64 64v896c0 26.304-37.696 64-64 64zM1024-96c-0.192-9.088-22.912-31.808-32-32h-928c-9.088 0.192-31.808 22.912-32 32v896c0.192 9.088 22.912 31.808 32 32h928c9.088-0.192 31.808-22.912 32-32v-896zM528 688c-35.296 0-64-28.704-64-64s28.704-64 64-64 64 28.704 64 64-28.704 64-64 64zM528 592c-17.632 0-32 14.368-32 32s14.368 32 32 32 32-14.368 32-32-14.368-32-32-32zM784 176c-35.296 0-64-28.704-64-64s28.704-64 64-64 64 28.704 64 64-28.704 64-64 64zM784 80c-17.632 0-32 14.368-32 32s14.368 32 32 32 32-14.368 32-32-14.368-32-32-32zM272 336c-35.296 0-64-28.704-64-64s28.704-64 64-64 64 28.704 64 64-28.704 64-64 64zM272 240c-17.632 0-32 14.368-32 32s14.368 32 32 32 32-14.368 32-32-14.368-32-32-32zM272 384c8.832 0 16 7.168 16 16v288c0 8.832-7.168 16-16 16s-16-7.168-16-16v-288c0-8.832 7.168-16 16-16zM272 160c-8.832 0-16-7.168-16-16v-96c0-8.832 7.168-16 16-16s16 7.168 16 16v96c0 8.832-7.168 16-16 16zM528 512c-8.832 0-16-7.168-16-16v-448c0-8.832 7.168-16 16-16s16 7.168 16 16v448c0 8.832-7.168 16-16 16zM784 224c8.832 0 16 7.168 16 16v448c0 8.832-7.168 16-16 16s-16-7.168-16-16v-448c0-8.832 7.168-16 16-16z" />
<glyph unicode="&#xe90b;" glyph-name="ows_0012" d="M736 499.2l-64-6.848v167.52l64-6.848v-153.792zM768 502.624v146.944l64-6.848v-133.248l-64-6.848zM640 488.896l-96-10.272v194.912l96-10.272v-174.368zM512 475.2l-96-10.272v222.336l96-10.272v-201.76zM384 461.472l-96-10.272v249.728l96-10.272v-229.184zM208 736c-8.832 0-16-6.912-16-15.968v-768.032c0-8.832 7.424-15.968 16-15.968 8.832 0 16 6.912 16 15.968v768.032c0 8.832-7.424 15.968-16 15.968v0zM256 736v-320l608 64v192l-608 64z" />
<glyph unicode="&#xe90c;" glyph-name="ows_0013" d="M512 475.2v201.76l128-13.696v-174.368l-128-13.728zM416 464.896l-128-13.728v249.728l128-13.696v-222.336zM736 499.2v153.792l96-10.272v-133.248l-96-10.272zM208 736c-8.832 0-16-6.912-16-15.968v-768.032c0-8.832 7.424-15.968 16-15.968 8.832 0 16 6.912 16 15.968v768.032c0 8.832-7.424 15.968-16 15.968v0zM256 736v-320l608 64v192l-608 64z" />
<glyph unicode="&#xe90d;" glyph-name="ows_0014" d="M860.16 103.648c-58.592 44-92.16 111.2-92.16 184.352v153.6c0 128.672-86.72 237.44-204.8 270.944v36.256c0 42.336-34.464 76.8-76.8 76.8s-76.8-34.464-76.8-76.8v-36.256c-118.080-33.504-204.8-142.304-204.8-270.944v-153.6c0-73.152-33.6-140.352-92.16-184.352-8.8-6.624-12.384-18.112-8.896-28.576s13.28-17.504 24.288-17.504h232.992c-1.696-8.384-2.592-16.96-2.592-25.568 0-70.592 57.408-128 128-128s128 57.408 128 128c0 8.64-0.864 17.184-2.592 25.568h232.992c11.008 0 20.8 7.040 24.288 17.504s-0.096 21.952-8.896 28.576zM460.8 748.8c0 14.112 11.488 25.6 25.6 25.6s25.6-11.488 25.6-25.6v-26.784c-8.448 0.768-16.96 1.184-25.6 1.184s-17.152-0.416-25.6-1.184v26.784zM563.2 32c0-42.336-34.464-76.8-76.8-76.8s-76.8 34.464-76.8 76.8c0 8.768 1.504 17.408 4.384 25.568h144.8c2.88-8.16 4.384-16.832 4.384-25.568zM191.584 108.768c13.088 15.84 24.448 33.056 33.728 51.264 20.352 39.872 30.688 82.912 30.688 127.936v153.6c0 127.040 103.36 230.4 230.4 230.4s230.4-103.36 230.4-230.4v-153.6c0-45.056 10.336-88.096 30.688-127.936 9.312-18.208 20.672-35.456 33.76-51.264h-589.664z" />
<glyph unicode="&#xe90e;" glyph-name="ows_0015" d="M1024 96v-73.152q0-14.848-10.848-25.728t-25.728-10.848h-950.848q-14.848 0-25.728 10.848t-10.848 25.728v73.152q0 14.848 10.848 25.728t25.728 10.848h950.848q14.848 0 25.728-10.848t10.848-25.728zM804.576 315.424v-73.152q0-14.848-10.848-25.728t-25.728-10.848h-512q-14.848 0-25.728 10.848t-10.848 25.728v73.152q0 14.848 10.848 25.728t25.728 10.848h512q14.848 0 25.728-10.848t10.848-25.728zM950.848 534.848v-73.152q0-14.848-10.848-25.728t-25.728-10.848h-804.576q-14.848 0-25.728 10.848t-10.848 25.728v73.152q0 14.848 10.848 25.728t25.728 10.848h804.576q14.848 0 25.728-10.848t10.848-25.728zM731.424 754.272v-73.152q0-14.848-10.848-25.728t-25.728-10.848h-365.728q-14.848 0-25.728 10.848t-10.848 25.728v73.152q0 14.848 10.848 25.728t25.728 10.848h365.728q14.848 0 25.728-10.848t10.848-25.728z" />
<glyph unicode="&#xe90f;" glyph-name="ows_0016" d="M1024 96v-73.152q0-14.848-10.848-25.728t-25.728-10.848h-950.848q-14.848 0-25.728 10.848t-10.848 25.728v73.152q0 14.848 10.848 25.728t25.728 10.848h950.848q14.848 0 25.728-10.848t10.848-25.728zM1024 315.424v-73.152q0-14.848-10.848-25.728t-25.728-10.848h-950.848q-14.848 0-25.728 10.848t-10.848 25.728v73.152q0 14.848 10.848 25.728t25.728 10.848h950.848q14.848 0 25.728-10.848t10.848-25.728zM1024 534.848v-73.152q0-14.848-10.848-25.728t-25.728-10.848h-950.848q-14.848 0-25.728 10.848t-10.848 25.728v73.152q0 14.848 10.848 25.728t25.728 10.848h950.848q14.848 0 25.728-10.848t10.848-25.728zM1024 754.272v-73.152q0-14.848-10.848-25.728t-25.728-10.848h-950.848q-14.848 0-25.728 10.848t-10.848 25.728v73.152q0 14.848 10.848 25.728t25.728 10.848h950.848q14.848 0 25.728-10.848t10.848-25.728z" />
<glyph unicode="&#xe910;" glyph-name="ows_0017" d="M1024 96v-73.152q0-14.848-10.848-25.728t-25.728-10.848h-950.848q-14.848 0-25.728 10.848t-10.848 25.728v73.152q0 14.848 10.848 25.728t25.728 10.848h950.848q14.848 0 25.728-10.848t10.848-25.728zM804.576 315.424v-73.152q0-14.848-10.848-25.728t-25.728-10.848h-731.424q-14.848 0-25.728 10.848t-10.848 25.728v73.152q0 14.848 10.848 25.728t25.728 10.848h731.424q14.848 0 25.728-10.848t10.848-25.728zM950.848 534.848v-73.152q0-14.848-10.848-25.728t-25.728-10.848h-877.728q-14.848 0-25.728 10.848t-10.848 25.728v73.152q0 14.848 10.848 25.728t25.728 10.848h877.728q14.848 0 25.728-10.848t10.848-25.728zM731.424 754.272v-73.152q0-14.848-10.848-25.728t-25.728-10.848h-658.272q-14.848 0-25.728 10.848t-10.848 25.728v73.152q0 14.848 10.848 25.728t25.728 10.848h658.272q14.848 0 25.728-10.848t10.848-25.728z" />
<glyph unicode="&#xe911;" glyph-name="ows_0018" d="M1024 96v-73.152q0-14.848-10.848-25.728t-25.728-10.848h-950.848q-14.848 0-25.728 10.848t-10.848 25.728v73.152q0 14.848 10.848 25.728t25.728 10.848h950.848q14.848 0 25.728-10.848t10.848-25.728zM1024 315.424v-73.152q0-14.848-10.848-25.728t-25.728-10.848h-731.424q-14.848 0-25.728 10.848t-10.848 25.728v73.152q0 14.848 10.848 25.728t25.728 10.848h731.424q14.848 0 25.728-10.848t10.848-25.728zM1024 534.848v-73.152q0-14.848-10.848-25.728t-25.728-10.848h-877.728q-14.848 0-25.728 10.848t-10.848 25.728v73.152q0 14.848 10.848 25.728t25.728 10.848h877.728q14.848 0 25.728-10.848t10.848-25.728zM1024 754.272v-73.152q0-14.848-10.848-25.728t-25.728-10.848h-658.272q-14.848 0-25.728 10.848t-10.848 25.728v73.152q0 14.848 10.848 25.728t25.728 10.848h658.272q14.848 0 25.728-10.848t10.848-25.728z" />
<glyph unicode="&#xe912;" glyph-name="ows_0019" d="M646.016 864c53.856 0 124.512-14.24 167.008-55.008 53.856-50.304 48.992-117.92 48.992-191.008v-172c0-51.872 20.736-75.040 40.992-103.008 7.072-10.080 8.992-21.632 0-28.992-22.592-18.976-62.88-54.336-84.992-74.016v0.992c-7.328-6.56-17.76-7.424-26.016-3.008-36.768 30.592-43.904 44.928-64 74.016-60.768-61.92-103.264-80.992-182.016-80.992-93.216 0-166.016 57.984-166.016 172.992 0 89.888 48.608 151.008 118.016 180.992 60.064 26.368 143.808 30.816 208 38.016v15.008c0 26.368 2.56 57.248-12.992 80-13.472 20.384-39.232 28.992-62.016 28.992-42.208 0-79.776-22.144-88.992-67.008-1.92-9.984-9.952-19.488-20-20l-107.008 11.008c-9.056 2.048-18.624 9.184-16 23.008 24.64 130.176 141.664 170.016 247.008 170.016zM676 533.984c-69.856-4.576-134.016-28.512-134.016-111.008 0-47.904 24.544-80 67.008-80 31.072 0 59.392 18.816 76.992 50.016 21.728 38.368 20 73.856 20 116.992v24c-10.016 0-20.032 0.64-30.016 0zM982.016 276c28.032 0.384 51.232-5.088 56-11.008 9.632-11.936-2.976-93.632-50.016-132.992-7.232-6.048-14.208-2.976-11.008 4.992 10.56 26.464 34.24 85.632 23.008 100s-73.76 6.4-102.016 3.008c-8.576-1.024-9.728 6.56-2.016 12 25.12 17.632 57.952 23.616 86.016 24zM244.992 260.992c1.952 0.256 4.512-0.576 7.008-2.016 112.832-65.664 251.872-104.992 396-104.992 97.216 0 204.672 20.256 303.008 62.016 14.848 6.304 27.488-10.272 12.992-20.992-87.712-64.736-215.488-99.008-324.992-99.008-153.472 0-291.392 56.576-396 151.008-6.176 5.568-3.84 13.216 2.016 14.016z" />
<glyph unicode="&#xe913;" glyph-name="ows_0020" d="M528-64v0c-220.928 0-400 179.072-400 400s179.072 400 400 400c220.928 0 400-179.072 400-400s-179.072-400-400-400zM528-32c203.232 0 368 164.768 368 368s-164.768 368-368 368c-203.232 0-368-164.768-368-368s164.768-368 368-368v0zM339.904 513.056l-17.888-26.528 106.112-71.584 17.888 26.528-106.112 71.584zM609.984 441.472l17.888-26.528 106.112 71.584-17.888 26.528-106.112-71.584zM527.904 192c-95.904 0-143.904 32-143.904 32s32-96 144-96c112 0 144 96 144 96s-48.192-32-144.096-32v0z" />
<glyph unicode="&#xe914;" glyph-name="ows_0021" d="M528-64v0c-220.928 0-400 179.072-400 400s179.072 400 400 400c220.928 0 400-179.072 400-400s-179.072-400-400-400zM528-32c203.232 0 368 164.768 368 368s-164.768 368-368 368c-203.232 0-368-164.768-368-368s164.768-368 368-368v0zM627.904 513.056l-17.888-26.528 106.112-71.584 17.888 26.528-106.112 71.584zM321.984 441.472l17.888-26.528 106.112 71.584-17.888 26.528-106.112-71.584zM527.904 192c-95.904 0-143.904 32-143.904 32s32-96 144-96c112 0 144 96 144 96s-48.192-32-144.096-32v0z" />
<glyph unicode="&#xe915;" glyph-name="ows_0022" d="M528-64c-220.928 0-400 179.072-400 400s179.072 400 400 400c220.928 0 400-179.072 400-400s-179.072-400-400-400zM339.904 513.056l-17.888-26.528 106.112-71.584 17.888 26.528-106.112 71.584zM609.984 441.472l17.888-26.528 106.112 71.584-17.888 26.528-106.112-71.584zM527.904 192c-95.904 0-143.904 32-143.904 32s32-96 144-96c112 0 144 96 144 96s-48.192-32-144.096-32z" />
<glyph unicode="&#xe916;" glyph-name="ows_0023" d="M528-64c-220.928 0-400 179.072-400 400s179.072 400 400 400c220.928 0 400-179.072 400-400s-179.072-400-400-400zM627.904 513.056l-17.888-26.528 106.112-71.584 17.888 26.528-106.112 71.584zM321.984 441.472l17.888-26.528 106.112 71.584-17.888 26.528-106.112-71.584zM527.904 192c-95.904 0-143.904 32-143.904 32s32-96 144-96c112 0 144 96 144 96s-48.192-32-144.096-32z" />
<glyph unicode="&#xe917;" glyph-name="ows_0024" d="M528-64v0c-220.928 0-400 179.072-400 400s179.072 400 400 400c220.928 0 400-179.072 400-400s-179.072-400-400-400zM528-32c203.232 0 368 164.768 368 368s-164.768 368-368 368c-203.232 0-368-164.768-368-368s164.768-368 368-368v0zM320 448v-32h128v32h-128zM608 448v-32h128v32h-128zM527.904 192c-95.904 0-143.904 32-143.904 32s32-96 144-96c112 0 144 96 144 96s-48.192-32-144.096-32v0z" />
<glyph unicode="&#xe918;" glyph-name="ows_0025" d="M528-64c-220.928 0-400 179.072-400 400s179.072 400 400 400c220.928 0 400-179.072 400-400s-179.072-400-400-400zM320 448v-32h128v32h-128zM608 448v-32h128v32h-128zM527.904 192c-95.904 0-143.904 32-143.904 32s32-96 144-96c112 0 144 96 144 96s-48.192-32-144.096-32z" />
<glyph unicode="&#xe919;" glyph-name="ows_0026" d="M528-64v0c-220.928 0-400 179.072-400 400s179.072 400 400 400c220.928 0 400-179.072 400-400s-179.072-400-400-400zM528-32c203.232 0 368 164.768 368 368s-164.768 368-368 368c-203.232 0-368-164.768-368-368s164.768-368 368-368v0zM527.904 160c-95.904 0-143.904-32-143.904-32s32 96 144 96c112 0 144-96 144-96s-48.192 32-144.096 32v0zM371.904 545.056l-17.888-26.528 106.112-71.584 17.888 26.528-106.112 71.584zM577.984 473.472l17.888-26.528 106.112 71.584-17.888 26.528-106.112-71.584zM384 384c17.664 0 32 14.336 32 32s-14.336 32-32 32c-17.664 0-32-14.336-32-32s14.336-32 32-32v0zM672 384c17.664 0 32 14.336 32 32s-14.336 32-32 32c-17.664 0-32-14.336-32-32s14.336-32 32-32v0z" />
<glyph unicode="&#xe91a;" glyph-name="ows_0027" d="M528-64c-220.928 0-400 179.072-400 400s179.072 400 400 400c220.928 0 400-179.072 400-400s-179.072-400-400-400zM527.904 160c95.904 0 144.096-32 144.096-32s-32 96-144 96c-112 0-144-96-144-96s48 32 143.904 32zM371.904 545.056l-17.888-26.528 106.112-71.584 17.888 26.528-106.112 71.584zM577.984 473.472l17.888-26.528 106.112 71.584-17.888 26.528-106.112-71.584zM384 384c17.664 0 32 14.336 32 32s-14.336 32-32 32c-17.664 0-32-14.336-32-32s14.336-32 32-32zM672 384c17.664 0 32 14.336 32 32s-14.336 32-32 32c-17.664 0-32-14.336-32-32s14.336-32 32-32z" />
<glyph unicode="&#xe91b;" glyph-name="ows_0028" d="M528-64v0c-220.928 0-400 179.072-400 400s179.072 400 400 400c220.928 0 400-179.072 400-400s-179.072-400-400-400zM528-32c203.232 0 368 164.768 368 368s-164.768 368-368 368c-203.232 0-368-164.768-368-368s164.768-368 368-368v0zM384 384c17.664 0 32 14.336 32 32s-14.336 32-32 32c-17.664 0-32-14.336-32-32s14.336-32 32-32v0zM672 384c17.664 0 32 14.336 32 32s-14.336 32-32 32c-17.664 0-32-14.336-32-32s14.336-32 32-32v0zM528 96v0c-44.192 0-80 35.808-80 80s35.808 80 80 80c44.192 0 80-35.808 80-80s-35.808-80-80-80zM528 128c26.496 0 48 21.504 48 48s-21.504 48-48 48c-26.496 0-48-21.504-48-48s21.504-48 48-48v0zM684.096 545.056l17.888-26.528-106.112-71.584-17.888 26.528 106.112 71.584zM478.016 473.472l-17.888-26.528-106.112 71.584 17.888 26.528 106.112-71.584z" />
<glyph unicode="&#xe91c;" glyph-name="ows_0029" d="M528-64c-220.928 0-400 179.072-400 400s179.072 400 400 400c220.928 0 400-179.072 400-400s-179.072-400-400-400zM384 384c17.664 0 32 14.336 32 32s-14.336 32-32 32c-17.664 0-32-14.336-32-32s14.336-32 32-32zM672 384c17.664 0 32 14.336 32 32s-14.336 32-32 32c-17.664 0-32-14.336-32-32s14.336-32 32-32zM528 96c44.192 0 80 35.808 80 80s-35.808 80-80 80c-44.192 0-80-35.808-80-80s35.808-80 80-80zM684.096 545.056l-106.112-71.584 17.888-26.528 106.112 71.584-17.888 26.528zM478.016 473.472l-106.112 71.584-17.888-26.528 106.112-71.584 17.888 26.528z" />
<glyph unicode="&#xe91d;" glyph-name="ows_0030" d="M608 224v-32h-64v32h64zM640 224h15.808c21.056 0 38.88-13.344 45.472-32h-61.28v32zM608 128h-64v32h64v-32zM640 128v32h61.28c-6.592-18.72-24.48-32-45.504-32h-15.808zM512 224v-32h-64v32h64zM512 128h-64v32h64v-32zM416 224v-32h-61.28c6.592 18.72 24.48 32 45.504 32h15.808zM416 128h-15.808c-21.056 0-38.88 13.344-45.472 32v0h61.28v-32zM528-64v0c-220.928 0-400 179.072-400 400s179.072 400 400 400c220.928 0 400-179.072 400-400s-179.072-400-400-400zM528-32c203.232 0 368 164.768 368 368s-164.768 368-368 368c-203.232 0-368-164.768-368-368s164.768-368 368-368v0zM384 384c17.664 0 32 14.336 32 32s-14.336 32-32 32c-17.664 0-32-14.336-32-32s14.336-32 32-32v0zM672 384c17.664 0 32 14.336 32 32s-14.336 32-32 32c-17.664 0-32-14.336-32-32s14.336-32 32-32v0zM400.224 256c-44.288 0-80.224-35.52-80.224-80 0-44.192 35.84-80 80.224-80h255.584c44.288 0 80.224 35.52 80.224 80 0 44.192-35.84 80-80.224 80h-255.584zM684.096 545.056l17.888-26.528-106.112-71.584-17.888 26.528 106.112 71.584zM478.016 473.472l-17.888-26.528-106.112 71.584 17.888 26.528 106.112-71.584z" />
<glyph unicode="&#xe91e;" glyph-name="ows_0031" d="M608 224v-32h-64v32h64zM640 224h15.808c21.056 0 38.88-13.344 45.472-32h-61.28v32zM608 128h-64v32h64v-32zM640 128v32h61.28c-6.592-18.72-24.48-32-45.504-32h-15.808zM512 224v-32h-64v32h64zM512 128h-64v32h64v-32zM416 224v-32h-61.28c6.592 18.72 24.48 32 45.504 32h15.808zM416 128h-15.808c-21.056 0-38.88 13.344-45.472 32v0h61.28v-32zM528-64c220.928 0 400 179.072 400 400s-179.072 400-400 400c-220.928 0-400-179.072-400-400s179.072-400 400-400zM384 384c-17.664 0-32 14.336-32 32s14.336 32 32 32c17.664 0 32-14.336 32-32s-14.336-32-32-32zM672 384c-17.664 0-32 14.336-32 32s14.336 32 32 32c17.664 0 32-14.336 32-32s-14.336-32-32-32zM684.096 545.056l17.888-26.528-106.112-71.584-17.888 26.528 106.112 71.584zM478.016 473.472l-17.888-26.528-106.112 71.584 17.888 26.528 106.112-71.584z" />
<glyph unicode="&#xe91f;" glyph-name="ows_0032" d="M528-64v0c-220.928 0-400 179.072-400 400s179.072 400 400 400c220.928 0 400-179.072 400-400s-179.072-400-400-400zM528-32c203.232 0 368 164.768 368 368s-164.768 368-368 368c-203.232 0-368-164.768-368-368s164.768-368 368-368v0zM384 192v-32h288v32h-288zM371.904 545.056l-17.888-26.528 106.112-71.584 17.888 26.528-106.112 71.584zM577.984 473.472l17.888-26.528 106.112 71.584-17.888 26.528-106.112-71.584zM384 384c17.664 0 32 14.336 32 32s-14.336 32-32 32c-17.664 0-32-14.336-32-32s14.336-32 32-32v0zM672 384c17.664 0 32 14.336 32 32s-14.336 32-32 32c-17.664 0-32-14.336-32-32s14.336-32 32-32v0z" />
<glyph unicode="&#xe920;" glyph-name="ows_0033" d="M528-64c-220.928 0-400 179.072-400 400s179.072 400 400 400c220.928 0 400-179.072 400-400s-179.072-400-400-400zM384 192v-32h288v32h-288zM371.904 545.056l-17.888-26.528 106.112-71.584 17.888 26.528-106.112 71.584zM577.984 473.472l17.888-26.528 106.112 71.584-17.888 26.528-106.112-71.584zM384 384c17.664 0 32 14.336 32 32s-14.336 32-32 32c-17.664 0-32-14.336-32-32s14.336-32 32-32zM672 384c17.664 0 32 14.336 32 32s-14.336 32-32 32c-17.664 0-32-14.336-32-32s14.336-32 32-32z" />
<glyph unicode="&#xe921;" glyph-name="ows_0034" d="M716.8 569.6h51.2v-51.2h-51.2v51.2zM716.8 467.2h51.2v-51.2h-51.2v51.2zM716.8 364.8h51.2v-51.2h-51.2v51.2zM716.8 262.4h51.2v-51.2h-51.2v51.2zM716.8 57.6h51.2v-51.2h-51.2v51.2zM716.8 160h51.2v-51.2h-51.2v51.2zM307.2 569.6h51.2v-51.2h-51.2v51.2zM307.2 467.2h51.2v-51.2h-51.2v51.2zM307.2 364.8h51.2v-51.2h-51.2v51.2zM307.2 262.4h51.2v-51.2h-51.2v51.2zM307.2 57.6h51.2v-51.2h-51.2v51.2zM307.2 160h51.2v-51.2h-51.2v51.2zM204.8 569.6h51.2v-51.2h-51.2v51.2zM204.8 467.2h51.2v-51.2h-51.2v51.2zM204.8 364.8h51.2v-51.2h-51.2v51.2zM204.8 262.4h51.2v-51.2h-51.2v51.2zM204.8 57.6h51.2v-51.2h-51.2v51.2zM204.8 160h51.2v-51.2h-51.2v51.2zM409.6 569.6h51.2v-51.2h-51.2v51.2zM409.6 467.2h51.2v-51.2h-51.2v51.2zM409.6 364.8h51.2v-51.2h-51.2v51.2zM409.6 262.4h51.2v-51.2h-51.2v51.2zM409.6 57.6h51.2v-51.2h-51.2v51.2zM409.6 160h51.2v-51.2h-51.2v51.2zM947.2-96h-25.6v691.2c0 39.072-29.024 79.328-66.080 91.68l-241.12 80.384v83.936c0 8.096-3.84 15.712-10.304 20.544s-14.88 6.304-22.624 3.968l-462.944-138.88c-37.728-11.328-67.296-51.040-67.296-90.432v-742.4h-25.6c-14.144 0-25.6-11.456-25.6-25.6s11.456-25.6 25.6-25.6h921.6c14.144 0 25.6 11.456 25.6 25.6s-11.456 25.6-25.6 25.6zM839.328 638.304c16.256-5.408 31.072-25.952 31.072-43.104v-691.2h-256v809.28l224.928-74.976zM102.4 646.4c0 16.832 14.688 36.544 30.784 41.376l430.016 128.992v-912.8h-460.8v742.4z" />
<glyph unicode="&#xe922;" glyph-name="ows_0035" d="M830.336-4.736c91.872 91.872 142.464 214.016 142.464 343.936s-50.592 252.064-142.464 343.936-214.016 142.464-343.936 142.464-252.064-50.592-343.936-142.464-142.464-214.016-142.464-343.936 50.592-252.064 142.464-343.936 214.016-142.464 343.936-142.464 252.064 50.592 343.936 142.464zM51.2 339.2c0 239.968 195.232 435.2 435.2 435.2s435.2-195.232 435.2-435.2c0-239.968-195.232-435.2-435.2-435.2s-435.2 195.232-435.2 435.2zM504.512 39.488l204.8 204.8c9.984 9.984 9.984 26.208 0 36.192s-26.208 9.984-36.192 0l-161.088-161.088v527.008c0 14.144-11.456 25.6-25.6 25.6s-25.6-11.456-25.6-25.6v-527.008l-161.088 161.088c-9.984 9.984-26.208 9.984-36.192 0-4.992-4.992-7.488-11.552-7.488-18.112s2.496-13.088 7.488-18.112l204.8-204.8c9.984-10.016 26.208-10.016 36.192 0z" />
<glyph unicode="&#xe923;" glyph-name="ows_0036" d="M142.464 683.136c91.872 91.872 214.016 142.464 343.936 142.464s252.064-50.592 343.936-142.464 142.464-214.016 142.464-343.936-50.592-252.064-142.464-343.936-214.016-142.464-343.936-142.464-252.064 50.592-343.936 142.464-142.464 214.016-142.464 343.936 50.592 252.064 142.464 343.936zM486.4-96c239.968 0 435.2 195.232 435.2 435.2s-195.232 435.2-435.2 435.2c-239.968 0-435.2-195.232-435.2-435.2s195.232-435.2 435.2-435.2zM186.688 357.312l204.8 204.8c9.984 9.984 26.208 9.984 36.192 0s9.984-26.208 0-36.192l-161.088-161.088h527.008c14.144 0 25.6-11.456 25.6-25.6s-11.456-25.6-25.6-25.6h-527.008l161.088-161.088c9.984-9.984 9.984-26.208 0-36.192-4.992-4.992-11.552-7.488-18.112-7.488s-13.088 2.496-18.112 7.488l-204.8 204.8c-10.016 9.984-10.016 26.208 0 36.192z" />
<glyph unicode="&#xe924;" glyph-name="ows_0037" d="M830.336 683.136c-91.872 91.872-214.016 142.464-343.936 142.464s-252.064-50.592-343.936-142.464-142.464-214.016-142.464-343.936 50.592-252.064 142.464-343.936 214.016-142.464 343.936-142.464 252.064 50.592 343.936 142.464 142.464 214.016 142.464 343.936-50.592 252.064-142.464 343.936zM486.4-96c-239.968 0-435.2 195.232-435.2 435.2s195.232 435.2 435.2 435.2c239.968 0 435.2-195.232 435.2-435.2s-195.232-435.2-435.2-435.2zM786.112 357.312l-204.8 204.8c-9.984 9.984-26.208 9.984-36.192 0s-9.984-26.208 0-36.192l161.088-161.088h-527.008c-14.144 0-25.6-11.456-25.6-25.6s11.456-25.6 25.6-25.6h527.008l-161.088-161.088c-9.984-9.984-9.984-26.208 0-36.192 4.992-4.992 11.552-7.488 18.112-7.488s13.088 2.496 18.112 7.488l204.8 204.8c10.016 9.984 10.016 26.208 0 36.192z" />
<glyph unicode="&#xe925;" glyph-name="ows_0038" d="M142.464 683.136c-91.872-91.872-142.464-214.016-142.464-343.936s50.592-252.064 142.464-343.936 214.016-142.464 343.936-142.464 252.064 50.592 343.936 142.464 142.464 214.016 142.464 343.936-50.592 252.064-142.464 343.936-214.016 142.464-343.936 142.464-252.064-50.592-343.936-142.464zM921.6 339.2c0-239.968-195.232-435.2-435.2-435.2s-435.2 195.232-435.2 435.2c0 239.968 195.232 435.2 435.2 435.2s435.2-195.232 435.2-435.2zM468.288 638.912l-204.8-204.8c-9.984-9.984-9.984-26.208 0-36.192s26.208-9.984 36.192 0l161.088 161.088v-527.008c0-14.144 11.456-25.6 25.6-25.6s25.6 11.456 25.6 25.6v527.008l161.088-161.088c9.984-9.984 26.208-9.984 36.192 0 4.992 4.992 7.488 11.552 7.488 18.112s-2.496 13.088-7.488 18.112l-204.8 204.8c-9.984 10.016-26.208 10.016-36.192 0z" />
<glyph unicode="&#xe926;" glyph-name="ows_0039" d="M512-147.2c-282.304 0-512 229.696-512 512s229.696 512 512 512c282.336 0 512-229.696 512-512s-229.696-512-512-512zM512 855.52c-270.56 0-490.688-220.128-490.688-490.72s220.128-490.688 490.688-490.688c270.592 0 490.72 220.128 490.72 490.688s-220.128 490.72-490.72 490.72zM389.728 111.424c-3.584 0-7.2 0.896-10.432 2.72-6.976 3.808-11.296 11.104-11.296 19.040v463.264c0 7.936 4.32 15.2 11.296 19.040s15.456 3.52 22.080-0.704l364-231.808c6.272-4 10.048-10.848 10.048-18.304s-3.776-14.304-10.016-18.304l-364.032-231.488c-3.552-2.272-7.616-3.424-11.648-3.424zM389.952 596.832l-0.672-0.384v-463.296l364.672 231.104-364.032 232.576z" />
<glyph unicode="&#xe927;" glyph-name="ows_0040" d="M643.392 464l-33.408 22.528 17.888 26.528 44.096-29.76 44.096 29.76 17.888-26.528-33.408-22.528 33.408-22.528-17.888-26.528-44.096 29.76-44.096-29.76-17.888 26.528 33.408 22.528zM355.392 464l-33.408 22.528 17.888 26.528 44.096-29.76 44.096 29.76 17.888-26.528-33.408-22.528 33.408-22.528-17.888-26.528-44.096 29.76-44.096-29.76-17.888 26.528 33.408 22.528zM528-64v0c-220.928 0-400 179.072-400 400s179.072 400 400 400c220.928 0 400-179.072 400-400s-179.072-400-400-400zM528-32c203.232 0 368 164.768 368 368s-164.768 368-368 368c-203.232 0-368-164.768-368-368s164.768-368 368-368v0zM528 96v0c-44.192 0-80 35.808-80 80s35.808 80 80 80c44.192 0 80-35.808 80-80s-35.808-80-80-80zM528 128c26.496 0 48 21.504 48 48s-21.504 48-48 48c-26.496 0-48-21.504-48-48s21.504-48 48-48v0z" />
<glyph unicode="&#xe928;" glyph-name="ows_0041" d="M643.392 464l-33.408 22.528 17.888 26.528 44.096-29.76 44.096 29.76 17.888-26.528-33.408-22.528 33.408-22.528-17.888-26.528-44.096 29.76-44.096-29.76-17.888 26.528 33.408 22.528zM355.392 464l-33.408 22.528 17.888 26.528 44.096-29.76 44.096 29.76 17.888-26.528-33.408-22.528 33.408-22.528-17.888-26.528-44.096 29.76-44.096-29.76-17.888 26.528 33.408 22.528zM528-64v0c-220.928 0-400 179.072-400 400s179.072 400 400 400c220.928 0 400-179.072 400-400s-179.072-400-400-400zM528-32c203.232 0 368 164.768 368 368s-164.768 368-368 368c-203.232 0-368-164.768-368-368s164.768-368 368-368v0zM528 96v0c-79.52 0-144 35.808-144 80s64.48 80 144 80c79.52 0 144-35.808 144-80s-64.48-80-144-80zM528 128c61.856 0 112 21.504 112 48s-50.144 48-112 48c-61.856 0-112-21.504-112-48s50.144-48 112-48v0z" />
<glyph unicode="&#xe929;" glyph-name="ows_0042" d="M643.392 464l-33.408 22.528 17.888 26.528 44.096-29.76 44.096 29.76 17.888-26.528-33.408-22.528 33.408-22.528-17.888-26.528-44.096 29.76-44.096-29.76-17.888 26.528 33.408 22.528zM355.392 464l-33.408 22.528 17.888 26.528 44.096-29.76 44.096 29.76 17.888-26.528-33.408-22.528 33.408-22.528-17.888-26.528-44.096 29.76-44.096-29.76-17.888 26.528 33.408 22.528zM528-64c220.928 0 400 179.072 400 400s-179.072 400-400 400c-220.928 0-400-179.072-400-400s179.072-400 400-400zM528 96c-44.192 0-80 35.808-80 80s35.808 80 80 80c44.192 0 80-35.808 80-80s-35.808-80-80-80z" />
<glyph unicode="&#xe92a;" glyph-name="ows_0043" d="M643.392 464l-33.408-22.528 17.888-26.528 44.096 29.76 44.096-29.76 17.888 26.528-33.408 22.528 33.408 22.528-17.888 26.528-44.096-29.76-44.096 29.76-17.888-26.528 33.408-22.528zM355.392 464l-33.408-22.528 17.888-26.528 44.096 29.76 44.096-29.76 17.888 26.528-33.408 22.528 33.408 22.528-17.888 26.528-44.096-29.76-44.096 29.76-17.888-26.528 33.408-22.528zM528-64c-220.928 0-400 179.072-400 400s179.072 400 400 400c220.928 0 400-179.072 400-400s-179.072-400-400-400zM528 96c79.52 0 144 35.808 144 80s-64.48 80-144 80c-79.52 0-144-35.808-144-80s64.48-80 144-80z" />
<glyph unicode="&#xe92b;" glyph-name="ows_0044" d="M320 329.344v0 0c-58.912 52.736-96 129.376-96 214.656 0 159.072 128.928 288 288 288s288-128.928 288-288c0-85.28-37.088-161.92-96-214.656v-457.344l-192 192-192-192v457.344zM352 304.512v-355.712l160 160 160-160v355.712c-45.76-30.624-100.8-48.512-160-48.512s-114.24 17.856-160 48.512v0 0zM512 288c141.376 0 256 114.624 256 256s-114.624 256-256 256c-141.376 0-256-114.624-256-256s114.624-256 256-256v0zM512 352v0c-106.048 0-192 85.952-192 192s85.952 192 192 192c106.048 0 192-85.952 192-192s-85.952-192-192-192zM512 384c88.352 0 160 71.648 160 160s-71.648 160-160 160c-88.352 0-160-71.648-160-160s71.648-160 160-160v0z" />
<glyph unicode="&#xe92c;" glyph-name="ows_0045" d="M320 287.968v-415.968l192 192 192-192v415.968c-53.472-40.16-119.968-63.968-192-63.968s-138.528 23.808-192 63.968v0 0zM512 256v0c-159.072 0-288 128.928-288 288s128.928 288 288 288c159.072 0 288-128.928 288-288s-128.928-288-288-288zM512 352c106.048 0 192 85.952 192 192s-85.952 192-192 192c-106.048 0-192-85.952-192-192s85.952-192 192-192v0zM512 384c88.352 0 160 71.648 160 160s-71.648 160-160 160c-88.352 0-160-71.648-160-160s71.648-160 160-160v0z" />
<glyph unicode="&#xe92d;" glyph-name="ows_0046" d="M320 329.344v0 0c-58.912 52.736-96 129.376-96 214.656 0 159.072 128.928 288 288 288s288-128.928 288-288c0-85.28-37.088-161.92-96-214.656v-457.344l-192 192-192-192v457.344zM352 304.512v-355.712l160 160 160-160v355.712c-45.76-30.624-100.8-48.512-160-48.512s-114.24 17.856-160 48.512v0 0zM512 288c141.376 0 256 114.624 256 256s-114.624 256-256 256c-141.376 0-256-114.624-256-256s114.624-256 256-256v0zM512 457.856l-112-73.856 48 128-96 64h112l48 128 48-128h112l-96-64 48-128-112 73.856z" />
<glyph unicode="&#xe92e;" glyph-name="ows_0047" d="M320 287.968v-415.968l192 192 192-192v415.968c-53.472-40.16-119.968-63.968-192-63.968s-138.528 23.808-192 63.968v0 0zM512 256c159.072 0 288 128.928 288 288s-128.928 288-288 288c-159.072 0-288-128.928-288-288s128.928-288 288-288v0zM512 457.856l-112-73.856 48 128-96 64h112l48 128 48-128h112l-96-64 48-128-112 73.856z" />
<glyph unicode="&#xe92f;" glyph-name="ows_0048" d="M512.224 224l-140.992-367.264-55.232 124.032-124.032-55.232 139.296 362.88c-64.96 52.8-106.464 133.344-106.464 223.584 0 159.072 128.928 288 288 288s288-128.928 288-288c0-90.24-41.504-170.784-106.464-223.584l139.296-362.88-124.032 55.232-55.232-124.032-140.992 367.264c-0.192 0-0.416 0-0.608 0s-0.416 0-0.608 0v0 0zM478.72 225.984v0 0c-44 5.184-84.96 20.288-120.576 43.040l-108.736-283.264 82.688 36.8 36.8-82.688 109.824 286.112zM667.52 269.024v0 0c-35.616-22.72-76.576-37.856-120.576-43.040l109.824-286.112 36.8 82.688 82.688-36.8-108.736 283.264zM512.832 256c141.376 0 256 114.624 256 256s-114.624 256-256 256c-141.376 0-256-114.624-256-256s114.624-256 256-256v0zM512.832 320v0c-106.048 0-192 85.952-192 192s85.952 192 192 192c106.048 0 192-85.952 192-192s-85.952-192-192-192zM512.832 352c88.352 0 160 71.648 160 160s-71.648 160-160 160c-88.352 0-160-71.648-160-160s71.648-160 160-160v0z" />
<glyph unicode="&#xe930;" glyph-name="ows_0049" d="M500.032 192.256l-128.8-335.52-55.232 124.032-124.032-55.232 127.296 331.616c50.592-38.464 112.96-62.24 180.736-64.896v0zM706.368 257.152l127.296-331.616-124.032 55.232-55.232-124.032-128.8 335.52c67.808 2.656 130.176 26.432 180.736 64.896v0 0zM512.832 224v0c-159.072 0-288 128.928-288 288s128.928 288 288 288c159.072 0 288-128.928 288-288s-128.928-288-288-288zM512.832 320c106.048 0 192 85.952 192 192s-85.952 192-192 192c-106.048 0-192-85.952-192-192s85.952-192 192-192v0zM512.832 352c88.352 0 160 71.648 160 160s-71.648 160-160 160c-88.352 0-160-71.648-160-160s71.648-160 160-160v0z" />
<glyph unicode="&#xe931;" glyph-name="ows_0050" d="M512.224 224l-140.992-367.264-55.232 124.032-124.032-55.232 139.296 362.88c-64.96 52.8-106.464 133.344-106.464 223.584 0 159.072 128.928 288 288 288s288-128.928 288-288c0-90.24-41.504-170.784-106.464-223.584l139.296-362.88-124.032 55.232-55.232-124.032-140.992 367.264c-0.192 0-0.416 0-0.608 0s-0.416 0-0.608 0v0 0zM478.72 225.984v0 0c-44 5.184-84.96 20.288-120.576 43.040l-108.736-283.264 82.688 36.8 36.8-82.688 109.824 286.112zM667.52 269.024v0 0c-35.616-22.72-76.576-37.856-120.576-43.040l109.824-286.112 36.8 82.688 82.688-36.8-108.736 283.264zM512.832 256c141.376 0 256 114.624 256 256s-114.624 256-256 256c-141.376 0-256-114.624-256-256s114.624-256 256-256v0zM512.832 425.856l-112-73.856 48 128-96 64h112l48 128 48-128h112l-96-64 48-128-112 73.856z" />
<glyph unicode="&#xe932;" glyph-name="ows_0051" d="M500.032 192.256l-128.8-335.52-55.232 124.032-124.032-55.232 127.296 331.616c50.592-38.464 112.96-62.24 180.736-64.896v0zM706.368 257.152l127.296-331.616-124.032 55.232-55.232-124.032-128.8 335.52c67.808 2.656 130.176 26.432 180.736 64.896v0 0zM512.832 224c159.072 0 288 128.928 288 288s-128.928 288-288 288c-159.072 0-288-128.928-288-288s128.928-288 288-288v0zM512.832 425.856l-112-73.856 48 128-96 64h112l48 128 48-128h112l-96-64 48-128-112 73.856z" />
<glyph unicode="&#xe933;" glyph-name="ows_0052" d="M994.72 633.504h-233.664v118.368c0 16.128-13.12 29.28-29.28 29.28h-439.584c-16.128 0-29.28-13.12-29.28-29.28v-118.368h-233.664c-16.128 0-29.28-13.12-29.28-29.28v-626.528c0-16.128 13.12-29.28 29.28-29.28h965.472c16.128 0 29.28 13.12 29.28 29.28v626.528c0 16.128-13.12 29.28-29.28 29.28zM933.632 27.264h-266.048c-4.832 0-8.736-3.904-8.736-8.736s3.904-8.736 8.736-8.736h266.048v-43.904h-843.232v214.4h281.376c4.832 0 8.736 3.904 8.736 8.736s-3.904 8.736-8.736 8.736h-281.376v130.688h99.008v-45.184c0-13.216 10.752-23.968 23.968-23.968h54.848c13.216 0 23.968 10.752 23.968 23.968v45.184h439.68v-45.184c0-13.216 10.752-23.968 23.968-23.968h54.848c13.216 0 23.968 10.752 23.968 23.968v45.184h99.008v-301.184zM206.848 283.296v92.928c0 3.584 2.912 6.496 6.496 6.496h54.848c3.584 0 6.496-2.912 6.496-6.496v-92.928c0-3.584-2.912-6.496-6.496-6.496h-54.848c-3.584 0-6.496 2.912-6.496 6.496zM749.312 283.296v92.928c0 3.584 2.912 6.496 6.496 6.496h54.848c3.584 0 6.496-2.912 6.496-6.496v-92.928c0-3.584-2.912-6.496-6.496-6.496h-54.848c-3.584 0-6.496 2.912-6.496 6.496zM834.624 345.92v30.272c0 13.216-10.752 23.968-23.968 23.968h-54.848c-13.216 0-23.968-10.752-23.968-23.968v-30.272h-439.68v30.272c0 13.216-10.752 23.968-23.968 23.968h-54.848c-13.216 0-23.968-10.752-23.968-23.968v-30.272h-171.936v142.496h169.408c4.832 0 8.736 3.904 8.736 8.736s-3.904 8.736-8.736 8.736h-169.408v40.32h989.088v-200.288h-171.936zM280.384 751.872c0 6.528 5.312 11.808 11.808 11.808h439.584c6.528 0 11.808-5.312 11.808-11.808v-118.368h-28.384v77.856c0 13.984-11.36 25.344-25.344 25.344h-355.712c-13.984 0-25.344-11.36-25.344-25.344v-77.856h-28.384v118.368zM326.24 633.504v77.856c0 4.352 3.552 7.904 7.904 7.904h355.712c4.352 0 7.904-3.552 7.904-7.904v-77.856h-371.52zM29.28 616.064h965.472c6.528 0 11.808-5.312 11.808-11.808v-40.576h-989.088v40.576c0 6.528 5.312 11.808 11.808 11.808zM17.472-22.272v350.752h55.456v-362.56h-43.648c-6.528 0-11.808 5.312-11.808 11.808zM994.72-34.080h-43.648v362.56h55.456v-350.752c0-6.496-5.312-11.808-11.808-11.808z" />
<glyph unicode="&#xe934;" glyph-name="ows_0053" d="M1011.68-76.064l-108.96 651.424c-6.304 37.6-42.432 68.192-80.544 68.192h-68.832c-4.384 129.376-110.944 233.248-241.376 233.248s-236.992-103.904-241.376-233.248h-68.832c-38.112 0-74.272-30.592-80.544-68.192l-108.96-651.424c-3.136-18.784 1.44-36.608 12.896-50.144s28.288-20.992 47.328-20.992h878.912c19.040 0 35.872 7.456 47.328 20.992s16.064 31.36 12.896 50.144zM50.24 42.304h437.152c4.928 0 8.96 4 8.96 8.96s-4 8.96-8.96 8.96h-434.176l46.304 276.896h123.936c4.928 0 8.96 4 8.96 8.96s-4 8.96-8.96 8.96h-120.928l11.584 69.152h238.208c4.928 0 8.96 4 8.96 8.96s-4 8.96-8.96 8.96h-235.2l14.048 83.936h761.696l70.24-419.872h-210.976c-4.928 0-8.96-4-8.96-8.96s4-8.96 8.96-8.96h213.952l7.264-43.488h-49.344c-4.928 0-8.96-4-8.96-8.96s4-8.96 8.96-8.96h52.352l9.12-54.496h-946.88l11.712 69.92zM512 858.912c120.544 0 219.072-95.872 223.456-215.36h-42.24c-2.080 45.44-20.672 88.16-52.864 121.184-34.464 35.328-80.064 54.784-128.384 54.784s-93.92-19.424-128.352-54.72c-32.224-32.992-50.784-75.776-52.864-121.248h-42.208c4.352 119.488 102.912 215.36 223.456 215.36zM675.328 643.552h-326.624c4.352 87.904 75.936 158.080 163.328 158.080 87.328 0 158.912-70.144 163.328-158.080zM201.824 625.632h620.384c29.248 0 58.048-24.384 62.88-53.248l4.768-28.48h-755.712l4.768 28.48c4.832 28.864 33.632 53.248 62.88 53.248zM985.12-114.624c-8-9.472-19.968-14.656-33.664-14.656h-878.912c-13.696 0-25.664 5.216-33.664 14.656s-11.168 22.112-8.928 35.616l5.6 33.472h952.864l5.6-33.472c2.272-13.504-0.896-26.176-8.928-35.616z" />
<glyph unicode="&#xe935;" glyph-name="ows_0054" d="M512 876.8c-282.528 0-512-229.44-512-512s229.44-512 512-512 512 229.472 512 512c0 282.528-229.472 512-512 512v0zM524.736 838.688c128.224-3.36 243.68-57.536 327.008-143.136-99.488-79.392-159.552-190.592-166.016-309.12-13.632-0.192-27.296-0.288-40.928-0.352-1.76 115.936-17.952 222.784-44.576 307.104-19.584 62.048-44.096 112.96-75.488 145.536v0zM463.2 836.384l-0.16-0.416c34.272-12.352 73.856-68.064 101.056-154.208 25.12-79.552 40.992-183.104 42.784-295.648-26.432 0.128-52.832 0.48-79.040 1.088-11.84 151.488-143.488 280.544-330.24 332.512 72.224 64 164.128 106.336 265.6 116.672zM165.76 688.768c185.344-44.224 310.848-164.832 323.872-300.512-164.256 5.344-320.608 20.352-446.912 44.16 14.016 98.496 58.272 187.168 123.040 256.352v0zM877.152 667.328c60.64-73.12 99.68-164.8 107.488-265.312-83.968-7.872-172.032-12.768-260.896-14.816 6.624 106.784 61.344 207.456 153.44 280.16zM38.88 394.496c128.928-24.096 286.464-39.104 451.456-44.384-8.384-139.2-135.264-264.096-324.608-309.216-79.264 84.704-127.776 198.592-127.776 323.904 0 9.984 0.352 19.872 0.96 29.696v0zM986.080 364.032c-0.192-114.56-40.896-219.52-108.576-301.344-94.016 74.048-149.152 177.248-154.080 286.432 89.312 2.080 177.92 7.008 262.624 14.912v0zM528.288 349.088c26.080-0.608 52.32-0.96 78.624-1.056-1.504-119.424-18.816-228.544-46.080-310.144s-65.6-133.056-98.752-144.576c-101.056 10.56-192.608 52.8-264.576 116.608 189.536 52.736 322.272 184.8 330.752 339.168v0zM685.504 348.416c5.152-120.384 65.632-233.568 166.624-313.984-83.36-85.792-198.912-140.128-327.328-143.52 29.472 30.72 52.928 77.824 72 134.976 28.96 86.72 46.528 199.2 48.032 322.144 13.568 0.064 27.136 0.192 40.672 0.384v0z" />
<glyph unicode="&#xe936;" glyph-name="ows_0055" d="M938.656 748.8h-853.344c-47.136 0-85.344-38.208-85.344-85.344v-597.344c0-47.136 38.208-85.344 85.344-85.344h853.344c47.136 0 85.344 38.208 85.344 85.344v597.344c0 47.136-38.208 85.344-85.312 85.344zM981.344 66.144c0-23.584-19.104-42.656-42.656-42.656h-853.344c-23.584 0-42.656 19.104-42.656 42.656v341.344h938.656v-341.344zM981.344 450.144h-938.656v85.344h938.656v-85.344zM981.344 578.144h-938.656v85.344c0 23.584 19.104 42.656 42.656 42.656h853.344c23.584 0 42.656-19.104 42.656-42.656v-85.344zM746.656 279.456h128c11.776 0 21.344 9.568 21.344 21.344s-9.568 21.344-21.344 21.344h-128c-11.776 0-21.344-9.568-21.344-21.344s9.568-21.344 21.344-21.344z" />
<glyph unicode="&#xe937;" glyph-name="ows_0056" d="M942.336 706.112h-860.704c-44.256 0-81.664-37.92-81.664-82.816v-518.112c0-45.024 36.64-81.664 81.664-81.664h860.704c45.024 0 81.664 36.64 81.664 81.664v519.296c0 45.024-36.64 81.632-81.664 81.632zM986.048 105.152c0-24.096-19.616-43.712-43.712-43.712h-860.704c-24.096 0-43.712 19.616-43.712 43.712v518.112c0 24.32 20 44.864 43.712 44.864h860.704c24.096 0 43.712-19.616 43.712-43.68v-519.296zM662.784 384.832c-41.088 0-74.528 33.44-74.528 74.528s33.44 74.528 74.528 74.528c14.912 0 28.8-4.416 40.48-12-0.256-0.384-0.544-0.768-0.832-1.184-11.904-18.272-18.208-39.488-18.208-61.344 0-62.016 50.464-112.48 112.48-112.48s112.48 50.464 112.48 112.48-50.464 112.48-112.48 112.48c-10.464 0-18.976-8.48-18.976-18.976s8.48-18.976 18.976-18.976c41.088 0 74.528-33.44 74.528-74.528s-33.44-74.528-74.528-74.528c-14.912 0-28.8 4.416-40.48 12 12.32 18.368 19.008 40 19.008 62.528 0 62.016-50.464 112.48-112.48 112.48s-112.48-50.464-112.48-112.48 50.464-112.48 112.48-112.48c10.464 0 18.976 8.48 18.976 18.976s-8.48 18.976-18.976 18.976zM737.312 459.36c0-11.488-2.624-22.624-7.552-32.704-4.832 9.888-7.584 20.96-7.584 32.704 0 11.424 2.624 22.56 7.552 32.672 4.832-9.888 7.552-20.96 7.552-32.672zM290.688 573.728h-144.64c-38.496 0-69.792-31.296-69.792-69.76v-88.352c0-38.496 31.328-69.792 69.792-69.792h144.64c38.496 0 69.792 31.296 69.792 69.792v88.352c0 38.464-31.296 69.76-69.792 69.76zM290.688 383.776h-144.64c-13.344 0-24.768 8.256-29.504 19.904h54.88c10.464 0 18.976 8.48 18.976 18.976s-8.512 18.976-18.976 18.976h-57.248v37.312h57.248c10.464 0 18.976 8.48 18.976 18.976s-8.512 18.976-18.976 18.976h-54.464c4.96 11.136 16.128 18.912 29.088 18.912h144.64c12.96 0 24.128-7.776 29.088-18.912h-55.392c-10.464 0-18.976-8.48-18.976-18.976s8.512-18.976 18.976-18.976h58.176v-37.312h-58.176c-10.464 0-18.976-8.48-18.976-18.976s8.512-18.976 18.976-18.976h55.808c-4.736-11.648-16.16-19.904-29.504-19.904zM133.376 231.648c-10.464 0-18.976-8.48-18.976-18.976v-35.616c0-10.464 8.48-18.976 18.976-18.976s18.976 8.48 18.976 18.976v35.616c0 10.464-8.512 18.976-18.976 18.976zM227.68 231.648c-10.464 0-18.976-8.48-18.976-18.976v-35.616c0-10.464 8.512-18.976 18.976-18.976s18.976 8.48 18.976 18.976v35.616c0 10.464-8.512 18.976-18.976 18.976zM322.016 231.648c-10.464 0-18.976-8.48-18.976-18.976v-35.616c0-10.464 8.48-18.976 18.976-18.976s18.976 8.48 18.976 18.976v35.616c0 10.464-8.48 18.976-18.976 18.976zM416.32 231.648c-10.464 0-18.976-8.48-18.976-18.976v-35.616c0-10.464 8.48-18.976 18.976-18.976s18.976 8.48 18.976 18.976v35.616c0 10.464-8.48 18.976-18.976 18.976zM511.328 231.648c-10.464 0-18.976-8.48-18.976-18.976v-35.616c0-10.464 8.48-18.976 18.976-18.976s18.976 8.48 18.976 18.976v35.616c0 10.464-8.512 18.976-18.976 18.976zM605.632 231.648c-10.464 0-18.976-8.48-18.976-18.976v-35.616c0-10.464 8.48-18.976 18.976-18.976s18.976 8.48 18.976 18.976v35.616c0 10.464-8.48 18.976-18.976 18.976zM699.968 231.648c-10.464 0-18.976-8.48-18.976-18.976v-35.616c0-10.464 8.48-18.976 18.976-18.976s18.976 8.48 18.976 18.976v35.616c0 10.464-8.48 18.976-18.976 18.976zM794.272 231.648c-10.464 0-18.976-8.48-18.976-18.976v-35.616c0-10.464 8.48-18.976 18.976-18.976s18.976 8.48 18.976 18.976v35.616c0 10.464-8.48 18.976-18.976 18.976zM890.624 231.648c-10.464 0-18.976-8.48-18.976-18.976v-35.616c0-10.464 8.48-18.976 18.976-18.976s18.976 8.48 18.976 18.976v35.616c0 10.464-8.48 18.976-18.976 18.976z" />
<glyph unicode="&#xe938;" glyph-name="ows_0057" d="M303.584 347.776c-8.288 0-15.040-6.72-15.040-15.040v-144.288c0-8.288 6.72-15.040 15.040-15.040s15.040 6.72 15.040 15.040v144.288c0 8.288-6.72 15.040-15.040 15.040zM431.84 716.48h-32.064c-8.288 0-15.040-6.72-15.040-15.040s6.72-15.040 15.040-15.040h32.064c8.288 0 15.040 6.72 15.040 15.040s-6.72 15.040-15.040 15.040zM431.84 668.384h-32.064c-8.288 0-15.040-6.72-15.040-15.040s6.72-15.040 15.040-15.040h32.064c8.288 0 15.040 6.72 15.040 15.040s-6.72 15.040-15.040 15.040zM431.84 620.288h-32.064c-8.288 0-15.040-6.72-15.040-15.040s6.72-15.040 15.040-15.040h32.064c8.288 0 15.040 6.72 15.040 15.040s-6.72 15.040-15.040 15.040zM431.84 556.16h-32.064c-8.288 0-15.040-6.72-15.040-15.040s6.72-15.040 15.040-15.040h32.064c8.288 0 15.040 6.72 15.040 15.040s-6.72 15.040-15.040 15.040zM431.84 508.064h-32.064c-8.288 0-15.040-6.72-15.040-15.040s6.72-15.040 15.040-15.040h32.064c8.288 0 15.040 6.72 15.040 15.040s-6.72 15.040-15.040 15.040zM431.84 460h-32.064c-8.288 0-15.040-6.72-15.040-15.040s6.72-15.040 15.040-15.040h32.064c8.288 0 15.040 6.72 15.040 15.040s-6.72 15.040-15.040 15.040zM431.84 411.904h-32.064c-8.288 0-15.040-6.72-15.040-15.040s6.72-15.040 15.040-15.040h32.064c8.288 0 15.040 6.72 15.040 15.040s-6.72 15.040-15.040 15.040zM431.84 347.776h-32.064c-8.288 0-15.040-6.72-15.040-15.040s6.72-15.040 15.040-15.040h32.064c8.288 0 15.040 6.72 15.040 15.040s-6.72 15.040-15.040 15.040zM431.84 299.68h-32.064c-8.288 0-15.040-6.72-15.040-15.040s6.72-15.040 15.040-15.040h32.064c8.288 0 15.040 6.72 15.040 15.040s-6.72 15.040-15.040 15.040zM431.84 251.584h-32.064c-8.288 0-15.040-6.72-15.040-15.040s6.72-15.040 15.040-15.040h32.064c8.288 0 15.040 6.72 15.040 15.040s-6.72 15.040-15.040 15.040zM431.84 203.488h-32.064c-8.288 0-15.040-6.72-15.040-15.040s6.72-15.040 15.040-15.040h32.064c8.288 0 15.040 6.72 15.040 15.040s-6.72 15.040-15.040 15.040zM431.84 139.36h-32.064c-8.288 0-15.040-6.72-15.040-15.040s6.72-15.040 15.040-15.040h32.064c8.288 0 15.040 6.72 15.040 15.040s-6.72 15.040-15.040 15.040zM431.84 91.264h-32.064c-8.288 0-15.040-6.72-15.040-15.040s6.72-15.040 15.040-15.040h32.064c8.288 0 15.040 6.72 15.040 15.040s-6.72 15.040-15.040 15.040zM431.84 43.168h-32.064c-8.288 0-15.040-6.72-15.040-15.040s6.72-15.040 15.040-15.040h32.064c8.288 0 15.040 6.72 15.040 15.040s-6.72 15.040-15.040 15.040zM431.84-4.928h-32.064c-8.288 0-15.040-6.72-15.040-15.040s6.72-15.040 15.040-15.040h32.064c8.288 0 15.040 6.72 15.040 15.040s-6.72 15.040-15.040 15.040zM624.224 219.52c-43.648 0-79.168-35.52-79.168-79.168v-96.192c0-43.648 35.52-79.168 79.168-79.168s79.168 35.52 79.168 79.168v96.192c0 43.648-35.52 79.168-79.168 79.168zM673.312 44.16c0-27.072-22.016-49.088-49.088-49.088s-49.088 22.016-49.088 49.088v96.192c0 27.072 22.016 49.088 49.088 49.088s49.088-22.016 49.088-49.088v-96.192zM960.864 876.8h-897.76c-34.816 0-63.136-28.32-63.136-63.136v-208.416c0-34.816 28.32-63.136 63.136-63.136h113.216v-610.208c0-43.648 35.52-79.168 79.168-79.168h512.992c43.648 0 79.168 35.52 79.168 79.168v610.208h113.216c34.816 0 63.136 28.32 63.136 63.136v208.416c0 34.816-28.32 63.136-63.136 63.136zM768.512-117.152h-512.992c-27.072 0-49.088 22.016-49.088 49.088v625.152c0 0.032 0 0.032 0 0.064s0 0.032 0 0.064v177.28h82.144v-337.664c0-8.288 6.72-15.040 15.040-15.040s15.040 6.72 15.040 15.040v337.664h229.632c-2.048-5.28-3.2-11.040-3.2-17.024v-96.192c0-25.952 21.12-47.104 47.104-47.104h64.128c25.952 0 47.104 21.12 47.104 47.104v96.192c0 6.016-1.152 11.744-3.2 17.024h117.408v-177.248c0-0.032 0-0.064 0-0.096s0-0.064 0-0.096v-625.12c0-27.072-22.016-49.088-49.088-49.088zM624.224 702.464c8.288 0 15.040 6.72 15.040 15.040v17.024h17.024c9.408 0 17.024-7.648 17.024-17.024v-33.056h-98.208v33.056c0 9.376 7.648 17.024 17.024 17.024h17.024v-17.024c0-8.288 6.72-15.040 15.040-15.040zM624.224 636.32c-8.288 0-15.040-6.72-15.040-15.040v-17.024h-17.024c-9.408 0-17.024 7.648-17.024 17.024v33.056h98.208v-33.056c0-9.376-7.648-17.024-17.024-17.024h-17.024v17.024c0 8.288-6.72 15.040-15.040 15.040zM993.952 605.28c0-18.24-14.848-33.056-33.056-33.056h-113.216v162.304h49.088c8.288 0 15.040 6.72 15.040 15.040s-6.72 15.040-15.040 15.040h-769.504c-8.288 0-15.040-6.72-15.040-15.040s6.72-15.040 15.040-15.040h49.088v-162.304h-113.216c-18.24 0-33.056 14.848-33.056 33.056v208.416c0 18.24 14.848 33.056 33.056 33.056h897.76c18.24 0 33.056-14.848 33.056-33.056v-208.416z" />
<glyph unicode="&#xe939;" glyph-name="ows_0058" d="M36-13.728h-36v804.576h36v-804.576zM72-13.152h-18.272v804h18.272v-804zM125.728-13.152h-17.728v804h17.728v-804zM215.424-13.152h-17.728v804h17.728v-804zM305.152-13.152h-35.424v804h35.424v-804zM377.152-13.152h-17.728v804h17.728v-804zM413.152-13.152h-17.728v804h17.728v-804zM449.152-13.152h-17.728v804h17.728v-804zM538.848-13.152h-36v804h36v-804zM628.576-13.152h-36v804h36v-804zM700.576-13.152h-36v804h36v-804zM772.576-13.152h-36v804h36v-804zM826.272-13.152h-36v804h36v-804zM934.272-13.152h-53.728v804h53.728v-804zM970.272-13.152h-18.272v804h18.272v-804zM1024-13.728h-36v804.576h36v-804.576z" />
<glyph unicode="&#xe93a;" glyph-name="ows_0059" d="M572.544 178.464c21.376-14.368 35.456-38.784 35.456-66.464 0-44.192-35.808-80-80-80s-80 35.808-80 80c0 27.712 14.080 52.096 35.456 66.464l44.544 237.536 44.544-237.536zM936.832 100.096c15.008 43.872 23.168 90.944 23.168 139.904 0 238.592-193.408 432-432 432s-432-193.408-432-432c0-48.96 8.16-96.032 23.168-139.904l30.656 9.28c-14.144 40.928-21.792 84.864-21.792 130.592 0 220.928 179.072 400 400 400s400-179.072 400-400c0-45.728-7.68-89.664-21.792-130.592l30.656-9.28zM528 64c26.496 0 48 21.504 48 48s-21.504 48-48 48c-26.496 0-48-21.504-48-48s21.504-48 48-48v0 0zM528 608c-8.832 0-16-6.88-16-15.68v-96.608c0-8.672 7.424-15.68 16-15.68 8.832 0 16 6.88 16 15.68v96.608c0 8.672-7.424 15.68-16 15.68v0 0zM744.352 537.696c-7.136 5.184-16.992 3.84-22.176-3.296l-56.8-78.144c-5.088-7.008-3.232-17.056 3.712-22.112 7.136-5.184 16.992-3.84 22.176 3.296l56.8 78.144c5.088 7.008 3.232 17.056-3.712 22.112v0 0zM878.080 353.664c-2.72 8.416-11.488 13.088-19.872 10.368l-91.872-29.856c-8.256-2.688-12.64-11.904-9.984-20.064 2.72-8.416 11.488-13.088 19.872-10.368l91.872 29.856c8.256 2.688 12.64 11.904 9.984 20.064v0 0zM878.080 126.144c2.72 8.416-1.6 17.344-9.984 20.064l-91.872 29.856c-8.256 2.688-17.216-2.208-19.872-10.368-2.72-8.416 1.6-17.344 9.984-20.064l91.872-29.856c8.256-2.688 17.216 2.208 19.872 10.368v0 0zM177.92 126.144c2.72-8.416 11.488-13.088 19.872-10.368l91.872 29.856c8.256 2.688 12.64 11.904 9.984 20.064-2.72 8.416-11.488 13.088-19.872 10.368l-91.872-29.856c-8.256-2.688-12.64-11.904-9.984-20.064v0 0zM177.92 353.664c-2.72-8.416 1.6-17.344 9.984-20.064l91.872-29.856c8.256-2.688 17.216 2.208 19.872 10.368 2.72 8.416-1.6 17.344-9.984 20.064l-91.872 29.856c-8.256 2.688-17.216-2.208-19.872-10.368v0 0zM311.648 537.696c-7.136-5.184-8.896-14.976-3.712-22.112l56.8-78.144c5.088-7.008 15.232-8.32 22.176-3.296 7.136 5.184 8.896 14.976 3.712 22.112l-56.8 78.144c-5.088 7.008-15.232 8.32-22.176 3.296v0 0z" />
<glyph unicode="&#xe93b;" glyph-name="ows_0060" d="M572.544 178.464l-44.544 237.536-44.544-237.536c-21.376-14.368-35.456-38.784-35.456-66.464 0-5.472 0.544-10.816 1.6-16h-329.024c-15.904 45.024-24.576 93.504-24.576 144 0 238.592 193.408 432 432 432s432-193.408 432-432c0-50.496-8.672-98.976-24.576-144h-329.024c1.056 5.184 1.6 10.528 1.6 16 0 27.712-14.080 52.096-35.456 66.464zM528 64c26.496 0 48 21.504 48 48s-21.504 48-48 48c-26.496 0-48-21.504-48-48s21.504-48 48-48v0 0zM528 640c-8.832 0-16-6.88-16-15.68v-96.608c0-8.672 7.424-15.68 16-15.68 8.832 0 16 6.88 16 15.68v96.608c0 8.672-7.424 15.68-16 15.68v0 0zM744.352 569.696c-7.136 5.184-16.992 3.84-22.176-3.296l-56.8-78.144c-5.088-7.008-3.232-17.056 3.712-22.112 7.136-5.184 16.992-3.84 22.176 3.296l56.8 78.144c5.088 7.008 3.232 17.056-3.712 22.112v0 0zM878.080 385.664c-2.72 8.416-11.488 13.088-19.872 10.368l-91.872-29.856c-8.256-2.688-12.64-11.904-9.984-20.064 2.72-8.416 11.488-13.088 19.872-10.368l91.872 29.856c8.256 2.688 12.64 11.904 9.984 20.064v0 0zM878.080 158.144c2.72 8.416-1.6 17.344-9.984 20.064l-91.872 29.856c-8.256 2.688-17.216-2.208-19.872-10.368-2.72-8.416 1.6-17.344 9.984-20.064l91.872-29.856c8.256-2.688 17.216 2.208 19.872 10.368v0 0zM177.92 158.144c2.72-8.416 11.488-13.088 19.872-10.368l91.872 29.856c8.256 2.688 12.64 11.904 9.984 20.064-2.72 8.416-11.488 13.088-19.872 10.368l-91.872-29.856c-8.256-2.688-12.64-11.904-9.984-20.064v0 0zM177.92 385.664c-2.72-8.416 1.6-17.344 9.984-20.064l91.872-29.856c8.256-2.688 17.216 2.208 19.872 10.368 2.72 8.416-1.6 17.344-9.984 20.064l-91.872 29.856c-8.256 2.688-17.216-2.208-19.872-10.368v0 0zM311.648 569.696c-7.136-5.184-8.896-14.976-3.712-22.112l56.8-78.144c5.088-7.008 15.232-8.32 22.176-3.296 7.136 5.184 8.896 14.976 3.712 22.112l-56.8 78.144c-5.088 7.008-15.232 8.32-22.176 3.296v0 0z" />
<glyph unicode="&#xe93c;" glyph-name="ows_0061" d="M636.384 48.352v0c-1.152 5.216-1.888 11.296-1.568 8.928 65.952 7.744 118.24 60.064 126.016 126.016 49.856-6.688 89.312-46.144 96-96-65.952-7.744-118.24-60.064-126.016-126.016-46.848 6.272-84.512 41.504-94.432 87.072zM728.48 182.976v0 0c-7.456-47.968-45.344-85.888-93.344-93.344 7.456 47.968 45.344 85.888 93.344 93.344zM856.48 54.976c-7.456-47.968-45.344-85.888-93.344-93.344 7.456 47.968 45.344 85.888 93.344 93.344v0 0zM441.792 333.824l-232.832-264.96 28.48-28.48 264.96 232.832-60.576 60.576zM462.944 357.888l63.488-63.488 352.736 309.984c31.328 27.552 32.736 73.856 3.488 103.104l-6.624 6.624c-29.408 29.408-75.456 28-103.104-3.488l-309.984-352.736zM187.776 44.768l-21.184-24.096-11.424 11.424c-6.176 6.176-16.448 5.952-22.528-0.096-6.24-6.24-6.432-16.192-0.096-22.528l45.472-45.472c6.176-6.176 16.448-5.952 22.528 0.096 6.24 6.24 6.432 16.192 0.096 22.528l-11.424 11.424 24.096 21.184-25.536 25.536zM162.944 64.8l590.4 669.12c38.528 43.648 102.624 45.536 143.552 4.608l10.208-10.208c40.896-40.896 38.848-105.184-4.608-143.552l-669.152-590.432c7.488-17.504 4.128-38.592-10.144-52.896-18.88-18.88-49.152-18.752-67.872 0l-45.248 45.248c-18.688 18.688-18.752 49.152 0 67.872 14.4 14.4 35.424 17.728 52.928 10.176v0 0zM745.824 216.288c-79.52 0-144-64.48-144-144s64.48-144 144-144c79.52 0 144 64.48 144 144s-64.48 144-144 144v0z" />
<glyph unicode="&#xe93d;" glyph-name="ows_0062" d="M889.024 87.488c-7.072 67.392-60.608 120.928-128 128v0c0.512-4.992 0.8-10.080 0.8-15.2 0-79.52-64.48-144-144-144-5.12 0-10.208 0.256-15.2 0.8 7.072-67.392 60.608-120.928 128-128-0.512 4.992-0.8 10.080-0.8 15.2 0 79.52 64.48 144 144 144 5.12 0 10.208-0.256 15.2-0.8v0zM888.832 55.296c-7.744-65.952-60.064-118.272-126.016-126.016-0.672 4.896-0.992 9.92-0.992 15.008 0 61.856 50.144 112 112 112 5.088 0 10.112-0.352 15.008-0.992v0zM728.8 215.296c-65.952-7.744-118.272-60.064-126.016-126.016 4.896-0.672 9.92-0.992 15.008-0.992 61.856 0 112 50.144 112 112 0 5.088-0.352 10.112-0.992 15.008v0zM419.744 355.84l-236.48-268 73.12-73.12 268 236.48-104.64 104.64zM440.96 379.904l312.384 354.048c38.528 43.648 102.624 45.536 143.552 4.608l10.208-10.208c40.896-40.896 38.848-105.184-4.608-143.552l-354.048-312.384-107.488 107.488zM234.496-8.608c5.92-16.864 2.176-36.416-11.328-49.888-18.88-18.88-49.152-18.752-67.872 0l-45.248 45.248c-18.688 18.688-18.752 49.152 0 67.872 13.568 13.568 32.992 17.312 49.824 11.392l74.624-74.624z" />
<glyph unicode="&#xe93e;" glyph-name="ows_0063" d="M278.592 65.408v0c8.768 9.536 17.088 19.52 24.896 29.856l23.552-17.12 18.816 25.888-24.096 17.504c15.872 24.96 29.088 51.808 39.168 80.128l29.76-9.664 9.888 30.432-30.144 9.792c7.552 28.128 12.064 57.504 13.28 87.744h32.32v32h-32.32c-1.184 30.24-5.728 59.584-13.28 87.744l30.144 9.792-9.888 30.432-29.76-9.664c-10.080 28.32-23.296 55.168-39.168 80.128l24.096 17.504-18.816 25.888-23.552-17.088c-7.808 10.368-16.128 20.32-24.896 29.856 65.568 60.48 153.184 97.408 249.408 97.408s183.84-36.928 249.408-97.408c-8.768-9.536-17.088-19.52-24.896-29.856l-23.552 17.088-18.816-25.888 24.096-17.504c-15.872-24.96-29.088-51.808-39.168-80.128l-29.76 9.664-9.888-30.432 30.144-9.792c-7.52-28.128-12.064-57.504-13.28-87.744h-32.32v-32h32.32c1.184-30.24 5.728-59.584 13.28-87.744l-30.144-9.792 9.888-30.432 29.76 9.664c10.080-28.32 23.296-55.168 39.168-80.128l-24.096-17.504 18.816-25.888 23.552 17.12c7.808-10.368 16.128-20.32 24.896-29.856v0c-65.568-60.48-153.184-97.408-249.408-97.408s-183.84 36.928-249.408 97.408zM256 88.128c-59.648 65.408-96 152.384-96 247.872s36.352 182.464 96 247.872c7.584-8.32 14.784-16.992 21.6-25.952l-28.224-20.512 18.816-25.888 27.616 20.064c13.984-22.24 25.632-46.080 34.656-71.168l-31.072-10.112 9.888-30.432 30.688 9.984c6.56-24.992 10.592-51.040 11.712-77.824h-31.648v-32h31.648c-1.152-26.784-5.152-52.832-11.712-77.824v0l-30.688 9.952-9.888-30.432 31.072-10.112c-9.024-25.088-20.672-48.928-34.656-71.168l-27.616 20.064-18.816-25.888 28.224-20.512c-6.816-8.992-14.016-17.664-21.6-25.952v0zM800 88.128v0 0c-7.584 8.32-14.784 16.992-21.6 25.952l28.224 20.512-18.816 25.888-27.616-20.064c-13.984 22.24-25.632 46.080-34.656 71.168l31.072 10.112-9.888 30.432-30.688-9.952c-6.56 24.992-10.592 51.040-11.712 77.824h31.648v32h-31.648c1.152 26.784 5.152 52.832 11.712 77.824l30.688-9.984 9.888 30.432-31.072 10.112c9.024 25.088 20.672 48.928 34.656 71.168l27.616-20.064 18.816 25.888-28.224 20.512c6.816 8.992 14.016 17.664 21.6 25.952 59.648-65.408 96-152.384 96-247.872s-36.352-182.464-96-247.872zM528-64c220.928 0 400 179.072 400 400s-179.072 400-400 400c-220.928 0-400-179.072-400-400s179.072-400 400-400v0z" />
<glyph unicode="&#xe93f;" glyph-name="ows_0064" d="M800 42.72c-71.36-66.208-166.944-106.72-272-106.72s-200.64 40.48-272 106.72v0 0c17.312 16.064 33.216 33.664 47.488 52.576l23.552-17.12 18.816 25.888-24.096 17.504c15.872 24.96 29.088 51.808 39.168 80.128l29.76-9.664 9.888 30.432-30.144 9.792c7.552 28.128 12.064 57.504 13.28 87.744h32.32v32h-32.32c-1.184 30.24-5.728 59.584-13.28 87.744l30.144 9.792-9.888 30.432-29.76-9.664c-10.080 28.32-23.296 55.168-39.168 80.128l24.096 17.504-18.816 25.888-23.552-17.088c-14.272 18.912-30.176 36.48-47.488 52.576v0c71.36 66.208 166.944 106.72 272 106.72s200.64-40.48 272-106.72v0c-17.312-16.064-33.216-33.664-47.488-52.576l-23.552 17.088-18.816-25.888 24.096-17.504c-15.872-24.96-29.088-51.808-39.168-80.128l-29.76 9.664-9.888-30.432 30.144-9.792c-7.52-28.128-12.064-57.504-13.28-87.744h-32.32v-32h32.32c1.184-30.24 5.728-59.584 13.28-87.744v0l-30.144-9.792 9.888-30.432 29.76 9.664c10.080-28.32 23.296-55.168 39.168-80.128l-24.096-17.504 18.816-25.888 23.552 17.12c14.272-18.912 30.144-36.48 47.488-52.576v0 0 0zM840.544 86.368c54.72 68.416 87.456 155.2 87.456 249.632 0 104.352-39.968 199.36-105.408 270.592-16.128-14.88-30.912-31.168-44.192-48.672l28.224-20.512-18.816-25.888-27.616 20.064c-13.984-22.24-25.632-46.080-34.656-71.168l31.072-10.112-9.888-30.432-30.688 9.984c-6.56-24.992-10.592-51.040-11.712-77.824h31.648v-32h-31.648c1.152-26.784 5.152-52.832 11.712-77.824l30.688 9.952 9.888-30.432-31.072-10.112c9.024-25.088 20.672-48.928 34.656-71.168l27.616 20.064 18.816-25.888-28.224-20.512c13.248-17.504 28.064-33.824 44.192-48.672-0.448-0.48 11.808 13.248 17.984 20.96v0zM212.64 89.92c-53.024 67.872-84.64 153.28-84.64 246.080 0 104.352 39.968 199.36 105.408 270.592 16.128-14.88 30.912-31.168 44.192-48.672l-28.224-20.512 18.816-25.888 27.616 20.064c13.984-22.24 25.632-46.080 34.656-71.168l-31.072-10.112 9.888-30.432 30.688 9.984c6.56-24.992 10.592-51.040 11.712-77.824h-31.648v-32h31.648c-1.152-26.784-5.152-52.832-11.712-77.824l-30.688 9.952-9.888-30.432 31.072-10.112c-9.024-25.088-20.672-48.928-34.656-71.168l-27.616 20.064-18.816-25.888 28.224-20.512c-13.248-17.504-28.064-33.824-44.192-48.672 0.448-0.48-13.792 15.552-20.768 24.48v0z" />
<glyph unicode="&#xe940;" glyph-name="ows_0065" d="M64.768 328.128c-2.56 8.416 2.176 17.376 10.56 19.936s17.376-2.176 19.936-10.56l104.928-340.704h623.616l104.992 340.736c2.56 8.416 11.52 13.12 19.936 10.56s13.12-11.552 10.56-19.936l-108.128-350.848c-1.632-7.168-8-12.544-15.648-12.544l-647.104 0.064c-6.848 0-13.152 4.416-15.232 11.264l-108.448 352zM253.248 515.968c-4.896-7.296-14.816-9.28-22.144-4.352-7.296 4.896-9.28 14.784-4.352 22.144l74.688 111.936c4.896 7.296 14.848 9.28 22.144 4.352s9.28-14.816 4.352-22.144l-74.688-111.936zM48.032 380.832c-8.832 0-16 7.168-16 16s7.168 16 16 16h927.968c8.832 0 16-7.168 16-16s-7.168-16-16-16h-927.968zM16 444.864c-8.832 0-16 7.168-16 16s7.168 16 16 16h992c8.832 0 16-7.168 16-16s-7.168-16-16-16h-992zM797.312 533.696c4.896-7.296 2.944-17.248-4.352-22.144s-17.248-2.976-22.144 4.352l-74.688 111.968c-4.896 7.296-2.944 17.248 4.352 22.144s17.248 2.976 22.144-4.352l74.688-111.968zM464.032 316.8h95.968c8.832 0 16-7.168 16-16v-224.064c0-8.832-7.168-16-16-16h-95.968c-8.832 0-16 7.168-16 16v224.064c0 8.8 7.168 16 16 16v0zM544 284.768h-63.968v-192.032h63.968v192.032zM656.128 316.8h127.936c8.832 0 16-7.168 16-16 0-1.92-0.32-3.808-0.96-5.536l-63.712-222.912c-1.984-7.040-8.416-11.616-15.36-11.616v-0.032h-63.936c-8.832 0-16 7.168-16 16v224.064c0 8.8 7.2 16 16.032 16v0zM762.912 284.768h-90.752v-192.032h35.904l54.88 192.032zM239.968 316.8h127.968c8.832 0 16-7.168 16-16v-224.064c0-8.832-7.168-16-16-16h-63.968c-7.648 0-14.080 5.408-15.648 12.64l-63.744 223.072c-2.4 8.512 2.496 17.344 11.008 19.744 1.472 0.448 2.944 0.608 4.352 0.608v0.032zM351.904 284.768h-90.784l54.88-192.032h35.904v192.032zM368.064 764.8c13.28 0 25.312-5.408 33.92-14.048 8.672-8.672 14.048-20.672 14.048-33.92s-5.376-25.312-14.048-33.952-20.672-14.048-33.92-14.048c-13.28 0-25.312 5.408-33.92 14.048-8.672 8.672-14.048 20.672-14.048 33.92s5.408 25.28 14.048 33.92c8.672 8.672 20.672 14.080 33.92 14.080v0zM379.36 728.128c-2.88 2.88-6.88 4.672-11.296 4.672s-8.448-1.792-11.296-4.672-4.672-6.88-4.672-11.296c0-4.448 1.792-8.448 4.672-11.296s6.88-4.672 11.296-4.672c4.448 0 8.448 1.792 11.296 4.672s4.672 6.88 4.672 11.296c0 4.384-1.792 8.384-4.672 11.296zM655.968 764.8c13.28 0 25.312-5.408 33.92-14.048 8.672-8.672 14.048-20.672 14.048-33.92s-5.376-25.312-14.048-33.92c-8.672-8.672-20.672-14.048-33.92-14.048s-25.28 5.408-33.92 14.048c-8.672 8.672-14.048 20.672-14.048 33.92s5.408 25.28 14.048 33.92c8.64 8.64 20.672 14.048 33.92 14.048v0zM667.264 728.128c-2.88 2.88-6.88 4.672-11.296 4.672s-8.448-1.792-11.296-4.672-4.672-6.88-4.672-11.296c0-4.448 1.792-8.448 4.672-11.296s6.88-4.672 11.296-4.672c4.448 0 8.448 1.792 11.296 4.672s4.672 6.88 4.672 11.296c0 4.384-1.792 8.384-4.672 11.296z" />
<glyph unicode="&#xe941;" glyph-name="ows_0066" d="M408.768 213.088v0c12.096-5.952 28.096-10.944 46.784-14.56l-6.176 33.888c-20.256 4.608-38.272 10.944-53.152 18.56l12.512-37.888zM420.832 176.544l12.096-36.576c10.336-3.040 21.984-5.568 34.624-7.52l-6.080 33.504c-14.624 2.72-28.288 6.304-40.64 10.624v0zM512 192.288v32.032c-10.144 0.416-20.032 1.216-29.568 2.368v0l5.984-32.864c7.616-0.736 15.52-1.248 23.616-1.536v0zM512 160.32v0c-5.984 0.256-11.904 0.64-17.728 1.152l5.92-32.576c3.872-0.256 7.808-0.448 11.808-0.608v32.032zM544 160.32v-32.032c4 0.16 7.904 0.352 11.808 0.608l5.92 32.576c-5.824-0.512-11.712-0.896-17.728-1.152v0zM544 192.288v0c8.096 0.288 15.968 0.832 23.616 1.536l5.984 32.864c-9.568-1.152-19.456-1.952-29.568-2.368v-32.032zM635.040 176.48v0c-12.32-4.288-25.92-7.872-40.512-10.592l-6.080-33.504c12.576 1.952 24.16 4.48 34.464 7.488l12.128 36.576zM647.168 213.024l12.576 37.888c-14.848-7.616-32.864-13.92-53.088-18.528l-6.176-33.888c18.624 3.616 34.592 8.608 46.688 14.528v0zM478.752 70.784l-5.312 29.152c-10.176 1.504-19.936 3.424-29.184 5.696l3.552-10.752h0.224c0.864-9.792 12.704-18.432 30.72-24.064zM511.872 64.64c0.032 0 0.064 0 0.128 0v0 31.68c-1.984 0.096-3.968 0.192-5.92 0.288l5.824-31.968zM544 96.32v-31.68c0.032 0 0.064 0 0.128 0v0l5.824 31.968c-1.952-0.096-3.936-0.192-5.92-0.288v0 0zM611.52 105.568v0 0c-9.216-2.272-18.912-4.16-28.992-5.664l-5.312-29.152c18.016 5.632 29.856 14.304 30.72 24.064h0.032l3.552 10.72zM356.608 285.728v0c-0.384 0.768-0.736 1.504-1.088 2.272h-67.52v288h480v-288h-67.52c-0.32-0.704-0.672-1.44-1.024-2.144l-18.816-61.856h151.36v416h-608v-416h151.488l-18.88 61.728zM355.52 320v0 0c16.32 36.512 87.328 64 172.48 64s156.16-27.488 172.48-64h35.52v224h-416v-224h35.52zM416.48 90.080l-31.168 101.92h-193.28v480h672v-480h-193.088l-31.424-103.296h-0.224c-6.336-31.904-53.76-56.704-111.264-56.704-58.368 0-106.304 25.504-111.52 58.080v0 0zM528 256c79.52 0 144 21.504 144 48s-64.48 48-144 48c-79.52 0-144-21.504-144-48s64.48-48 144-48v0z" />
<glyph unicode="&#xe942;" glyph-name="ows_0067" d="M356.608 285.728v0c-0.384 0.768-0.736 1.504-1.088 2.272h-67.52v288h480v-288h-67.52c-0.32-0.704-0.672-1.44-1.024-2.144l-18.816-61.856h151.36v416h-608v-416h151.488l-18.88 61.728zM355.52 320v0 0c16.32 36.512 87.328 64 172.48 64s156.16-27.488 172.48-64h35.52v224h-416v-224h35.52zM416.48 90.080l-31.168 101.92h-193.28v480h672v-480h-193.088l-31.424-103.296h-0.224c-6.336-31.904-53.76-56.704-111.264-56.704-58.368 0-106.304 25.504-111.52 58.080v0 0zM528 256c79.52 0 144 21.504 144 48s-64.48 48-144 48c-79.52 0-144-21.504-144-48s64.48-48 144-48v0z" />
<glyph unicode="&#xe943;" glyph-name="ows_0068" d="M544 703.648c89.92-3.84 171.488-39.968 233.408-97.056v0c-62.080-67.552-101.248-156.544-105.088-254.592h-128.32v351.648zM512 703.648v-351.648h-128.32c-3.872 98.048-43.008 187.040-105.088 254.592v0c61.92 57.088 143.488 93.216 233.408 97.056zM544-31.648v351.648h128.32c3.872-98.048 43.008-187.040 105.088-254.592v0c-61.92-57.088-143.488-93.216-233.408-97.056zM512-31.648c-89.92 3.84-171.488 39.968-233.408 97.056 62.080 67.552 101.248 156.544 105.088 254.592h128.32v-351.648zM800 583.872c56.288-61.728 91.84-142.688 95.648-231.872v0h-191.328c3.808 89.184 39.36 170.144 95.648 231.872v0 0zM800 88.128v0 0c-56.288 61.728-91.84 142.688-95.648 231.872h191.328c-3.808-89.184-39.36-170.144-95.648-231.872zM160.352 352c3.808 89.184 39.36 170.144 95.648 231.872v0c56.288-61.728 91.84-142.688 95.648-231.872h-191.328zM160.352 320h191.328c-3.808-89.184-39.36-170.144-95.648-231.872-56.288 61.728-91.84 142.688-95.648 231.872zM528-64c220.928 0 400 179.072 400 400s-179.072 400-400 400c-220.928 0-400-179.072-400-400s179.072-400 400-400v0z" />
<glyph unicode="&#xe944;" glyph-name="ows_0069" d="M511.68-63.36v383.68h-128.32c-4.32-109.472-52.608-207.616-127.68-277.28 67.744-62.848 157.28-102.528 256-106.4v0zM211.232 91.648c-49.312 63.712-79.84 142.688-83.232 228.672h223.328c-4.288-100.576-48.992-190.72-118.24-254.592 0.448-0.48-14.56 16.48-21.888 25.92v0zM822.272 65.728c62.080 67.552 101.248 156.544 105.088 254.592v0h-223.328c4.288-100.576 48.992-190.72 118.24-254.592v0 0zM799.68 43.040c-67.744-62.848-157.28-102.528-256-106.4v0 383.68h128.32c4.32-109.472 52.608-207.616 127.68-277.28v0 0zM822.272 606.912c62.080-67.552 101.248-156.544 105.088-254.592v0h-223.328c4.288 100.576 48.992 190.72 118.24 254.592v0 0zM799.68 629.6c-67.744 62.848-157.28 102.528-256 106.4v-383.68h128.32c4.32 109.472 52.608 207.616 127.68 277.28v0zM233.088 606.912c-62.080-67.552-101.248-156.544-105.088-254.592v0h223.328c-4.288 100.576-48.992 190.72-118.24 254.592v0zM255.68 629.6c67.744 62.848 157.28 102.528 256 106.4v0-383.68h-128.32c-4.32 109.472-52.608 207.616-127.68 277.28v0z" />
<glyph unicode="&#xe945;" glyph-name="ows_0070" d="M551.84-31.232v0c-5.152 25.6-7.84 52.096-7.84 79.232 0 108.864 43.488 207.584 114.048 279.712-42.24 59.136-95.072 110.144-155.744 150.304-62.048-124.672-187.264-212.416-333.76-221.28v0c36.256-165.152 183.424-288.736 359.456-288.736 8 0 15.968 0.256 23.84 0.768zM583.808-27.808c67.936 10.336 129.76 39.232 180.128 81.376v0c-10.528 90.048-41.312 173.92-87.616 246.976-62.208-65.888-100.352-154.784-100.352-252.544 0-25.984 2.688-51.328 7.808-75.808v0zM880.224 442.944c-44.608 147.072-178.784 255.2-339.040 260.832v0c1.856-15.648 2.816-31.616 2.816-47.776 0-52.448-10.080-102.496-28.416-148.384 64.544-41.952 120.864-95.52 165.984-157.728 55.072 47.904 123.36 81.024 198.688 93.088v0zM888.192 411.808v0c-71.68-10.912-136.576-42.496-188.416-88.512 46.816-72.096 79.136-154.496 92.832-243.040v0c64 66.208 103.392 156.384 103.392 255.744 0 25.984-2.688 51.328-7.808 75.808zM163.040 288.48v0 0c137.408 7.008 254.88 89.344 312 206.56-68.832 40.352-146.496 67.2-229.44 76.928-53.44-63.872-85.6-146.176-85.6-235.968 0-16.096 1.024-31.968 3.040-47.52zM508.96 703.52c-91.808-4.672-174.752-43.008-236.704-102.88 77.504-12 150.272-38.272 215.584-76 15.616 40.8 24.16 85.088 24.16 131.392 0 16.096-1.024 31.968-3.040 47.52v0 0zM133.088 272.064c-3.36 20.832-5.088 42.176-5.088 63.936 0 220.928 179.072 400 400 400s400-179.072 400-400c0-220.928-179.072-400-400-400-193.536 0-354.976 137.472-392 320.064-1.088 5.28-2.048 10.624-2.912 15.968v0z" />
<glyph unicode="&#xe946;" glyph-name="ows_0071" d="M130.816 288.32c-1.856 15.648-2.816 31.616-2.816 47.776 0 89.696 29.504 172.48 79.36 239.168 97.28-5.088 188.384-33.664 267.68-80.16-59.712-122.592-185.504-207.040-331.040-207.040-3.808 0-12.576 0.224-13.184 0.224v0zM136 256.16c37.024-182.624 198.464-320.064 392-320.064 10.624 0 21.12 0.416 31.552 1.216v0c-10.112 35.168-15.552 72.352-15.552 110.784 0 108.864 43.488 207.584 114.048 279.712-42.24 59.136-95.072 110.144-155.744 150.304-65.504-131.584-201.344-222.016-358.336-222.016-2.688 0-5.344 0.032-8 0.064v0 0zM503.456 735.328c-107.232-6.496-203.040-55.232-271.040-129.76v0c92.416-8.288 179.072-36.704 255.456-80.864 15.616 40.8 24.16 85.088 24.16 131.392 0 27.2-2.944 53.728-8.544 79.264v0 0zM536 736c178.976-3.52 329.12-124.576 376.448-289.152-88.064-6.88-168.096-42.24-230.912-96.896-45.12 62.208-101.408 115.776-165.984 157.728 18.336 45.888 28.416 95.968 28.416 148.384 0 27.36-2.752 54.112-8 79.936v0zM767.168 15.424c-50.56-37.792-110.368-63.872-175.392-74.304v0c-10.272 33.856-15.776 69.76-15.776 106.944 0 97.792 38.144 186.656 100.352 252.544 52.8-83.296 85.376-180.64 90.848-285.184v0 0zM797.472 40.48c80.192 73.152 130.528 178.496 130.528 295.616 0 27.136-2.688 53.632-7.84 79.232-84.352-5.408-160.96-39.2-220.352-91.936 53.76-82.816 88.416-179.2 97.696-282.88v0 0z" />
<glyph unicode="&#xe947;" glyph-name="ows_0072" d="M760.256-147.2h-507.072c-62.464 0-114.208 46.88-120.416 108.992l-52.768 529.44c-0.352 3.616 0.832 7.232 3.264 9.952s5.92 4.256 9.568 4.256h209.856v162.080c0 115.424 93.888 209.312 209.312 209.312s209.312-93.888 209.312-209.312v-162.080h209.856c3.68 0 7.2-1.568 9.664-4.352s3.584-6.432 3.168-10.112l-63.584-531.552c-7.264-60.8-58.912-106.624-120.16-106.624zM153.376 15.328l5.088-50.944c4.864-48.896 45.6-85.76 94.72-85.76h507.072c48.16 0 88.8 36.064 94.528 83.904l6.592 55.008c-4.384 8.704-28.064 47.616-99.52 47.616-80.32 0-104.512-49.376-104.736-49.888-1.92-4.064-5.792-6.848-10.272-7.328s-8.864 1.376-11.616 4.928c-1.664 2.112-42.176 52.288-125.92 52.288-0.48 0-0.96 0.032-1.44 0.064-0.48-0.064-0.96-0.064-1.408-0.064-83.744 0-124.256-50.208-125.952-52.32-2.752-3.52-7.168-5.376-11.616-4.864s-8.32 3.264-10.24 7.296c-0.96 1.952-25.312 49.888-104.736 49.888-79.744 0-100.064-48.672-100.256-49.152-0.096-0.224-0.192-0.448-0.288-0.64zM509.28 90.944c70.272 0 114.56-31.424 134.304-49.664 15.392 19.136 50.528 49.664 118.208 49.664 53.856 0 85.888-19.328 103.904-36.992l50.912 425.632h-463.36c3.136-4.992 2.528-11.648-1.824-15.968l-53.568-53.568c-5.056-5.056-13.216-5.056-18.24 0s-5.056 13.216 0 18.24l51.296 51.296h-102.176v-32.896c0-7.136-5.792-12.896-12.896-12.896s-12.896 5.792-12.896 12.896v32.896h-102.848l51.296-51.296c5.056-5.056 5.056-13.216 0-18.24s-13.216-5.056-18.24 0l-53.568 53.568c-4.352 4.352-4.96 11.008-1.824 15.968h-70.656l42.464-426.080c17.92 17.76 50.016 37.44 104.352 37.44 67.68 0 102.848-30.528 118.208-49.664 19.744 18.24 64.032 49.664 134.304 49.664 0.48 0 0.96-0.032 1.408-0.064 0.48 0.032 0.96 0.064 1.44 0.064zM328.512 505.44h366.976v162.080c0 101.184-82.304 183.488-183.488 183.488s-183.488-82.304-183.488-183.488v-162.080zM315.488 166.208c-7.136 0-12.896 5.792-12.896 12.896v66.432c0 7.136 5.792 12.896 12.896 12.896s12.896-5.792 12.896-12.896v-66.432c0-7.136-5.792-12.896-12.896-12.896zM442.656 206.624c-3.296 0-6.592 1.248-9.12 3.776l-53.568 53.568c-5.056 5.056-5.056 13.216 0 18.24s13.216 5.056 18.24 0l53.568-53.568c5.056-5.056 5.056-13.216 0-18.24-2.528-2.528-5.824-3.776-9.12-3.776zM189.024 206.624c-3.296 0-6.592 1.248-9.12 3.776-5.056 5.056-5.056 13.216 0 18.24l53.568 53.568c5.056 5.056 13.216 5.056 18.24 0s5.056-13.216 0-18.24l-53.568-53.568c-2.528-2.528-5.824-3.776-9.12-3.776zM315.84 279.104c-37.472 0-67.968 30.496-67.968 67.968s30.496 67.968 67.968 67.968c37.472 0 67.968-30.496 67.968-67.968s-30.496-67.968-67.968-67.968zM315.84 389.216c-23.232 0-42.144-18.912-42.144-42.144s18.912-42.144 42.144-42.144c23.232 0 42.144 18.912 42.144 42.144s-18.912 42.144-42.144 42.144zM486.752 334.176h-65.408c-7.136 0-12.896 5.792-12.896 12.896s5.792 12.896 12.896 12.896h65.408c7.136 0 12.896-5.792 12.896-12.896s-5.792-12.896-12.896-12.896zM217.888 334.176h-65.408c-7.136 0-12.896 5.792-12.896 12.896s5.792 12.896 12.896 12.896h65.408c7.136 0 12.896-5.792 12.896-12.896s-5.792-12.896-12.896-12.896z" />
<glyph unicode="&#xe948;" glyph-name="ows_0073" d="M281.6 415.904c-42.4 0-76.896 34.496-76.896 76.896s34.496 76.896 76.896 76.896 76.896-34.496 76.896-76.896-34.496-76.896-76.896-76.896zM281.6 518.496c-14.176 0-25.696-11.52-25.696-25.696s11.52-25.696 25.696-25.696 25.696 11.52 25.696 25.696-11.52 25.696-25.696 25.696zM486.4 6.4c-14.144 0-25.6 11.456-25.6 25.6v153.504c0 39.52 29.76 79.008 67.776 89.888l76.8 21.984-166.912 111.264-87.552-87.552c-4.8-4.8-11.328-7.488-18.112-7.488h-102.496c-14.144 0-25.6 11.456-25.6 25.6s11.456 25.6 25.6 25.6h91.904l94.912 94.912c8.64 8.64 22.144 9.952 32.288 3.2l187.808-125.216c28.16-18.752 28.064-40.832 26.72-49.44s-7.968-29.664-40.512-38.976l-80.768-23.104c-16.064-4.608-30.656-24-30.656-40.672v-153.504c0-14.144-11.456-25.6-25.6-25.6zM768-147.2c-112.928 0-204.8 91.872-204.8 204.8s91.872 204.8 204.8 204.8 204.8-91.872 204.8-204.8-91.872-204.8-204.8-204.8zM768 211.2c-84.704 0-153.6-68.896-153.6-153.6s68.896-153.6 153.6-153.6 153.6 68.896 153.6 153.6-68.896 153.6-153.6 153.6zM204.736-147.2c-112.896 0-204.736 91.84-204.736 204.736s91.84 204.736 204.736 204.736 204.736-91.84 204.736-204.736-91.84-204.736-204.736-204.736zM204.736 211.104c-84.672 0-153.536-68.896-153.536-153.536s68.896-153.536 153.536-153.536 153.536 68.896 153.536 153.536-68.896 153.536-153.536 153.536z" />
<glyph unicode="&#xe949;" glyph-name="ows_0074" d="M811.328 876.8h-598.656c-34.048 0-61.76-27.712-61.76-61.76v-900.512c0-34.048 27.712-61.76 61.76-61.76h489.216c5.696 0 11.168 2.272 15.2 6.304l149.696 149.696c4.032 4.032 6.304 9.504 6.304 15.2v791.072c0 34.048-27.712 61.76-61.76 61.76zM723.392-73.792v57.536c0 10.336 8.416 18.752 18.752 18.752h57.536l-76.288-76.288zM212.672 833.824h598.656c10.336 0 18.752-8.416 18.752-18.752v-66.432h-636.16v66.432c0 10.336 8.416 18.752 18.752 18.752zM193.92-85.44v791.072h636.16v-660.16h-87.936c-34.048 0-61.76-27.712-61.76-61.76v-87.936h-467.744c-10.336 0-18.752 8.416-18.752 18.752zM282.4 546.464h281.472c11.872 0 21.504 9.632 21.504 21.504s-9.632 21.504-21.504 21.504h-281.472c-11.872 0-21.504-9.632-21.504-21.504s9.632-21.504 21.504-21.504zM649.888 546.464h72.672c11.872 0 21.504 9.632 21.504 21.504s-9.632 21.504-21.504 21.504h-72.672c-11.872 0-21.504-9.632-21.504-21.504s9.632-21.504 21.504-21.504zM282.4 375.776h281.472c11.872 0 21.504 9.632 21.504 21.504s-9.632 21.504-21.504 21.504h-281.472c-11.872 0-21.504-9.632-21.504-21.504s9.632-21.504 21.504-21.504zM649.888 375.776h72.672c11.872 0 21.504 9.632 21.504 21.504s-9.632 21.504-21.504 21.504h-72.672c-11.872 0-21.504-9.632-21.504-21.504s9.632-21.504 21.504-21.504zM585.376 226.592c0 11.872-9.632 21.504-21.504 21.504h-281.472c-11.872 0-21.504-9.632-21.504-21.504s9.632-21.504 21.504-21.504h281.472c11.872 0 21.504 9.632 21.504 21.504zM649.888 205.088h72.672c11.872 0 21.504 9.632 21.504 21.504s-9.632 21.504-21.504 21.504h-72.672c-11.872 0-21.504-9.632-21.504-21.504s9.632-21.504 21.504-21.504zM722.56 82.272c11.872 0 21.504 9.632 21.504 21.504s-9.632 21.504-21.504 21.504h-204.704c-11.872 0-21.504-9.632-21.504-21.504s9.632-21.504 21.504-21.504h204.704z" />
<glyph unicode="&#xe94a;" glyph-name="ows_0075" d="M576 336c19.424-14.592 32-37.824 32-64 0-44.192-35.808-80-80-80s-80 35.808-80 80c0 26.176 12.576 49.408 32 64-19.424 14.592-32 37.824-32 64 0 44.192 35.808 80 80 80s80-35.808 80-80c0-26.176-12.576-49.408-32-64v0 0zM528-64v0c-220.928 0-400 179.072-400 400s179.072 400 400 400c220.928 0 400-179.072 400-400s-179.072-400-400-400zM528-32c203.232 0 368 164.768 368 368s-164.768 368-368 368c-203.232 0-368-164.768-368-368s164.768-368 368-368v0zM528 128c114.88 0 208 93.12 208 208s-93.12 208-208 208c-114.88 0-208-93.12-208-208s93.12-208 208-208v0zM528 224c26.496 0 48 21.504 48 48s-21.504 48-48 48c-26.496 0-48-21.504-48-48s21.504-48 48-48v0zM528 352c26.496 0 48 21.504 48 48s-21.504 48-48 48c-26.496 0-48-21.504-48-48s21.504-48 48-48v0z" />
<glyph unicode="&#xe94b;" glyph-name="ows_0076" d="M576 336c19.424-14.592 32-37.824 32-64 0-44.192-35.808-80-80-80s-80 35.808-80 80c0 26.176 12.576 49.408 32 64-19.424 14.592-32 37.824-32 64 0 44.192 35.808 80 80 80s80-35.808 80-80c0-26.176-12.576-49.408-32-64v0 0zM528-64v0c-220.928 0-400 179.072-400 400s179.072 400 400 400c220.928 0 400-179.072 400-400s-179.072-400-400-400zM528 128c114.88 0 208 93.12 208 208s-93.12 208-208 208c-114.88 0-208-93.12-208-208s93.12-208 208-208v0zM528 224c26.496 0 48 21.504 48 48s-21.504 48-48 48c-26.496 0-48-21.504-48-48s21.504-48 48-48v0zM528 352c26.496 0 48 21.504 48 48s-21.504 48-48 48c-26.496 0-48-21.504-48-48s21.504-48 48-48v0z" />
<glyph unicode="&#xe94c;" glyph-name="ows_0077" d="M128 544v-640c0-35.2 28.8-64 64-64h576c35.2 0 64 28.8 64 64v640h-704zM320-32h-64v448h64v-448zM448-32h-64v448h64v-448zM576-32h-64v448h64v-448zM704-32h-64v448h64v-448zM848 736h-208v80c0 26.4-21.6 48-48 48h-224c-26.4 0-48-21.6-48-48v-80h-208c-26.4 0-48-21.6-48-48v-80h832v80c0 26.4-21.6 48-48 48zM576 736h-192v63.2h192v-63.2z" />
<glyph unicode="&#xe94d;" glyph-name="ows_0078" d="M192-160h640l64 704h-768zM640 736v128h-256v-128h-320v-192l64 64h768l64-64v192h-320zM576 736h-128v64h128v-64z" />
<glyph unicode="&#xe94e;" glyph-name="ows_0079" d="M608 448v96h32v-96h96v-32h-96v-96h-32v96h-96v32h96zM640 256.704v0 0c89.696 8.096 160 83.488 160 175.296s-70.304 167.2-160 175.296v32.992c0 52.864-42.944 95.712-95.904 95.712h-192.192c-52.96 0-95.904-42.944-95.904-95.712v-672.288l192 192 192-192v288.704zM608 256.704v-211.904l-160 160-160-160v595.392c0 35.072 28.64 63.808 64 63.808h192.032c35.584 0 64-28.576 64-63.808v-32.896c-89.696-8.096-160-83.488-160-175.296s70.304-167.2 160-175.296v0 0zM624 288v0 0c-79.52 0-144 64.48-144 144s64.48 144 144 144c79.52 0 144-64.48 144-144s-64.48-144-144-144z" />
<glyph unicode="&#xe94f;" glyph-name="ows_0080" d="M608 448v96h32v-96h96v-32h-96v-96h-32v96h-96v32h96zM640 224.608v-256.608l-192 192-192-192v672.288c0 52.768 42.944 95.712 95.904 95.712h192.192c52.992 0 95.904-42.848 95.904-95.712v-0.896c-5.28 0.416-10.624 0.608-16 0.608-114.88 0-208-93.12-208-208s93.12-208 208-208c5.376 0 10.72 0.192 16 0.608v0 0zM624 256c97.216 0 176 78.784 176 176s-78.784 176-176 176c-97.216 0-176-78.784-176-176s78.784-176 176-176v0z" />
<glyph unicode="&#xe950;" glyph-name="ows_0081" d="M640 256.704v0 0c89.696 8.096 160 83.488 160 175.296s-70.304 167.2-160 175.296v32.992c0 52.864-42.944 95.712-95.904 95.712h-192.192c-52.96 0-95.904-42.944-95.904-95.712v-672.288l192 192 192-192v288.704zM608 256.704v-211.904l-160 160-160-160v595.392c0 35.072 28.64 63.808 64 63.808h192.032c35.584 0 64-28.576 64-63.808v-32.896c-89.696-8.096-160-83.488-160-175.296s70.304-167.2 160-175.296v0 0zM624 288v0 0c-79.52 0-144 64.48-144 144s64.48 144 144 144c79.52 0 144-64.48 144-144s-64.48-144-144-144zM512 448v-32h224v32h-224z" />
<glyph unicode="&#xe951;" glyph-name="ows_0082" d="M640 224.608v-256.608l-192 192-192-192v672.288c0 52.768 42.944 95.712 95.904 95.712h192.192c52.992 0 95.904-42.848 95.904-95.712v-0.896c-5.28 0.416-10.624 0.608-16 0.608-114.88 0-208-93.12-208-208s93.12-208 208-208c5.376 0 10.72 0.192 16 0.608v0 0zM624 256v0c-97.216 0-176 78.784-176 176s78.784 176 176 176c97.216 0 176-78.784 176-176s-78.784-176-176-176zM512 448v-32h224v32h-224z" />
<glyph unicode="&#xe952;" glyph-name="ows_0083" d="M415.904 736h192.192c52.992 0 95.904-42.848 95.904-95.712v-672.288l-192 192-192-192v672.288c0 52.768 42.944 95.712 95.904 95.712zM416 704c-35.328 0-64-28.736-64-63.808v-595.392l160 160 160-160v595.392c0 35.232-28.384 63.808-64 63.808h-192.032z" />
<glyph unicode="&#xe953;" glyph-name="ows_0084" d="M415.904 736c-52.96 0-95.904-42.944-95.904-95.712v-672.288l192 192 192-192v672.288c0 52.864-42.944 95.712-95.904 95.712h-192.192z" />
<glyph unicode="&#xe954;" glyph-name="ows_0085" d="M528-64v0c-220.928 0-400 179.072-400 400s179.072 400 400 400c220.928 0 400-179.072 400-400s-179.072-400-400-400zM528-32c203.232 0 368 164.768 368 368s-164.768 368-368 368c-203.232 0-368-164.768-368-368s164.768-368 368-368v0zM528 448c26.496 0 48 21.504 48 48s-21.504 48-48 48c-26.496 0-48-21.504-48-48s21.504-48 48-48v0zM624 288c26.496 0 48 21.504 48 48s-21.504 48-48 48c-26.496 0-48-21.504-48-48s21.504-48 48-48v0zM432 288c26.496 0 48 21.504 48 48s-21.504 48-48 48c-26.496 0-48-21.504-48-48s21.504-48 48-48v0z" />
<glyph unicode="&#xe955;" glyph-name="ows_0086" d="M528-64v0c-220.928 0-400 179.072-400 400s179.072 400 400 400c220.928 0 400-179.072 400-400s-179.072-400-400-400zM528 448c26.496 0 48 21.504 48 48s-21.504 48-48 48c-26.496 0-48-21.504-48-48s21.504-48 48-48v0zM624 288c26.496 0 48 21.504 48 48s-21.504 48-48 48c-26.496 0-48-21.504-48-48s21.504-48 48-48v0zM432 288c26.496 0 48 21.504 48 48s-21.504 48-48 48c-26.496 0-48-21.504-48-48s21.504-48 48-48v0z" />
<glyph unicode="&#xe956;" glyph-name="ows_0087" d="M449.248 41.056v0 0c-20.928 28.96-33.248 64.512-33.248 102.944 0 50.624 21.376 96.256 55.616 128.384-10.688 50.304-29.344 88.96-42.368 111.616h-90.816c-19.136-33.472-50.432-101.856-50.432-191.232 0-112.768 51.2-192.768 51.2-192.768h89.6c0 0 9.568 14.944 20.448 41.056zM472.608 14.688c-13.184-29.504-24.608-46.688-24.608-46.688h-128c0 0-64 96-64 224.768s64 223.232 64 223.232v64c0 64-32 96-32 144 0 35.584 32 80 96 80s96-44.64 96-80c0-48-32-80-32-144v-64c0 0 32.576-48.128 51.232-122.4 26.944 16.736 58.72 26.4 92.768 26.4 97.216 0 176-78.784 176-176s-78.784-176-176-176c-46.080 0-88 17.696-119.392 46.688v0 0zM352.8 416h62.016l1.184 64h-64l0.8-64zM350.048 512h67.904c6.976 53.152 30.016 71.232 30.016 112 0 35.36-30.432 48.64-64 48.64s-64-13.056-64-48.64c0-40.8 23.136-58.496 30.048-112zM592 0c79.52 0 144 64.48 144 144s-64.48 144-144 144c-79.52 0-144-64.48-144-144s64.48-144 144-144v0zM592 224c8.832 0 16 7.168 16 16s-7.168 16-16 16c-8.832 0-16-7.168-16-16s7.168-16 16-16v0zM560 160c8.832 0 16 7.168 16 16s-7.168 16-16 16c-8.832 0-16-7.168-16-16s7.168-16 16-16v0zM624 160c8.832 0 16 7.168 16 16s-7.168 16-16 16c-8.832 0-16-7.168-16-16s7.168-16 16-16v0z" />
<glyph unicode="&#xe957;" glyph-name="ows_0088" d="M457.952-15.040c-5.984-10.976-9.952-16.96-9.952-16.96h-128c0 0-64 96-64 224.768 0 83.808 27.104 153.056 46.048 191.232v0h163.904c7.456-15.072 16.224-34.944 24.064-58.688-63.264-35.68-106.016-103.52-106.016-181.312 0-63.808 28.736-120.896 73.952-159.040v0 0zM320 416v64h128v-64h-128zM317.216 512c-7.776 44.16-29.216 72.736-29.216 112 0 35.584 32 80 96 80s96-44.64 96-80c0-39.264-21.44-67.84-29.216-112h-133.568zM592-32v0c-97.216 0-176 78.784-176 176s78.784 176 176 176c97.216 0 176-78.784 176-176s-78.784-176-176-176zM592 224c8.832 0 16 7.168 16 16s-7.168 16-16 16c-8.832 0-16-7.168-16-16s7.168-16 16-16v0zM560 160c8.832 0 16 7.168 16 16s-7.168 16-16 16c-8.832 0-16-7.168-16-16s7.168-16 16-16v0zM624 160c8.832 0 16 7.168 16 16s-7.168 16-16 16c-8.832 0-16-7.168-16-16s7.168-16 16-16v0z" />
<glyph unicode="&#xe958;" glyph-name="ows_0089" d="M672.8 416h62.016l1.184 64h-64l0.8-64zM658.432 384c-19.136-33.472-50.432-101.856-50.432-191.232 0-112.768 51.2-192.768 51.2-192.768h89.6c0 0 51.2 79.968 51.2 192.768 0 89.344-31.52 157.76-50.784 191.232h-90.816zM670.048 512h67.904c6.976 53.152 30.048 71.232 30.048 112 0 35.36-30.432 48.64-64 48.64s-64-13.056-64-48.64c0-40.8 23.136-58.496 30.048-112zM288.8 416h62.016l1.184 64h-64l0.8-64zM274.432 384c-19.136-33.472-50.432-101.856-50.432-191.232 0-112.768 51.2-192.768 51.2-192.768h89.6c0 0 51.2 79.968 51.2 192.768 0 89.344-31.52 157.76-50.784 191.232h-90.816zM286.048 512h67.904c6.976 53.152 30.016 71.232 30.016 112 0 35.36-30.432 48.64-64 48.64s-64-13.056-64-48.64c0-40.8 23.136-58.496 30.048-112zM448 192.768c0-128.672-64-224.768-64-224.768h-128c0 0-64 96-64 224.768s64 223.232 64 223.232v64c0 64-32 96-32 144 0 35.584 32 80 96 80s96-44.64 96-80c0-48-32-80-32-144v-64c0 0 64-94.56 64-223.232v0zM832 192.768c0-128.672-64-224.768-64-224.768h-128c0 0-64 96-64 224.768s64 223.232 64 223.232v64c0 64-32 96-32 144 0 35.584 32 80 96 80s96-44.64 96-80c0-48-32-80-32-144v-64c0 0 64-94.56 64-223.232v0z" />
<glyph unicode="&#xe959;" glyph-name="ows_0090" d="M640 416v64h128v-64h-128zM622.048 384c-18.944-38.176-46.048-107.424-46.048-191.232 0-128.768 64-224.768 64-224.768h128c0 0 64 96.096 64 224.768 0 83.744-27.104 153.056-46.048 191.232h-163.904zM637.216 512c-7.776 44.16-29.216 72.736-29.216 112 0 35.584 32 80 96 80s96-44.64 96-80c0-39.264-21.44-67.84-29.216-112h-133.568zM256 416v64h128v-64h-128zM238.048 384c-18.944-38.176-46.048-107.424-46.048-191.232 0-128.768 64-224.768 64-224.768h128c0 0 64 96.096 64 224.768 0 83.744-27.104 153.056-46.048 191.232h-163.904zM253.216 512c-7.776 44.16-29.216 72.736-29.216 112 0 35.584 32 80 96 80s96-44.64 96-80c0-39.264-21.44-67.84-29.216-112h-133.568z" />
<glyph unicode="&#xe95a;" glyph-name="ows_0091" d="M736 416h96v-448h-672v448h384v-288l96 96 96-96v288zM128 416v-480h736v480h64v256h-864v-256h64zM96 640h800v-192h-800v192zM576 416h128v-211.2l-64 64-64-64v211.2z" />
<glyph unicode="&#xe95b;" glyph-name="ows_0092" d="M864 416v-480h-736v480h416v-288l96 96 96-96v288h128zM928 448v224h-864v-224h864zM576 416v-211.2l64 64 64-64v211.2h-128z" />
<glyph unicode="&#xe95c;" glyph-name="ows_0093" d="M128 448h-64v256h864v-256h-64v-480h-736v480zM160 448v-448h672v448h-672zM96 672v-192h800v192h-800zM415.904 288h160.16c35.264 0 63.904-28.64 63.904-64 0-35.584-28.608-64-63.904-64h-160.16c-35.264 0-63.904 28.64-63.904 64 0 35.584 28.608 64 63.904 64zM416.096 256c-17.728 0-32.096-14.208-32.096-32 0-17.664 14.016-32 32.096-32h159.808c17.728 0 32.096 14.208 32.096 32 0 17.664-14.016 32-32.096 32h-159.808z" />
<glyph unicode="&#xe95d;" glyph-name="ows_0094" d="M864 448v-480h-736v480h736zM928 480v224h-864v-224h864zM415.904 288c-35.296 0-63.904-28.416-63.904-64 0-35.36 28.672-64 63.904-64h160.16c35.296 0 63.904 28.416 63.904 64 0 35.36-28.672 64-63.904 64h-160.16z" />
<glyph unicode="&#xe95e;" glyph-name="ows_0095" d="M415.456 446.464v0c1.28-0.448 2.688-0.96 4.16-1.472 11.744-4.096 24.608-8.192 38.112-12 23.104-6.528 45.664-11.552 66.656-14.496 13.248-1.856 25.568-2.816 36.832-2.816 29.28 0 59.648 6.016 89.184 16.032 10.4 3.52 19.936 7.296 28.352 11.072 4.992 2.208 8.448 3.904 10.112 4.8l14.976-28.288c-2.304-1.216-6.4-3.232-12.064-5.76-9.312-4.16-19.744-8.288-31.104-12.128-32.64-11.072-66.304-17.728-99.488-17.728-12.832 0-26.624 1.088-41.248 3.104-22.592 3.136-46.56 8.48-70.976 15.392-14.176 4-27.616 8.288-39.936 12.576-1.664 0.576-3.232 1.12-4.704 1.664-30.912 0.448-116.384-3.744-116.384-64.448 0-100.16 96-94.88 124.8-192h355.2v320.16c0 88.288-71.648 159.84-160.032 159.84h-31.936c-88.384 0-160.224-71.488-160.48-159.808l-0.096-33.728zM384 128c0 98.432-127.712 96-128 224-0.224 96 128 96 128 96v32.096c0 105.952 86.048 191.904 192.16 191.904h31.648c105.984 0 192.16-85.856 192.16-191.808v-416.192c0-35.584-28.704-64-64.096-64h-287.808c-35.488 0-64.096 28.64-64.096 64v64zM416 128v-64.032c0-17.664 14.24-31.968 31.872-31.968h288.288c17.6 0 31.872 14.176 31.872 31.968v64.032h-352zM448 96v-32h128v32h-128z" />
<glyph unicode="&#xe95f;" glyph-name="ows_0096" d="M256 352c0.256-112.352 98.688-124.192 122.752-192h421.248v320.192c0 105.92-86.208 191.808-192.16 191.808h-31.648c-106.144 0-192.16-85.952-192.16-191.904v-18.688c15.456-7.712 27.168-13.408 28.32-13.824 49.44-17.952 104.576-31.872 148.896-31.872 29.28 0 59.648 6.016 89.184 16.032 10.4 3.52 19.936 7.296 28.352 11.072 4.992 2.208 8.448 3.904 10.112 4.8l14.976-28.288c-2.304-1.216-6.4-3.232-12.064-5.76-9.312-4.16-19.744-8.288-31.104-12.128-32.64-11.072-66.304-17.728-99.488-17.728-49.056 0-107.104 14.656-159.84 33.824-3.040 1.088-13.376 6.144-32.16 15.488-7.264 3.616-14.4 7.2-21.472 10.752-38.048-7.616-91.904-29.504-91.776-91.744v0zM384 128h416v-64c0-35.584-28.704-64-64.096-64h-287.808c-35.488 0-64.096 28.64-64.096 64v64zM448 96v-32h128v32h-128z" />
</font>
</defs>
</svg>
